STARTFONT 2.1
COMMENT
COMMENT Converted from OpenType font "KH-Dot-Hibiya-32.ttf" by "otf2bdf 3.0".
COMMENT
FONT -FreeType-KH Dot Hibiya 32-Medium-R-Normal--17-120-100-100-P-300-ISO10646-1
SIZE 12 100 100
FONTBOUNDINGBOX 32 32 0 -4
STARTPROPERTIES 19
FOUNDRY "FreeType"
FAMILY_NAME "KH Dot Hibiya 32"
WEIGHT_NAME "Medium"
SLANT "R"
SETWIDTH_NAME "Normal"
ADD_STYLE_NAME ""
PIXEL_SIZE 17
POINT_SIZE 120
RESOLUTION_X 100
RESOLUTION_Y 100
SPACING "P"
AVERAGE_WIDTH 300
CHARSET_REGISTRY "ISO10646"
CHARSET_ENCODING "1"
FONT_ASCENT 27
FONT_DESCENT 4
COPYRIGHT "Copyright (c) Keitarou Hiraki, Font Silo. 1990-2015"
_OTF_FONTFILE "KH-Dot-Hibiya-32.ttf"
_OTF_PSNAME "KH-Dot-Hibiya-32"
ENDPROPERTIES
CHARS 7623
STARTCHAR 0020
ENCODING 32
SWIDTH 960 0
DWIDTH 16 0
BBX 1 1 0 0
BITMAP
00
ENDCHAR
STARTCHAR 0021
ENCODING 33
SWIDTH 960 0
DWIDTH 16 0
BBX 4 24 6 0
BITMAP
60
F0
F0
F0
60
60
60
60
60
60
60
60
60
60
60
60
00
00
00
00
60
F0
F0
60
ENDCHAR
STARTCHAR 0022
ENCODING 34
SWIDTH 960 0
DWIDTH 16 0
BBX 10 10 2 16
BITMAP
6180
E380
F3C0
71C0
30C0
30C0
2080
6180
4100
8200
ENDCHAR
STARTCHAR 0023
ENCODING 35
SWIDTH 960 0
DWIDTH 16 0
BBX 16 24 0 0
BITMAP
0408
0408
0408
0408
0408
0408
7FFF
7FFF
0810
0810
0810
0810
0810
0810
0810
0810
FFFE
FFFE
1020
1020
1020
1020
1020
1020
ENDCHAR
STARTCHAR 0024
ENCODING 36
SWIDTH 960 0
DWIDTH 16 0
BBX 14 30 1 -3
BITMAP
0200
0200
0200
0F88
3268
6238
6218
C208
C208
C208
6200
6200
3A00
1E00
0780
03E0
0270
0238
0218
820C
820C
820C
C218
C218
E230
B260
8F80
0200
0200
0200
ENDCHAR
STARTCHAR 0025
ENCODING 37
SWIDTH 960 0
DWIDTH 16 0
BBX 16 24 0 0
BITMAP
1C00
6302
4102
C184
C188
C188
C190
4120
6320
1C40
0080
0080
0100
0200
0238
04C6
0882
0983
1183
2183
2183
4082
80C6
8038
ENDCHAR
STARTCHAR 0026
ENCODING 38
SWIDTH 960 0
DWIDTH 16 0
BBX 16 24 0 0
BITMAP
0700
38C0
3060
6030
6030
6030
6030
3060
30C0
1900
1E00
0C3F
1C04
2604
6604
4308
C188
C188
C0D0
C0D0
6060
6071
31BE
0E0C
ENDCHAR
STARTCHAR 0027
ENCODING 39
SWIDTH 960 0
DWIDTH 16 0
BBX 4 10 3 16
BITMAP
60
E0
F0
70
30
30
20
60
40
80
ENDCHAR
STARTCHAR 0028
ENCODING 40
SWIDTH 960 0
DWIDTH 16 0
BBX 8 30 6 -3
BITMAP
01
02
04
08
18
30
30
60
60
60
C0
C0
C0
C0
C0
C0
C0
C0
C0
C0
60
60
60
30
30
18
08
04
02
01
ENDCHAR
STARTCHAR 0029
ENCODING 41
SWIDTH 960 0
DWIDTH 16 0
BBX 8 30 2 -3
BITMAP
80
40
20
10
18
0C
0C
06
06
06
03
03
03
03
03
03
03
03
03
03
06
06
06
0C
0C
18
10
20
40
80
ENDCHAR
STARTCHAR 002A
ENCODING 42
SWIDTH 960 0
DWIDTH 16 0
BBX 16 30 0 -4
BITMAP
0000
0000
0000
0000
0000
0100
0380
0380
8102
610C
711C
1930
0540
0380
0540
1930
711C
610C
8102
0380
0380
0100
0000
0000
0000
0000
0000
0000
0000
0000
ENDCHAR
STARTCHAR 002B
ENCODING 43
SWIDTH 960 0
DWIDTH 16 0
BBX 16 30 0 -4
BITMAP
0000
0000
0000
0000
0000
0000
0100
0100
0100
0100
0100
0100
0100
7FFE
0100
0100
0100
0100
0100
0100
0100
0100
0000
0000
0000
0000
0000
0000
0000
0000
ENDCHAR
STARTCHAR 002C
ENCODING 44
SWIDTH 960 0
DWIDTH 16 0
BBX 16 30 0 -4
BITMAP
0000
0000
0000
0000
0000
0000
0000
0000
0000
0000
0000
0000
0000
0000
0000
0000
0000
0000
0000
0C00
1C00
1E00
0E00
0600
0600
0400
0C00
0800
1000
0000
ENDCHAR
STARTCHAR 002D
ENCODING 45
SWIDTH 960 0
DWIDTH 16 0
BBX 16 30 0 -4
BITMAP
0000
0000
0000
0000
0000
0000
0000
0000
0000
0000
0000
0000
0000
7FFE
0000
0000
0000
0000
0000
0000
0000
0000
0000
0000
0000
0000
0000
0000
0000
0000
ENDCHAR
STARTCHAR 002E
ENCODING 46
SWIDTH 960 0
DWIDTH 16 0
BBX 16 30 0 -4
BITMAP
0000
0000
0000
0000
0000
0000
0000
0000
0000
0000
0000
0000
0000
0000
0000
0000
0000
0000
0000
0000
0180
03C0
03C0
0180
0000
0000
0000
0000
0000
0000
ENDCHAR
STARTCHAR 002F
ENCODING 47
SWIDTH 960 0
DWIDTH 16 0
BBX 16 30 0 -4
BITMAP
0002
0002
0004
0004
0008
0008
0010
0010
0020
0020
0040
0040
0080
0080
0100
0100
0200
0200
0400
0400
0800
0800
1000
1000
2000
2000
4000
4000
0000
0000
ENDCHAR
STARTCHAR 0030
ENCODING 48
SWIDTH 960 0
DWIDTH 16 0
BBX 16 30 0 -4
BITMAP
0000
0000
03C0
0C30
1818
1818
300C
300C
300C
300C
300C
300C
300C
300C
300C
300C
300C
300C
300C
300C
300C
300C
1818
1818
0C30
03C0
0000
0000
0000
0000
ENDCHAR
STARTCHAR 0031
ENCODING 49
SWIDTH 960 0
DWIDTH 16 0
BBX 16 30 0 -4
BITMAP
0000
0000
0080
0180
0380
1F80
0180
0180
0180
0180
0180
0180
0180
0180
0180
0180
0180
0180
0180
0180
0180
0180
0180
0180
0180
0FF0
0000
0000
0000
0000
ENDCHAR
STARTCHAR 0032
ENCODING 50
SWIDTH 960 0
DWIDTH 16 0
BBX 16 30 0 -4
BITMAP
0000
0000
03C0
0C30
1818
3018
300C
300C
000C
000C
0018
0018
0030
0060
00C0
0180
0300
0200
0600
0C00
0804
1804
1004
300C
3FFC
3FFC
0000
0000
0000
0000
ENDCHAR
STARTCHAR 0033
ENCODING 51
SWIDTH 960 0
DWIDTH 16 0
BBX 16 30 0 -4
BITMAP
0000
0000
0780
0C60
1830
1830
1818
0018
0018
0018
0030
0030
0060
07C0
0030
0018
0018
000C
000C
000C
300C
300C
3018
1818
0C30
03C0
0000
0000
0000
0000
ENDCHAR
STARTCHAR 0034
ENCODING 52
SWIDTH 960 0
DWIDTH 16 0
BBX 16 30 0 -4
BITMAP
0000
0000
0030
0030
0070
0070
00B0
00B0
0130
0130
0230
0230
0430
0430
0830
0830
1030
1030
2030
7FFE
0030
0030
0030
0030
0030
00FC
0000
0000
0000
0000
ENDCHAR
STARTCHAR 0035
ENCODING 53
SWIDTH 960 0
DWIDTH 16 0
BBX 16 30 0 -4
BITMAP
0000
0000
1FF8
1FF0
1000
1000
1000
1000
1000
1000
11C0
1630
1C18
1818
100C
000C
000C
000C
000C
000C
180C
380C
3018
1818
0C30
03C0
0000
0000
0000
0000
ENDCHAR
STARTCHAR 0036
ENCODING 54
SWIDTH 960 0
DWIDTH 16 0
BBX 16 30 0 -4
BITMAP
0000
0000
03C0
0C30
1818
180C
300C
300C
3000
3000
3000
31C0
3630
3C18
3818
380C
300C
300C
300C
300C
300C
300C
1818
1818
0C30
03C0
0000
0000
0000
0000
ENDCHAR
STARTCHAR 0037
ENCODING 55
SWIDTH 960 0
DWIDTH 16 0
BBX 16 30 0 -4
BITMAP
0000
0000
3FFC
3FFC
3008
2008
2010
2010
0020
0020
0060
0040
0040
00C0
00C0
0080
0180
0180
0180
0300
0300
0300
0300
0300
0300
0300
0000
0000
0000
0000
ENDCHAR
STARTCHAR 0038
ENCODING 56
SWIDTH 960 0
DWIDTH 16 0
BBX 16 30 0 -4
BITMAP
0000
0000
03C0
0C30
1818
1818
300C
300C
300C
300C
1818
1818
0C30
03C0
0C30
1818
1818
300C
300C
300C
300C
300C
1818
1818
0C30
03C0
0000
0000
0000
0000
ENDCHAR
STARTCHAR 0039
ENCODING 57
SWIDTH 960 0
DWIDTH 16 0
BBX 16 30 0 -4
BITMAP
0000
0000
03C0
0C30
1818
1818
300C
300C
300C
300C
300C
300C
300C
181C
183C
0C6C
038C
000C
000C
000C
300C
300C
3018
1818
0C30
03C0
0000
0000
0000
0000
ENDCHAR
STARTCHAR 003A
ENCODING 58
SWIDTH 960 0
DWIDTH 16 0
BBX 16 30 0 -4
BITMAP
0000
0000
0000
0000
0000
0000
0000
0000
0180
03C0
03C0
0180
0000
0000
0000
0000
0000
0000
0000
0000
0180
03C0
03C0
0180
0000
0000
0000
0000
0000
0000
ENDCHAR
STARTCHAR 003B
ENCODING 59
SWIDTH 960 0
DWIDTH 16 0
BBX 16 30 0 -4
BITMAP
0000
0000
0000
0000
0000
0000
0000
0000
0180
03C0
03C0
0180
0000
0000
0000
0000
0000
0000
0000
0000
0180
0380
03C0
01C0
00C0
00C0
0080
0180
0100
0200
ENDCHAR
STARTCHAR 003C
ENCODING 60
SWIDTH 960 0
DWIDTH 16 0
BBX 16 30 0 -4
BITMAP
0002
0004
0008
0010
0020
0040
0080
0100
0200
0400
0800
1000
2000
4000
2000
1000
0800
0400
0200
0100
0080
0040
0020
0010
0008
0004
0002
0000
0000
0000
ENDCHAR
STARTCHAR 003D
ENCODING 61
SWIDTH 960 0
DWIDTH 16 0
BBX 16 30 0 -4
BITMAP
0000
0000
0000
0000
0000
0000
0000
0000
0000
0000
0000
7FFE
0000
0000
0000
0000
7FFE
0000
0000
0000
0000
0000
0000
0000
0000
0000
0000
0000
0000
0000
ENDCHAR
STARTCHAR 003E
ENCODING 62
SWIDTH 960 0
DWIDTH 16 0
BBX 16 30 0 -4
BITMAP
4000
2000
1000
0800
0400
0200
0100
0080
0040
0020
0010
0008
0004
0002
0004
0008
0010
0020
0040
0080
0100
0200
0400
0800
1000
2000
4000
0000
0000
0000
ENDCHAR
STARTCHAR 003F
ENCODING 63
SWIDTH 960 0
DWIDTH 16 0
BBX 16 30 0 -4
BITMAP
0000
0000
07E0
1818
300C
600C
6006
7006
3006
0006
0006
000C
000C
0018
01E0
0180
0180
0180
0180
0180
0000
0000
0180
03C0
03C0
0180
0000
0000
0000
0000
ENDCHAR
STARTCHAR 0040
ENCODING 64
SWIDTH 960 0
DWIDTH 16 0
BBX 16 30 0 -4
BITMAP
0000
0000
03C0
0C30
1808
3004
2004
61B2
6372
C632
C632
CC32
CC32
CC32
CC62
CC62
CC64
CC64
CC68
C6F0
6360
6001
6002
300C
1838
07E0
0000
0000
0000
0000
ENDCHAR
STARTCHAR 0041
ENCODING 65
SWIDTH 960 0
DWIDTH 16 0
BBX 16 30 0 -4
BITMAP
0000
0000
0180
0180
0180
0180
02C0
02C0
02C0
02C0
0460
0460
0460
0460
0830
0830
0830
0830
1FF8
1018
1018
1018
200C
200C
200C
F83F
0000
0000
0000
0000
ENDCHAR
STARTCHAR 0042
ENCODING 66
SWIDTH 960 0
DWIDTH 16 0
BBX 16 30 0 -4
BITMAP
0000
0000
7FC0
1830
1818
1818
180C
180C
180C
180C
1818
1818
1830
1FC0
1830
1818
180C
180C
1806
1806
1806
180C
180C
1818
1870
7F80
0000
0000
0000
0000
ENDCHAR
STARTCHAR 0043
ENCODING 67
SWIDTH 960 0
DWIDTH 16 0
BBX 16 30 0 -4
BITMAP
0000
0000
07C4
1834
301C
200C
600C
6004
6004
C000
C000
C000
C000
C000
C000
C000
C000
C002
C002
6002
6004
6004
2008
3018
1870
07C0
0000
0000
0000
0000
ENDCHAR
STARTCHAR 0044
ENCODING 68
SWIDTH 960 0
DWIDTH 16 0
BBX 16 30 0 -4
BITMAP
0000
0000
FE00
3180
3060
3030
3018
3018
300C
300C
3006
3006
3006
3006
3006
3006
3006
3006
300C
300C
3018
3018
3030
3060
3180
FE00
0000
0000
0000
0000
ENDCHAR
STARTCHAR 0045
ENCODING 69
SWIDTH 960 0
DWIDTH 16 0
BBX 16 30 0 -4
BITMAP
0000
0000
7FFC
180C
180C
1804
1804
1804
1800
1800
1808
1808
1818
1FF8
1818
1808
1808
1800
1800
1800
1802
1802
1802
1806
1806
7FFE
0000
0000
0000
0000
ENDCHAR
STARTCHAR 0046
ENCODING 70
SWIDTH 960 0
DWIDTH 16 0
BBX 16 30 0 -4
BITMAP
0000
0000
7FFE
1806
1806
1802
1802
1802
1800
1800
1808
1808
1818
1FF8
1818
1808
1808
1800
1800
1800
1800
1800
1800
1800
1800
7F00
0000
0000
0000
0000
ENDCHAR
STARTCHAR 0047
ENCODING 71
SWIDTH 960 0
DWIDTH 16 0
BBX 16 30 0 -4
BITMAP
0000
0000
07C4
1834
301C
200C
600C
6004
6004
C000
C000
C000
C000
C000
C1FF
C00C
C00C
C00C
C00C
600C
600C
600C
201C
303C
186C
0784
0000
0000
0000
0000
ENDCHAR
STARTCHAR 0048
ENCODING 72
SWIDTH 960 0
DWIDTH 16 0
BBX 16 30 0 -4
BITMAP
0000
0000
FC3F
300C
300C
300C
300C
300C
300C
300C
300C
300C
300C
3FFC
300C
300C
300C
300C
300C
300C
300C
300C
300C
300C
300C
FC3F
0000
0000
0000
0000
ENDCHAR
STARTCHAR 0049
ENCODING 73
SWIDTH 960 0
DWIDTH 16 0
BBX 16 30 0 -4
BITMAP
0000
0000
0FF0
0180
0180
0180
0180
0180
0180
0180
0180
0180
0180
0180
0180
0180
0180
0180
0180
0180
0180
0180
0180
0180
0180
0FF0
0000
0000
0000
0000
ENDCHAR
STARTCHAR 004A
ENCODING 74
SWIDTH 960 0
DWIDTH 16 0
BBX 16 30 0 -4
BITMAP
0000
0000
03FC
0060
0060
0060
0060
0060
0060
0060
0060
0060
0060
0060
0060
0060
0060
0060
0060
0060
0060
0060
3060
7060
6060
60C0
20C0
3180
0E00
0000
ENDCHAR
STARTCHAR 004B
ENCODING 75
SWIDTH 960 0
DWIDTH 16 0
BBX 16 30 0 -4
BITMAP
0000
0000
FC7C
3010
3020
3020
3040
3080
3080
3100
3200
3200
3600
3B00
3300
3180
3180
30C0
30C0
3060
3060
3030
3030
3018
3018
FCFE
0000
0000
0000
0000
ENDCHAR
STARTCHAR 004C
ENCODING 76
SWIDTH 960 0
DWIDTH 16 0
BBX 16 30 0 -4
BITMAP
0000
0000
FE00
3000
3000
3000
3000
3000
3000
3000
3000
3000
3000
3000
3000
3000
3000
3000
3000
3000
3004
3004
3004
300C
300C
FFFC
0000
0000
0000
0000
ENDCHAR
STARTCHAR 004D
ENCODING 77
SWIDTH 960 0
DWIDTH 16 0
BBX 16 30 0 -4
BITMAP
0000
0000
F01F
301C
381C
382C
382C
2C2C
2C2C
2C2C
2C4C
2C4C
264C
264C
268C
268C
268C
238C
230C
230C
230C
210C
210C
210C
200C
F83F
0000
0000
0000
0000
ENDCHAR
STARTCHAR 004E
ENCODING 78
SWIDTH 960 0
DWIDTH 16 0
BBX 16 30 0 -4
BITMAP
0000
0000
F01F
3804
3804
2C04
2C04
2C04
2604
2604
2304
2304
2304
2184
2184
20C4
20C4
2064
2064
2064
2034
2034
201C
201C
200C
F80C
0000
0000
0000
0000
ENDCHAR
STARTCHAR 004F
ENCODING 79
SWIDTH 960 0
DWIDTH 16 0
BBX 16 30 0 -4
BITMAP
0000
0000
07C0
1830
3018
2008
600C
600C
600C
C006
C006
C006
C006
C006
C006
C006
C006
C006
C006
600C
600C
600C
2008
3018
1830
07C0
0000
0000
0000
0000
ENDCHAR
STARTCHAR 0050
ENCODING 80
SWIDTH 960 0
DWIDTH 16 0
BBX 16 30 0 -4
BITMAP
0000
0000
7FE0
1818
180C
180C
1806
1806
1806
1806
1806
180C
180C
1818
1FE0
1800
1800
1800
1800
1800
1800
1800
1800
1800
1800
7F00
0000
0000
0000
0000
ENDCHAR
STARTCHAR 0051
ENCODING 81
SWIDTH 960 0
DWIDTH 16 0
BBX 16 30 0 -4
BITMAP
0000
0000
07C0
1830
3018
2008
600C
600C
600C
C006
C006
C006
C006
C006
C006
C006
C006
C006
C006
600C
600C
638C
2448
3838
1830
07E0
0011
001E
000C
0000
ENDCHAR
STARTCHAR 0052
ENCODING 82
SWIDTH 960 0
DWIDTH 16 0
BBX 16 30 0 -4
BITMAP
0000
0000
FFC0
3030
3018
3018
300C
300C
300C
300C
3018
3018
3030
3FC0
3060
3030
3030
3018
3018
3018
300C
300C
300C
300C
300C
FC3F
0000
0000
0000
0000
ENDCHAR
STARTCHAR 0053
ENCODING 83
SWIDTH 960 0
DWIDTH 16 0
BBX 16 30 0 -4
BITMAP
0000
0000
07C4
1834
301C
300C
6004
6004
6004
3000
3000
1C00
0F00
03C0
00F0
0038
001C
000C
4006
4006
4006
600C
600C
7018
5830
47C0
0000
0000
0000
0000
ENDCHAR
STARTCHAR 0054
ENCODING 84
SWIDTH 960 0
DWIDTH 16 0
BBX 16 30 0 -4
BITMAP
0000
0000
FFFF
C183
C183
8181
8181
8181
0180
0180
0180
0180
0180
0180
0180
0180
0180
0180
0180
0180
0180
0180
0180
0180
0180
0FF0
0000
0000
0000
0000
ENDCHAR
STARTCHAR 0055
ENCODING 85
SWIDTH 960 0
DWIDTH 16 0
BBX 16 30 0 -4
BITMAP
0000
0000
FC3E
3008
3008
3008
3008
3008
3008
3008
3008
3008
3008
3008
3008
3008
3008
3008
3008
3008
3008
3008
1810
1810
0C20
07C0
0000
0000
0000
0000
ENDCHAR
STARTCHAR 0056
ENCODING 86
SWIDTH 960 0
DWIDTH 16 0
BBX 16 30 0 -4
BITMAP
0000
0000
FC1F
3004
3004
3004
1808
1808
1808
1808
0C10
0C10
0C10
0C10
0620
0620
0620
0620
0340
0340
0340
0340
0180
0180
0180
0180
0000
0000
0000
0000
ENDCHAR
STARTCHAR 0057
ENCODING 87
SWIDTH 960 0
DWIDTH 16 0
BBX 16 30 0 -4
BITMAP
0000
0000
FBEF
6182
6182
6182
6182
6184
31C4
32C4
32C4
32C4
32C4
3268
1A68
1A68
1A68
1A68
1A68
1C30
0C30
0C30
0C30
0C30
0C30
0C30
0000
0000
0000
0000
ENDCHAR
STARTCHAR 0058
ENCODING 88
SWIDTH 960 0
DWIDTH 16 0
BBX 16 30 0 -4
BITMAP
0000
0000
FC7C
3010
3010
1820
1820
1840
0C40
0C40
0680
0680
0300
0300
0380
0380
04C0
04C0
08C0
0860
0860
1030
1030
2018
2018
F87E
0000
0000
0000
0000
ENDCHAR
STARTCHAR 0059
ENCODING 89
SWIDTH 960 0
DWIDTH 16 0
BBX 16 30 0 -4
BITMAP
0000
0000
FC1F
3004
3004
1808
1808
0C10
0C10
0620
0620
0340
0340
0180
0180
0180
0180
0180
0180
0180
0180
0180
0180
0180
0180
0FF0
0000
0000
0000
0000
ENDCHAR
STARTCHAR 005A
ENCODING 90
SWIDTH 960 0
DWIDTH 16 0
BBX 16 30 0 -4
BITMAP
0000
0000
3FFC
300C
3018
2018
2030
2030
0060
0060
00C0
00C0
0180
0180
0300
0300
0600
0600
0C00
0C00
1802
1802
3002
3006
6006
7FFE
0000
0000
0000
0000
ENDCHAR
STARTCHAR 005B
ENCODING 91
SWIDTH 960 0
DWIDTH 16 0
BBX 10 28 4 0
BITMAP
FFC0
C000
C000
C000
C000
C000
C000
C000
C000
C000
C000
C000
C000
C000
C000
C000
C000
C000
C000
C000
C000
C000
C000
C000
C000
C000
C000
FFC0
ENDCHAR
STARTCHAR 005C
ENCODING 92
SWIDTH 960 0
DWIDTH 16 0
BBX 16 24 0 0
BITMAP
FC1F
3004
3004
1808
1808
0C10
0C10
0620
0620
0340
FFFF
0180
0180
0180
FFFF
0180
0180
0180
0180
0180
0180
0180
0180
0FF0
ENDCHAR
STARTCHAR 005D
ENCODING 93
SWIDTH 960 0
DWIDTH 16 0
BBX 10 28 2 0
BITMAP
FFC0
00C0
00C0
00C0
00C0
00C0
00C0
00C0
00C0
00C0
00C0
00C0
00C0
00C0
00C0
00C0
00C0
00C0
00C0
00C0
00C0
00C0
00C0
00C0
00C0
00C0
00C0
FFC0
ENDCHAR
STARTCHAR 005E
ENCODING 94
SWIDTH 960 0
DWIDTH 16 0
BBX 15 8 0 18
BITMAP
0100
0380
07C0
0C60
1830
2008
4004
8002
ENDCHAR
STARTCHAR 005F
ENCODING 95
SWIDTH 960 0
DWIDTH 16 0
BBX 14 1 1 0
BITMAP
FFFC
ENDCHAR
STARTCHAR 0060
ENCODING 96
SWIDTH 960 0
DWIDTH 16 0
BBX 4 10 6 16
BITMAP
10
20
60
40
C0
C0
E0
F0
70
60
ENDCHAR
STARTCHAR 0061
ENCODING 97
SWIDTH 960 0
DWIDTH 16 0
BBX 15 18 1 0
BITMAP
0FC0
3860
7030
6030
0030
0030
0030
03F0
1C30
3030
6030
C030
C030
C030
C070
C0B2
633C
3C18
ENDCHAR
STARTCHAR 0062
ENCODING 98
SWIDTH 960 0
DWIDTH 16 0
BBX 15 27 0 0
BITMAP
1000
F000
3000
3000
3000
3000
3000
3000
3000
31E0
3618
3C0C
380C
3006
3006
3006
3006
3006
3006
3006
3006
3006
3006
380C
3C0C
3618
31E0
ENDCHAR
STARTCHAR 0063
ENCODING 99
SWIDTH 960 0
DWIDTH 16 0
BBX 14 18 1 0
BITMAP
0780
1860
3030
6038
6018
C000
C000
C000
C000
C000
C000
C004
C004
6008
6018
3030
18E0
0780
ENDCHAR
STARTCHAR 0064
ENCODING 100
SWIDTH 960 0
DWIDTH 16 0
BBX 15 27 1 0
BITMAP
0008
0078
0018
0018
0018
0018
0018
0018
0018
0F18
30D8
6078
6038
C038
C018
C018
C018
C018
C018
C018
C018
C018
C018
6038
6078
30D8
0F1E
ENDCHAR
STARTCHAR 0065
ENCODING 101
SWIDTH 960 0
DWIDTH 16 0
BBX 15 18 1 0
BITMAP
0780
1860
3030
6018
6018
C00C
C00C
C00C
FFFC
C000
C000
C002
C002
6004
600C
3018
1870
07C0
ENDCHAR
STARTCHAR 0066
ENCODING 102
SWIDTH 960 0
DWIDTH 16 0
BBX 12 27 2 0
BITMAP
03C0
0660
0430
0C30
0C00
0C00
0C00
0C00
0C00
FFC0
0C00
0C00
0C00
0C00
0C00
0C00
0C00
0C00
0C00
0C00
0C00
0C00
0C00
0C00
0C00
0C00
3F00
ENDCHAR
STARTCHAR 0067
ENCODING 103
SWIDTH 960 0
DWIDTH 16 0
BBX 14 22 1 -3
BITMAP
000C
0F9C
306C
3060
6030
6030
6030
6030
3060
3060
6F80
6000
6000
3FE0
1FF8
2018
400C
C00C
C00C
C018
6070
1F80
ENDCHAR
STARTCHAR 0068
ENCODING 104
SWIDTH 960 0
DWIDTH 16 0
BBX 16 27 0 0
BITMAP
1000
F000
3000
3000
3000
3000
3000
3000
3000
33E0
3C30
3818
3018
300C
300C
300C
300C
300C
300C
300C
300C
300C
300C
300C
300C
300C
FC3F
ENDCHAR
STARTCHAR 0069
ENCODING 105
SWIDTH 960 0
DWIDTH 16 0
BBX 6 27 5 0
BITMAP
30
78
78
30
00
00
00
00
00
10
F0
30
30
30
30
30
30
30
30
30
30
30
30
30
30
30
FC
ENDCHAR
STARTCHAR 006A
ENCODING 106
SWIDTH 960 0
DWIDTH 16 0
BBX 11 30 1 -3
BITMAP
00C0
01E0
01E0
00C0
0000
0000
0000
0000
0000
0040
03C0
00C0
00C0
00C0
00C0
00C0
00C0
00C0
00C0
00C0
00C0
00C0
00C0
00C0
60C0
E0C0
C0C0
6180
2380
1E00
ENDCHAR
STARTCHAR 006B
ENCODING 107
SWIDTH 960 0
DWIDTH 16 0
BBX 14 27 1 0
BITMAP
1000
F000
3000
3000
3000
3000
3000
3000
3000
30F8
3020
3040
3080
3100
3200
3400
3E00
3600
3300
3180
3180
30C0
30C0
3060
3030
3030
FCFC
ENDCHAR
STARTCHAR 006C
ENCODING 108
SWIDTH 960 0
DWIDTH 16 0
BBX 6 27 5 0
BITMAP
10
F0
30
30
30
30
30
30
30
30
30
30
30
30
30
30
30
30
30
30
30
30
30
30
30
30
FC
ENDCHAR
STARTCHAR 006D
ENCODING 109
SWIDTH 960 0
DWIDTH 16 0
BBX 16 18 0 0
BITMAP
2638
FB4C
7186
6186
6186
6186
6186
6186
6186
6186
6186
6186
6186
6186
6186
6186
6186
FBEF
ENDCHAR
STARTCHAR 006E
ENCODING 110
SWIDTH 960 0
DWIDTH 16 0
BBX 16 18 0 0
BITMAP
13E0
FC30
3818
3018
300C
300C
300C
300C
300C
300C
300C
300C
300C
300C
300C
300C
300C
FC3F
ENDCHAR
STARTCHAR 006F
ENCODING 111
SWIDTH 960 0
DWIDTH 16 0
BBX 14 18 1 0
BITMAP
0780
1860
3030
6018
6018
C00C
C00C
C00C
C00C
C00C
C00C
C00C
C00C
6018
6018
3030
1860
0780
ENDCHAR
STARTCHAR 0070
ENCODING 112
SWIDTH 960 0
DWIDTH 16 0
BBX 14 21 1 -3
BITMAP
11C0
F630
3C18
3818
300C
300C
300C
300C
300C
300C
300C
300C
300C
300C
3818
3C18
3630
31C0
3000
3000
FC00
ENDCHAR
STARTCHAR 0071
ENCODING 113
SWIDTH 960 0
DWIDTH 16 0
BBX 14 21 1 -3
BITMAP
0E10
31B0
60F0
4070
C030
C030
C030
C030
C030
C030
C030
C030
C030
C030
6070
60F0
31B0
0E30
0030
0030
00FC
ENDCHAR
STARTCHAR 0072
ENCODING 114
SWIDTH 960 0
DWIDTH 16 0
BBX 14 18 1 0
BITMAP
11E0
F638
3C1C
380C
3800
3000
3000
3000
3000
3000
3000
3000
3000
3000
3000
3000
3000
FC00
ENDCHAR
STARTCHAR 0073
ENCODING 115
SWIDTH 960 0
DWIDTH 16 0
BBX 14 18 1 0
BITMAP
1F88
7068
6038
C018
C008
C008
7000
3E00
0FC0
01F0
0038
8018
800C
800C
C00C
E018
B030
8FC0
ENDCHAR
STARTCHAR 0074
ENCODING 116
SWIDTH 960 0
DWIDTH 16 0
BBX 12 24 2 0
BITMAP
0400
0C00
0C00
0C00
0C00
0C00
FFC0
0C00
0C00
0C00
0C00
0C00
0C00
0C00
0C00
0C00
0C00
0C00
0C00
0C00
0C10
0C20
06C0
0380
ENDCHAR
STARTCHAR 0075
ENCODING 117
SWIDTH 960 0
DWIDTH 16 0
BBX 16 18 0 0
BITMAP
1004
F03C
300C
300C
300C
300C
300C
300C
300C
300C
300C
300C
300C
300C
181C
183C
0C6C
038F
ENDCHAR
STARTCHAR 0076
ENCODING 118
SWIDTH 960 0
DWIDTH 16 0
BBX 14 18 1 0
BITMAP
FC7C
3010
3010
3010
1820
1820
1820
1820
0C40
0C40
0C40
0680
0680
0680
0300
0300
0300
0300
ENDCHAR
STARTCHAR 0077
ENCODING 119
SWIDTH 960 0
DWIDTH 16 0
BBX 16 18 0 0
BITMAP
FBEF
3084
3084
3084
31C4
31C4
31C4
1948
1948
1A68
1A68
1A68
1A68
0C30
0C30
0C30
0C30
0C30
ENDCHAR
STARTCHAR 0078
ENCODING 120
SWIDTH 960 0
DWIDTH 16 0
BBX 14 18 1 0
BITMAP
FC7C
3010
3010
1820
1840
0C40
0C80
0680
0700
0300
0580
0580
08C0
0860
1060
2030
2030
F8FC
ENDCHAR
STARTCHAR 0079
ENCODING 121
SWIDTH 960 0
DWIDTH 16 0
BBX 14 21 1 -3
BITMAP
FC7C
3010
3010
3010
1820
1820
1820
0C40
0C40
0C40
0680
0680
0680
0300
0300
0200
0200
4400
C400
C800
7000
ENDCHAR
STARTCHAR 007A
ENCODING 122
SWIDTH 960 0
DWIDTH 16 0
BBX 14 18 1 0
BITMAP
7FF8
6030
4060
4060
40C0
00C0
0180
0300
0300
0600
0600
0C00
1800
1804
3004
3004
600C
FFFC
ENDCHAR
STARTCHAR 007B
ENCODING 123
SWIDTH 960 0
DWIDTH 16 0
BBX 10 30 4 -3
BITMAP
01C0
0600
0400
0C00
0C00
0C00
0C00
0C00
0C00
0C00
0C00
0C00
0800
1800
E000
1800
0800
0C00
0C00
0C00
0C00
0C00
0C00
0C00
0C00
0C00
0C00
0400
0600
01C0
ENDCHAR
STARTCHAR 007C
ENCODING 124
SWIDTH 960 0
DWIDTH 16 0
BBX 2 32 6 -4
BITMAP
C0
C0
C0
C0
C0
C0
C0
C0
C0
C0
C0
C0
C0
C0
C0
C0
C0
C0
C0
C0
C0
C0
C0
C0
C0
C0
C0
C0
C0
C0
C0
C0
ENDCHAR
STARTCHAR 007D
ENCODING 125
SWIDTH 960 0
DWIDTH 16 0
BBX 10 30 2 -3
BITMAP
E000
1800
0800
0C00
0C00
0C00
0C00
0C00
0C00
0C00
0C00
0C00
0400
0600
01C0
0600
0400
0C00
0C00
0C00
0C00
0C00
0C00
0C00
0C00
0C00
0C00
0800
1800
E000
ENDCHAR
STARTCHAR 00A0
ENCODING 160
SWIDTH 960 0
DWIDTH 16 0
BBX 1 1 0 0
BITMAP
00
ENDCHAR
STARTCHAR 00A2
ENCODING 162
SWIDTH 1920 0
DWIDTH 32 0
BBX 15 24 9 -3
BITMAP
0008
0008
0010
0010
07E0
1830
3058
604C
608C
C08C
C100
C100
C200
C200
C402
C402
6804
6804
3008
1830
27C0
2000
4000
4000
ENDCHAR
STARTCHAR 00A3
ENCODING 163
SWIDTH 1920 0
DWIDTH 32 0
BBX 21 24 5 0
BITMAP
007E00
018180
0300C0
060060
060060
0600C0
060000
060000
060000
030000
030000
FFFE00
018000
018000
00C000
00C000
00C000
00C000
3EC000
43C000
80E008
81B830
431FE0
3C0780
ENDCHAR
STARTCHAR 00A5
ENCODING 165
SWIDTH 960 0
DWIDTH 16 0
BBX 16 24 0 0
BITMAP
FC1F
3004
3004
1808
1808
0C10
0C10
0620
0620
0340
FFFF
0180
0180
0180
FFFF
0180
0180
0180
0180
0180
0180
0180
0180
0FF0
ENDCHAR
STARTCHAR 00A7
ENCODING 167
SWIDTH 1920 0
DWIDTH 32 0
BBX 14 28 8 -2
BITMAP
0FC0
3870
6018
C00C
C01C
C018
6000
3800
1F00
17C0
60F0
C038
8018
C00C
C00C
7004
3C0C
0F88
03F0
0078
0018
000C
600C
E00C
C00C
6018
3870
0FC0
ENDCHAR
STARTCHAR 00A8
ENCODING 168
SWIDTH 1920 0
DWIDTH 32 0
BBX 10 3 11 23
BITMAP
E1C0
E1C0
E1C0
ENDCHAR
STARTCHAR 00AC
ENCODING 172
SWIDTH 1920 0
DWIDTH 32 0
BBX 29 13 1 -3
BITMAP
FFFFFFF8
00000008
00000008
00000008
00000008
00000008
00000008
00000008
00000008
00000008
00000008
00000008
00000008
ENDCHAR
STARTCHAR 00B0
ENCODING 176
SWIDTH 1920 0
DWIDTH 32 0
BBX 7 7 1 19
BITMAP
38
44
82
82
82
44
38
ENDCHAR
STARTCHAR 00B1
ENCODING 177
SWIDTH 1920 0
DWIDTH 32 0
BBX 24 24 4 1
BITMAP
001000
001000
001000
001000
001000
001000
001000
001000
001000
FFFFFF
001000
001000
001000
001000
001000
001000
001000
001000
001000
001000
000000
000000
000000
FFFFFF
ENDCHAR
STARTCHAR 00B4
ENCODING 180
SWIDTH 1920 0
DWIDTH 32 0
BBX 8 4 11 23
BITMAP
06
0F
38
C0
ENDCHAR
STARTCHAR 00B6
ENCODING 182
SWIDTH 1920 0
DWIDTH 32 0
BBX 29 28 1 -3
BITMAP
003FF800
00FFF800
01FC1800
01FC1800
03FC1800
03FC1800
03FC1800
03FC1800
01FC1800
01FC1800
00FC1800
003C1800
000C1800
000C1800
000C1800
000C1800
000C1800
000C1800
000C1800
000C1800
000C1800
000C1800
000C1800
000C1800
000C1800
000C1800
00000000
00000000
ENDCHAR
STARTCHAR 00D7
ENCODING 215
SWIDTH 1920 0
DWIDTH 32 0
BBX 29 28 1 -3
BITMAP
00000000
00000000
00000000
04000100
02000200
01000400
00800800
00401000
00202000
00104000
00088000
00050000
00020000
00050000
00088000
00104000
00202000
00401000
00800800
01000400
02000200
04000100
00000000
00000000
00000000
00000000
00000000
00000000
ENDCHAR
STARTCHAR 00F7
ENCODING 247
SWIDTH 1920 0
DWIDTH 32 0
BBX 29 28 1 -3
BITMAP
00000000
00000000
00000000
00000000
00030000
00078000
00078000
00030000
00000000
00000000
00000000
00000000
1FFFFFE0
00000000
00000000
00000000
00000000
00030000
00078000
00078000
00030000
00000000
00000000
00000000
00000000
00000000
00000000
00000000
ENDCHAR
STARTCHAR 0391
ENCODING 913
SWIDTH 1920 0
DWIDTH 32 0
BBX 29 28 1 -3
BITMAP
00000000
00030000
00030000
00030000
00058000
00058000
00058000
0008C000
0008C000
00106000
00106000
00106000
00203000
00203000
00401800
00401800
007FF800
00800C00
00800C00
01000600
01000600
01000600
02000300
06000780
3FC01FE0
00000000
00000000
00000000
ENDCHAR
STARTCHAR 0392
ENCODING 914
SWIDTH 1920 0
DWIDTH 32 0
BBX 29 28 1 -3
BITMAP
00000000
07FFC000
01C03800
00C00C00
00C00C00
00C00600
00C00600
00C00600
00C00600
00C00C00
00C00C00
00C03800
00FFC000
00C03800
00C00C00
00C00600
00C00600
00C00300
00C00300
00C00300
00C00600
00C00600
00C00C00
01C03800
07FFC000
00000000
00000000
00000000
ENDCHAR
STARTCHAR 0393
ENCODING 915
SWIDTH 1920 0
DWIDTH 32 0
BBX 29 28 1 -3
BITMAP
00000000
01FFFF80
00700380
00300180
00300080
003000C0
00300040
00300040
00300000
00300000
00300000
00300000
00300000
00300000
00300000
00300000
00300000
00300000
00300000
00300000
00300000
00300000
00300000
00780000
01FF0000
00000000
00000000
00000000
ENDCHAR
STARTCHAR 0394
ENCODING 916
SWIDTH 1920 0
DWIDTH 32 0
BBX 29 28 1 -3
BITMAP
00000000
00060000
00060000
00070000
000B0000
00098000
00098000
0010C000
0010C000
00206000
00206000
00203000
00403000
00401800
00801800
00800C00
00800C00
01000600
01000600
02000300
02000300
02000180
04000180
07FFFFC0
0FFFFFC0
00000000
00000000
00000000
ENDCHAR
STARTCHAR 0395
ENCODING 917
SWIDTH 1920 0
DWIDTH 32 0
BBX 29 28 1 -3
BITMAP
00000000
07FFFE00
01C00E00
00C00600
00C00300
00C00100
00C00100
00C00000
00C00000
00C02000
00C02000
00C06000
00FFE000
00C06000
00C02000
00C02000
00C02000
00C00000
00C00080
00C00080
00C00180
00C00100
00C00300
01C00700
07FFFF00
00000000
00000000
00000000
ENDCHAR
STARTCHAR 0396
ENCODING 918
SWIDTH 1920 0
DWIDTH 32 0
BBX 29 28 1 -3
BITMAP
00000000
01FFFF00
01C00600
01800C00
01001C00
03001800
02003000
02007000
00006000
0000C000
0001C000
00018000
00030000
00060000
000E0000
000C0000
00180000
00380000
00300040
00600040
00C000C0
01C00080
01800180
03000380
07FFFF80
00000000
00000000
00000000
ENDCHAR
STARTCHAR 0397
ENCODING 919
SWIDTH 1920 0
DWIDTH 32 0
BBX 29 28 1 -3
BITMAP
00000000
1FE01FE0
07800780
03000300
03000300
03000300
03000300
03000300
03000300
03000300
03000300
03000300
03FFFF00
03000300
03000300
03000300
03000300
03000300
03000300
03000300
03000300
03000300
03000300
07800780
1FE01FE0
00000000
00000000
00000000
ENDCHAR
STARTCHAR 0398
ENCODING 920
SWIDTH 1920 0
DWIDTH 32 0
BBX 29 28 1 -3
BITMAP
00000000
000FC000
00303000
00C00C00
01800600
03000300
03000300
06000180
06000180
06000180
0C4008C0
0C4008C0
0C7FF8C0
0C7FF8C0
0C4008C0
0C4008C0
06000180
06000180
06000180
03000300
03000300
01800600
00C00C00
00303000
000FC000
00000000
00000000
00000000
ENDCHAR
STARTCHAR 0399
ENCODING 921
SWIDTH 1920 0
DWIDTH 32 0
BBX 29 28 1 -3
BITMAP
00000000
003FF000
00078000
00030000
00030000
00030000
00030000
00030000
00030000
00030000
00030000
00030000
00030000
00030000
00030000
00030000
00030000
00030000
00030000
00030000
00030000
00030000
00030000
00078000
003FF000
00000000
00000000
00000000
ENDCHAR
STARTCHAR 039A
ENCODING 922
SWIDTH 1920 0
DWIDTH 32 0
BBX 29 28 1 -3
BITMAP
00000000
0FF07F80
03C01E00
01800800
01801000
01802000
01804000
01808000
01810000
01820000
01840000
01880000
019C0000
01AE0000
01C70000
01838000
0181C000
0180E000
01807000
01803800
01801C00
01800E00
01800700
03C00380
0FF01FF0
00000000
00000000
00000000
ENDCHAR
STARTCHAR 039B
ENCODING 923
SWIDTH 1920 0
DWIDTH 32 0
BBX 29 28 1 -3
BITMAP
00000000
00030000
00030000
00030000
00058000
00058000
00058000
0008C000
0008C000
00106000
00106000
00106000
00203000
00203000
00401800
00401800
00401800
00800C00
00800C00
01000600
01000600
01000600
02000300
06000780
3FC01FE0
00000000
00000000
00000000
ENDCHAR
STARTCHAR 039C
ENCODING 924
SWIDTH 1920 0
DWIDTH 32 0
BBX 29 28 1 -3
BITMAP
00000000
F80001F8
380001E0
1C0001C0
1C0002C0
160002C0
160004C0
130004C0
130008C0
118008C0
118010C0
10C010C0
10C010C0
10C020C0
106020C0
106040C0
103040C0
103080C0
101880C0
101900C0
100D00C0
100E00C0
100600C0
380401E0
FE0407F8
00000000
00000000
00000000
ENDCHAR
STARTCHAR 039D
ENCODING 925
SWIDTH 1920 0
DWIDTH 32 0
BBX 29 28 1 -3
BITMAP
00000000
1F801FC0
07800700
02C00200
02E00200
02600200
02300200
02380200
02180200
021C0200
020E0200
02060200
02070200
02038200
02018200
0201C200
0200E200
02006200
02007200
02003A00
02001A00
02001E00
02000E00
07000600
1FC00600
00000000
00000000
00000000
ENDCHAR
STARTCHAR 039E
ENCODING 926
SWIDTH 1920 0
DWIDTH 32 0
BBX 29 28 1 -3
BITMAP
00000000
00FFFF80
00FFFF80
00C00100
01800100
01000200
01000200
00000000
00000000
00000000
00200400
00200400
003FFC00
007FF800
00400800
00400800
00000000
00000000
00000000
01000200
01000200
02000600
02000C00
07FFFC00
07FFFC00
00000000
00000000
00000000
ENDCHAR
STARTCHAR 039F
ENCODING 927
SWIDTH 1920 0
DWIDTH 32 0
BBX 29 28 1 -3
BITMAP
00000000
000FC000
00303000
00C00C00
01800600
03000300
03000300
06000180
06000180
06000180
0C0000C0
0C0000C0
0C0000C0
0C0000C0
0C0000C0
0C0000C0
06000180
06000180
06000180
03000300
03000300
01800600
00C00C00
00303000
000FC000
00000000
00000000
00000000
ENDCHAR
STARTCHAR 03A0
ENCODING 928
SWIDTH 1920 0
DWIDTH 32 0
BBX 29 28 1 -3
BITMAP
00000000
0FFFFFC0
03C00F00
01800600
01800600
01800600
01800600
01800600
01800600
01800600
01800600
01800600
01800600
01800600
01800600
01800600
01800600
01800600
01800600
01800600
01800600
01800600
01800600
03C00F00
0FF03FC0
00000000
00000000
00000000
ENDCHAR
STARTCHAR 03A1
ENCODING 929
SWIDTH 1920 0
DWIDTH 32 0
BBX 29 28 1 -3
BITMAP
00000000
03FFE000
00F01C00
00600600
00600300
00600300
00600180
00600180
00600180
00600300
00600300
00600600
00601C00
007FE000
00600000
00600000
00600000
00600000
00600000
00600000
00600000
00600000
00600000
00F00000
03FE0000
00000000
00000000
00000000
ENDCHAR
STARTCHAR 03A3
ENCODING 931
SWIDTH 1920 0
DWIDTH 32 0
BBX 29 28 1 -3
BITMAP
00000000
0FFFFE00
07000600
03800200
01C00300
00E00100
00700100
00380000
001C0000
000E0000
00070000
00038000
00018000
00030000
00060000
000C0000
00180000
00300080
00600080
00C00100
01800100
03000300
06000600
0FFFFE00
0FFFFE00
00000000
00000000
00000000
ENDCHAR
STARTCHAR 03A4
ENCODING 932
SWIDTH 1920 0
DWIDTH 32 0
BBX 29 28 1 -3
BITMAP
00000000
0FFFFFC0
0E0301C0
0C0300C0
08030040
18030060
10030020
10030020
00030000
00030000
00030000
00030000
00030000
00030000
00030000
00030000
00030000
00030000
00030000
00030000
00030000
00030000
00030000
00078000
003FF000
00000000
00000000
00000000
ENDCHAR
STARTCHAR 03A5
ENCODING 933
SWIDTH 1920 0
DWIDTH 32 0
BBX 29 28 1 -3
BITMAP
00000000
01E01C00
03F87F00
06186180
0C0CC0C0
08048040
10078020
00030000
00030000
00030000
00030000
00030000
00030000
00030000
00030000
00030000
00030000
00030000
00030000
00030000
00030000
00030000
00030000
00078000
003FF000
00000000
00000000
00000000
ENDCHAR
STARTCHAR 03A6
ENCODING 934
SWIDTH 1920 0
DWIDTH 32 0
BBX 29 28 1 -3
BITMAP
00000000
003FF000
00078000
00030000
00030000
001FE000
00631800
01830600
03030300
03030300
06030180
06030180
06030180
06030180
06030180
06030180
03030300
03030300
01830600
00631800
001FE000
00030000
00030000
00078000
003FF000
00000000
00000000
00000000
ENDCHAR
STARTCHAR 03A7
ENCODING 935
SWIDTH 1920 0
DWIDTH 32 0
BBX 29 28 1 -3
BITMAP
00000000
1FF01FE0
03800380
01C00200
00E00400
00600800
00301000
00381000
001C2000
000C4000
00068000
00078000
00030000
00038000
0004C000
0004E000
00087000
00103800
00201800
00200C00
00400E00
00800700
01000380
070001C0
3FF00FF0
00000000
00000000
00000000
ENDCHAR
STARTCHAR 03A8
ENCODING 936
SWIDTH 1920 0
DWIDTH 32 0
BBX 29 28 1 -3
BITMAP
00000000
000FC000
00030000
0E0301C0
1F0303E0
11830620
21830610
01830600
01830600
01830600
01830600
01830600
01830600
01830600
00C30C00
00C30C00
00631800
00333000
000FC000
00030000
00030000
00030000
00030000
00078000
001FE000
00000000
00000000
00000000
ENDCHAR
STARTCHAR 03A9
ENCODING 937
SWIDTH 1920 0
DWIDTH 32 0
BBX 29 28 1 -3
BITMAP
00000000
000FC000
00303000
00C00C00
01800600
03000300
03000300
06000180
06000180
06000180
06000180
06000180
06000180
03000300
03000300
01800600
00C00C00
00601800
00303000
00084000
08084040
08084040
08084040
0FF87FC0
0FF87FC0
00000000
00000000
00000000
ENDCHAR
STARTCHAR 03B1
ENCODING 945
SWIDTH 1920 0
DWIDTH 32 0
BBX 29 28 1 -3
BITMAP
00000000
00000000
00000000
00000000
00000000
00000000
00000000
00000000
00000000
000E0000
00310800
00608C00
00C04C00
00804C00
01805800
01805800
03005000
03007000
03006000
0300C200
0300C200
0301C400
01837C00
00C63800
00380000
00000000
00000000
00000000
ENDCHAR
STARTCHAR 03B2
ENCODING 946
SWIDTH 1920 0
DWIDTH 32 0
BBX 29 28 1 -3
BITMAP
00000000
00000000
0001E000
00061800
000C1800
00080C00
00180C00
00100C00
00300C00
00300C00
00201800
00603000
0063C000
00638000
00C06000
00C03000
00C01800
00C01800
00C01800
01801800
01C01800
01E03000
01B03000
01986000
03078000
03000000
03000000
03000000
ENDCHAR
STARTCHAR 03B3
ENCODING 947
SWIDTH 1920 0
DWIDTH 32 0
BBX 29 28 1 -3
BITMAP
00000000
00000000
00000000
00000000
00000000
00000000
00000000
00000000
00000000
00780C00
00FC1C00
01863000
01026000
02024000
00028000
00030000
00020000
00060000
00060000
000C0000
000C0000
000C0000
00180000
00180000
00180000
00380000
00300000
00300000
ENDCHAR
STARTCHAR 03B4
ENCODING 948
SWIDTH 1920 0
DWIDTH 32 0
BBX 29 28 1 -3
BITMAP
00000000
000F0000
0010C000
00107000
00103800
00081800
000C0000
00060000
00030000
00018000
0007C000
0018E000
00303000
00603000
00601800
00C01800
00C01800
00C01800
00C01800
00C01800
00C03000
00603000
00606000
0030C000
000F0000
00000000
00000000
00000000
ENDCHAR
STARTCHAR 03B5
ENCODING 949
SWIDTH 1920 0
DWIDTH 32 0
BBX 29 28 1 -3
BITMAP
00000000
00000000
00000000
00000000
00000000
00000000
00000000
00000000
00000000
0003C000
000E6000
001C1000
00180000
00180000
00180000
000FC000
0007C000
001C0000
00300000
00600000
00600800
00601000
00606000
003FC000
001F0000
00000000
00000000
00000000
ENDCHAR
STARTCHAR 03B6
ENCODING 950
SWIDTH 1920 0
DWIDTH 32 0
BBX 29 28 1 -3
BITMAP
00000000
00000000
00060000
000C3800
00107800
0010E000
00118000
000F0000
00060000
000C0000
00180000
00100000
00300000
00200000
00600000
00400000
00C00000
00800000
00800000
00C00000
007E0000
003FC000
0001E000
00003000
00001000
00181000
001C6000
0007C000
ENDCHAR
STARTCHAR 03B7
ENCODING 951
SWIDTH 1920 0
DWIDTH 32 0
BBX 29 28 1 -3
BITMAP
00000000
00000000
00000000
00000000
00000000
00000000
00000000
00000000
00000000
0078F000
00CD1800
010E0C00
000C0C00
000C0C00
00180C00
00180C00
00301800
00301800
00601800
00603000
00603000
00C03000
00C06000
00C06000
00006000
0000C000
0000C000
0000C000
ENDCHAR
STARTCHAR 03B8
ENCODING 952
SWIDTH 1920 0
DWIDTH 32 0
BBX 29 28 1 -3
BITMAP
00000000
00000000
0001C000
00063000
000C1800
00181800
00180C00
00300C00
00300C00
00600C00
00600C00
00C00C00
00FFFC00
00C01800
00C01800
01801800
01803000
01803000
01803000
01806000
01806000
00C0C000
00C18000
00630000
001C0000
00000000
00000000
00000000
ENDCHAR
STARTCHAR 03B9
ENCODING 953
SWIDTH 1920 0
DWIDTH 32 0
BBX 29 28 1 -3
BITMAP
00000000
00000000
00000000
00000000
00000000
00000000
00000000
00000000
00000000
00060000
00060000
00060000
000C0000
000C0000
000C0000
00180000
00180000
00180000
00300000
00300000
00300800
00301000
00306000
001FC000
000F0000
00000000
00000000
00000000
ENDCHAR
STARTCHAR 03BA
ENCODING 954
SWIDTH 1920 0
DWIDTH 32 0
BBX 29 28 1 -3
BITMAP
00000000
00000000
00000000
00000000
00000000
00000000
00000000
00000000
00000000
000C0E00
000C1F00
000C3300
000C6000
0018C000
001B0000
001C0000
00330000
00318000
00318000
00618100
00618200
00618C00
00C1F800
00C0F000
00C00000
00000000
00000000
00000000
ENDCHAR
STARTCHAR 03BB
ENCODING 955
SWIDTH 1920 0
DWIDTH 32 0
BBX 29 28 1 -3
BITMAP
00000000
00000000
000E0000
001F0000
00030000
00018000
00018000
00008000
00008000
00008000
00008000
00018000
00028000
00048000
000C8000
00188000
0010C000
00304000
00604000
00C06000
00C06000
01803000
01803800
03001D00
03000E00
00000000
00000000
00000000
ENDCHAR
STARTCHAR 03BC
ENCODING 956
SWIDTH 1920 0
DWIDTH 32 0
BBX 29 28 1 -3
BITMAP
00000000
00000000
00000000
00000000
00000000
00000000
00000000
00000000
00000000
000C0600
000C0600
001C0600
00180E00
00180C00
00300C00
00301800
00301800
00601800
00601000
00403000
00402000
00C06100
00A0C200
01A37C00
019C3800
03000000
06000000
06000000
ENDCHAR
STARTCHAR 03BD
ENCODING 957
SWIDTH 1920 0
DWIDTH 32 0
BBX 29 28 1 -3
BITMAP
00000000
00000000
00000000
00000000
00000000
00000000
00000000
00000000
00000000
00E00000
00700100
00300100
00180100
00180200
00180200
00180400
00180C00
00180800
00101800
00303000
0020E000
0023C000
006F0000
007C0000
00700000
00000000
00000000
00000000
ENDCHAR
STARTCHAR 03BE
ENCODING 958
SWIDTH 1920 0
DWIDTH 32 0
BBX 29 28 1 -3
BITMAP
00000000
0007E000
00083000
00080000
00080000
00040000
0003FC00
0007FC00
000C0000
00100000
00200000
00200000
00100000
000FF800
0007F800
001C0000
00300000
00400000
00800000
00E00000
007F8000
001FF000
00007800
00001800
00000800
00301000
003C6000
000F8000
ENDCHAR
STARTCHAR 03BF
ENCODING 959
SWIDTH 1920 0
DWIDTH 32 0
BBX 29 28 1 -3
BITMAP
00000000
00000000
00000000
00000000
00000000
00000000
00000000
00000000
00000000
0007C000
00183000
00301800
00601800
00C00C00
00C00C00
01800C00
01800C00
01800C00
01800C00
01801800
01801800
00C03000
00C06000
0060C000
001F0000
00000000
00000000
00000000
ENDCHAR
STARTCHAR 03C0
ENCODING 960
SWIDTH 1920 0
DWIDTH 32 0
BBX 29 28 1 -3
BITMAP
00000000
00000000
00000000
00000000
00000000
00000000
00000000
00000080
00000100
00FFFF00
01FFFE00
01086000
02086000
0018C000
0010C000
0030C000
0030C000
00618000
00618000
00C18200
00C30400
01830C00
01831800
0303F000
0301E000
00000000
00000000
00000000
ENDCHAR
STARTCHAR 03C1
ENCODING 961
SWIDTH 1920 0
DWIDTH 32 0
BBX 29 28 1 -3
BITMAP
00000000
00000000
00000000
00000000
00000000
00000000
00000000
00000000
00000000
0003C000
000C3000
00181800
00181800
00300C00
00300C00
00600C00
00600C00
00600C00
00600C00
00C01800
00E01800
00E03000
00D06000
00C8C000
01870000
01800000
01800000
01800000
ENDCHAR
STARTCHAR 03C3
ENCODING 963
SWIDTH 1920 0
DWIDTH 32 0
BBX 29 28 1 -3
BITMAP
00000000
00000000
00000000
00000000
00000000
00000000
00000000
00000100
00000200
000FFE00
003FFC00
00604000
00C02000
01803000
01801800
03001800
03001800
03001800
03001800
03003000
03003000
01806000
0180C000
00C18000
003E0000
00000000
00000000
00000000
ENDCHAR
STARTCHAR 03C4
ENCODING 964
SWIDTH 1920 0
DWIDTH 32 0
BBX 29 28 1 -3
BITMAP
00000000
00000000
00000000
00000000
00000000
00000000
00000000
00000080
00000100
00FFFF00
01FFFE00
01060000
02060000
000C0000
000C0000
000C0000
00180000
00180000
00180000
00300000
00301000
00302000
0030C000
003F8000
001E0000
00000000
00000000
00000000
ENDCHAR
STARTCHAR 03C5
ENCODING 965
SWIDTH 1920 0
DWIDTH 32 0
BBX 29 28 1 -3
BITMAP
00000000
00000000
00000000
00000000
00000000
00000000
00000000
00000000
00000000
00607000
00703800
00301800
00300C00
00300C00
00300C00
00600C00
00600C00
00600C00
00C01800
00C01800
00C03000
00C06000
00C0C000
00630000
003C0000
00000000
00000000
00000000
ENDCHAR
STARTCHAR 03C6
ENCODING 966
SWIDTH 1920 0
DWIDTH 32 0
BBX 29 28 1 -3
BITMAP
00000000
00000000
00000000
0000C000
0000C000
0000C000
0000C000
00018000
00018000
000FC000
00313000
00C11C00
01830C00
01820600
03020600
03020600
03060600
03040C00
03040C00
01841800
00CC6000
003F8000
000C0000
00080000
00180000
00180000
00180000
00180000
ENDCHAR
STARTCHAR 03C7
ENCODING 967
SWIDTH 1920 0
DWIDTH 32 0
BBX 29 28 1 -3
BITMAP
00000000
00000000
00000000
00000000
00000000
00000000
00000000
00000000
00000000
001C0600
003E0E00
00620C00
00831800
00013000
00016000
00014000
00018000
00010000
00030000
00050000
000D0000
00190000
00310000
00610200
00C10400
01808C00
0380F800
03007000
ENDCHAR
STARTCHAR 03C8
ENCODING 968
SWIDTH 1920 0
DWIDTH 32 0
BBX 29 28 1 -3
BITMAP
00000000
00000000
00000000
0000C000
0000C000
0000C000
0000C000
00008000
00018000
00E18C00
01311E00
00310600
00310600
00330600
00620600
00620600
00620C00
00C60C00
00C40C00
00C41800
00C43000
006C6000
003F8000
000C0000
00080000
00180000
00180000
00180000
ENDCHAR
STARTCHAR 03C9
ENCODING 969
SWIDTH 1920 0
DWIDTH 32 0
BBX 29 28 1 -3
BITMAP
00000000
00000000
00000000
00000000
00000000
00000000
00000000
00000000
00000000
00180400
00600200
00C00300
01800100
01818180
03018180
03018180
03038180
06030180
06030180
06030180
06070300
06050300
060D0600
03198C00
01E0F000
00000000
00000000
00000000
ENDCHAR
STARTCHAR 0401
ENCODING 1025
SWIDTH 1920 0
DWIDTH 32 0
BBX 20 28 6 0
BITMAP
070E00
070E00
000000
000000
FFFFC0
3801C0
1800C0
180060
180020
180020
180000
180000
180400
180400
180C00
1FFC00
180C00
180400
180400
180400
180000
180010
180010
180030
180020
180060
3800E0
FFFFE0
ENDCHAR
STARTCHAR 0410
ENCODING 1040
SWIDTH 1920 0
DWIDTH 32 0
BBX 25 24 3 0
BITMAP
000C0000
000C0000
000C0000
00160000
00160000
00160000
00230000
00230000
00418000
00418000
00418000
0080C000
0080C000
01006000
01006000
01FFE000
02003000
02003000
04001800
04001800
04001800
08000C00
18001E00
FF007F80
ENDCHAR
STARTCHAR 0411
ENCODING 1041
SWIDTH 1920 0
DWIDTH 32 0
BBX 19 24 6 0
BITMAP
FFFF80
380380
180180
1800C0
180040
180040
180000
180000
180000
180000
180000
1FF800
180700
180180
1800C0
1800C0
180060
180060
180060
1800C0
1800C0
180180
380700
FFF800
ENDCHAR
STARTCHAR 0412
ENCODING 1042
SWIDTH 1920 0
DWIDTH 32 0
BBX 19 24 6 0
BITMAP
FFF800
380700
180180
180180
1800C0
1800C0
1800C0
1800C0
180180
180180
180700
1FF800
180700
180180
1800C0
1800C0
180060
180060
180060
1800C0
1800C0
180180
380700
FFF800
ENDCHAR
STARTCHAR 0413
ENCODING 1043
SWIDTH 1920 0
DWIDTH 32 0
BBX 19 24 8 0
BITMAP
FFFFC0
3801C0
1800C0
180040
180060
180020
180020
180000
180000
180000
180000
180000
180000
180000
180000
180000
180000
180000
180000
180000
180000
180000
3C0000
FF8000
ENDCHAR
STARTCHAR 0414
ENCODING 1044
SWIDTH 1920 0
DWIDTH 32 0
BBX 24 28 3 -4
BITMAP
03FFFE
00C078
004030
004030
004030
004030
004030
004030
004030
004030
004030
004030
008030
008030
008030
008030
010030
010030
010030
020030
020030
040030
080030
3FFFFE
300006
200002
400002
800001
ENDCHAR
STARTCHAR 0415
ENCODING 1045
SWIDTH 1920 0
DWIDTH 32 0
BBX 20 24 6 0
BITMAP
FFFFC0
3801C0
1800C0
180060
180020
180020
180000
180000
180400
180400
180C00
1FFC00
180C00
180400
180400
180400
180000
180010
180010
180030
180020
180060
3800E0
FFFFE0
ENDCHAR
STARTCHAR 0416
ENCODING 1046
SWIDTH 1920 0
DWIDTH 32 0
BBX 28 24 2 0
BITMAP
383FC1C0
7C0F03E0
64060260
04060200
02060400
02060400
02060400
01060800
01060800
00861000
00C63000
00FFF000
01861800
03060C00
03060C00
06060600
06060600
06060600
0C060300
0C060300
0C060300
18060180
380F01C0
FF3FCFF0
ENDCHAR
STARTCHAR 0417
ENCODING 1047
SWIDTH 1920 0
DWIDTH 32 0
BBX 17 24 7 0
BITMAP
07F000
1C0C00
700600
600600
400300
000300
000300
000300
000600
000600
001C00
01F000
000C00
000700
000300
000180
000180
000180
800180
C00300
C00300
F00600
3C1C00
07E000
ENDCHAR
STARTCHAR 0418
ENCODING 1048
SWIDTH 1920 0
DWIDTH 32 0
BBX 22 24 5 0
BITMAP
FF03FC
3C00F0
180060
180060
1800E0
180160
180160
180260
180460
180860
180860
181060
182060
184060
184060
188060
190060
1A0060
1A0060
1C0060
180060
180060
3C00F0
FF03FC
ENDCHAR
STARTCHAR 0419
ENCODING 1049
SWIDTH 1920 0
DWIDTH 32 0
BBX 22 28 5 0
BITMAP
030300
030300
018600
007800
FF03FC
3C00F0
180060
180060
1800E0
180160
180160
180260
180460
180860
180860
181060
182060
184060
184060
188060
190060
1A0060
1A0060
1C0060
180060
180060
3C00F0
FF03FC
ENDCHAR
STARTCHAR 041A
ENCODING 1050
SWIDTH 1920 0
DWIDTH 32 0
BBX 31 28 0 -4
BITMAP
07F80380
01E007C0
00C006C0
00C00C00
00C00800
00C01000
00C01000
00C02000
00C04000
00C08000
00C30000
00FE0000
00C70000
00C38000
00C1C000
00C0E000
00C07000
00C03800
00C01C00
00C00E00
00C00700
00C00380
01E001C0
07F80FF8
00000000
00000000
00000000
00000000
ENDCHAR
STARTCHAR 041B
ENCODING 1051
SWIDTH 1920 0
DWIDTH 32 0
BBX 31 28 0 -4
BITMAP
00FFFFC0
001C0F00
00080700
00080600
00080600
00080600
00080600
00080600
00080600
00080600
00080600
00080600
00080600
00080600
00100600
00100600
00100600
00100600
00100600
06200600
0E200600
0C400600
0C800F00
07003FC0
00000000
00000000
00000000
00000000
ENDCHAR
STARTCHAR 041C
ENCODING 1052
SWIDTH 1920 0
DWIDTH 32 0
BBX 31 28 0 -4
BITMAP
7C0000FC
1C0000F0
0E0000E0
0E000160
0B000160
0B000260
09800260
09800460
08C00460
08C00860
08600860
08600860
08601060
08301060
08302060
08182060
08184060
080C4060
080C8060
08068060
08070060
08030060
1C0200F0
7F0203FC
00000000
00000000
00000000
00000000
ENDCHAR
STARTCHAR 041D
ENCODING 1053
SWIDTH 1920 0
DWIDTH 32 0
BBX 31 28 0 -4
BITMAP
0FF00FF0
03C003C0
01800180
01800180
01800180
01800180
01800180
01800180
01800180
01800180
01800180
01FFFF80
01800180
01800180
01800180
01800180
01800180
01800180
01800180
01800180
01800180
01800180
03C003C0
0FF00FF0
00000000
00000000
00000000
00000000
ENDCHAR
STARTCHAR 041E
ENCODING 1054
SWIDTH 1920 0
DWIDTH 32 0
BBX 31 28 0 -4
BITMAP
0007E000
00181800
00600600
00C00300
01800180
01800180
030000C0
030000C0
030000C0
06000060
06000060
06000060
06000060
06000060
06000060
030000C0
030000C0
030000C0
01800180
01800180
00C00300
00600600
00181800
0007E000
00000000
00000000
00000000
00000000
ENDCHAR
STARTCHAR 041F
ENCODING 1055
SWIDTH 1920 0
DWIDTH 32 0
BBX 31 28 0 -4
BITMAP
07FFFFE0
01E00780
00C00300
00C00300
00C00300
00C00300
00C00300
00C00300
00C00300
00C00300
00C00300
00C00300
00C00300
00C00300
00C00300
00C00300
00C00300
00C00300
00C00300
00C00300
00C00300
00C00300
01E00780
07F81FE0
00000000
00000000
00000000
00000000
ENDCHAR
STARTCHAR 0420
ENCODING 1056
SWIDTH 1920 0
DWIDTH 32 0
BBX 31 28 0 -4
BITMAP
01FFF000
00780E00
00300300
00300180
00300180
003000C0
003000C0
003000C0
00300180
00300180
00300300
00300E00
003FF000
00300000
00300000
00300000
00300000
00300000
00300000
00300000
00300000
00300000
00780000
01FF0000
00000000
00000000
00000000
00000000
ENDCHAR
STARTCHAR 0421
ENCODING 1057
SWIDTH 1920 0
DWIDTH 32 0
BBX 31 28 0 -4
BITMAP
0007F040
00180C40
006003C0
00C000C0
018000C0
01800040
03000040
03000000
06000000
06000000
06000000
06000000
06000000
06000000
06000000
06000020
03000020
03000040
01800040
01800080
00C00100
00600200
00180C00
0007F000
00000000
00000000
00000000
00000000
ENDCHAR
STARTCHAR 0422
ENCODING 1058
SWIDTH 1920 0
DWIDTH 32 0
BBX 31 28 0 -4
BITMAP
07FFFFE0
070180E0
06018060
04018020
0C018030
08018010
08018010
00018000
00018000
00018000
00018000
00018000
00018000
00018000
00018000
00018000
00018000
00018000
00018000
00018000
00018000
00018000
0003C000
001FF800
00000000
00000000
00000000
00000000
ENDCHAR
STARTCHAR 0423
ENCODING 1059
SWIDTH 1920 0
DWIDTH 32 0
BBX 31 28 0 -4
BITMAP
03F80FE0
00E00380
00600100
00600100
00300200
00300200
00180400
00180400
000C0800
000C0800
00061000
00061000
00032000
00032000
0001C000
0001C000
00008000
00008000
00610000
00E10000
00C20000
00C20000
00440000
00380000
00000000
00000000
00000000
00000000
ENDCHAR
STARTCHAR 0424
ENCODING 1060
SWIDTH 1920 0
DWIDTH 32 0
BBX 31 28 0 -4
BITMAP
001FF800
0003C000
00018000
00018000
000FF000
00318C00
00C18300
01818180
01818180
030180C0
030180C0
030180C0
030180C0
030180C0
030180C0
01818180
01818180
00C18300
00318C00
000FF000
00018000
00018000
0003C000
001FF800
00000000
00000000
00000000
00000000
ENDCHAR
STARTCHAR 0425
ENCODING 1061
SWIDTH 1920 0
DWIDTH 32 0
BBX 31 28 0 -4
BITMAP
0FF80FF0
01C001C0
00E00100
00700200
00300400
00180800
001C0800
000E1000
00062000
00034000
0003C000
00018000
0001C000
00026000
00027000
00043800
00081C00
00100C00
00100600
00200700
00400380
008001C0
038000E0
1FF807F8
00000000
00000000
00000000
00000000
ENDCHAR
STARTCHAR 0426
ENCODING 1062
SWIDTH 1920 0
DWIDTH 32 0
BBX 31 28 0 -4
BITMAP
07F81FE0
01E00780
00C00300
00C00300
00C00300
00C00300
00C00300
00C00300
00C00300
00C00300
00C00300
00C00300
00C00300
00C00300
00C00300
00C00300
00C00300
00C00300
00C00300
00C00300
00C00300
00C00300
01C00300
07FFFFE0
00000060
00000020
00000020
00000010
ENDCHAR
STARTCHAR 0427
ENCODING 1063
SWIDTH 1920 0
DWIDTH 32 0
BBX 31 28 0 -4
BITMAP
07F83FC0
01E00F00
00C00600
00C00600
00C00600
00C00600
00C00600
00C00600
00C00600
00C00600
00C00600
00C00600
00600E00
00601E00
00306600
000F8600
00000600
00000600
00000600
00000600
00000600
00000600
00000F00
00003FC0
00000000
00000000
00000000
00000000
ENDCHAR
STARTCHAR 0428
ENCODING 1064
SWIDTH 1920 0
DWIDTH 32 0
BBX 31 28 0 -4
BITMAP
3FC7E3FC
0F03C0F0
06018060
06018060
06018060
06018060
06018060
06018060
06018060
06018060
06018060
06018060
06018060
06018060
06018060
06018060
06018060
06018060
06018060
06018060
06018060
06018060
0F03C0F0
3FFFFFFC
00000000
00000000
00000000
00000000
ENDCHAR
STARTCHAR 0429
ENCODING 1065
SWIDTH 1920 0
DWIDTH 32 0
BBX 31 28 0 -4
BITMAP
3FC7E3FC
0F03C0F0
06018060
06018060
06018060
06018060
06018060
06018060
06018060
06018060
06018060
06018060
06018060
06018060
06018060
06018060
06018060
06018060
06018060
06018060
06018060
06018060
0F03C0F0
3FFFFFFC
0000000C
00000004
00000004
00000002
ENDCHAR
STARTCHAR 042A
ENCODING 1066
SWIDTH 1920 0
DWIDTH 32 0
BBX 31 28 0 -4
BITMAP
03FFC000
038F0000
03060000
06060000
04060000
04060000
00060000
00060000
00060000
0007F800
00060700
00060180
000600C0
000600C0
00060060
00060060
00060060
00060060
00060060
000600C0
000600C0
00060180
000F0700
003FF800
00000000
00000000
00000000
00000000
ENDCHAR
STARTCHAR 042B
ENCODING 1067
SWIDTH 1920 0
DWIDTH 32 0
BBX 31 28 0 -4
BITMAP
1FE00FF0
078003C0
03000180
03000180
03000180
03000180
03000180
03000180
03000180
03FC0180
03030180
0300C180
03006180
03006180
03003180
03003180
03003180
03003180
03003180
03006180
03006180
0300C180
078303C0
1FFC0FF0
00000000
00000000
00000000
00000000
ENDCHAR
STARTCHAR 042C
ENCODING 1068
SWIDTH 1920 0
DWIDTH 32 0
BBX 31 28 0 -4
BITMAP
00FF0000
003C0000
00180000
00180000
00180000
00180000
00180000
00180000
00180000
001FE000
00181800
00180600
00180300
00180300
00180180
00180180
00180180
00180180
00180180
00180300
00180300
00180600
003C1800
00FFE000
00000000
00000000
00000000
00000000
ENDCHAR
STARTCHAR 042D
ENCODING 1069
SWIDTH 1920 0
DWIDTH 32 0
BBX 31 28 0 -4
BITMAP
001FC000
01F03000
01C00C00
01800600
01000300
00000180
00000180
00000180
000000C0
000600C0
000F81C0
0011C6C0
0020FCC0
000038C0
000000C0
000000C0
00000180
00000180
01000180
01000300
01800600
01C00C00
01F03000
001FC000
00000000
00000000
00000000
00000000
ENDCHAR
STARTCHAR 042E
ENCODING 1070
SWIDTH 1920 0
DWIDTH 32 0
BBX 31 28 0 -4
BITMAP
3FC07E00
0F018180
060300C0
06060060
060C0030
060C0030
060C0030
06180018
06180018
06180018
06180018
07F80018
06180018
06180018
06180018
06180018
06180018
060C0030
060C0030
060C0030
06060060
060300C0
0F018180
3FC07E00
00000000
00000000
00000000
00000000
ENDCHAR
STARTCHAR 042F
ENCODING 1071
SWIDTH 1920 0
DWIDTH 32 0
BBX 31 28 0 -4
BITMAP
0007FFC0
00380F00
00600600
00600600
00C00600
00C00600
00C00600
00C00600
00600600
00600600
00380600
0007FE00
00030600
00030600
00060600
00060600
000C0600
00180600
00180600
00300600
00600600
00C00600
03000F00
0C007FC0
00000000
00000000
00000000
00000000
ENDCHAR
STARTCHAR 0430
ENCODING 1072
SWIDTH 1920 0
DWIDTH 32 0
BBX 31 28 0 -4
BITMAP
00000000
00000000
00000000
00000000
00000000
00000000
00000000
0003C000
000C3000
00181800
00301800
00301800
00001800
0000F800
00071800
001C1800
00301800
00301800
00601800
00601800
00603880
00605900
00319F00
001E0E00
00000000
00000000
00000000
00000000
ENDCHAR
STARTCHAR 0431
ENCODING 1073
SWIDTH 1920 0
DWIDTH 32 0
BBX 31 28 0 -4
BITMAP
00000000
00000200
00000C00
0003F800
000FE000
001C0000
00300000
00200000
0063E000
004C1800
00580C00
00700C00
00600600
00600600
00600600
00600600
00600600
00600600
00600600
00300C00
00300C00
00181800
000C3000
0003C000
00000000
00000000
00000000
00000000
ENDCHAR
STARTCHAR 0432
ENCODING 1074
SWIDTH 1920 0
DWIDTH 32 0
BBX 31 28 0 -4
BITMAP
00000000
00000000
00000000
00000000
00000000
00000000
00000000
007FC000
00383000
00181800
00180C00
00180C00
00180C00
00181800
00183000
001FE000
00181800
00180C00
00180600
00180600
00180600
00180C00
00381800
007FE000
00000000
00000000
00000000
00000000
ENDCHAR
STARTCHAR 0433
ENCODING 1075
SWIDTH 1920 0
DWIDTH 32 0
BBX 31 28 0 -4
BITMAP
00000000
00000000
00000000
00000000
00000000
00000000
00000000
003FFE00
001E0E00
000C0600
000C0300
000C0100
000C0000
000C0000
000C0000
000C0000
000C0000
000C0000
000C0000
000C0000
000C0000
000C0000
001E0000
003F8000
00000000
00000000
00000000
00000000
ENDCHAR
STARTCHAR 0434
ENCODING 1076
SWIDTH 1920 0
DWIDTH 32 0
BBX 31 28 0 -4
BITMAP
00000000
00000000
00000000
00000000
00000000
00000000
00000000
003FFE00
000C3C00
00041800
00041800
00041800
00041800
00041800
00041800
00041800
00081800
00081800
00081800
00101800
00101800
00201800
00401800
01FFFE00
01800600
01000200
02000100
00000000
ENDCHAR
STARTCHAR 0435
ENCODING 1077
SWIDTH 1920 0
DWIDTH 32 0
BBX 31 28 0 -4
BITMAP
00000000
00000000
00000000
00000000
00000000
00000000
00000000
0007C000
00183000
00301800
00600C00
00600C00
00C00600
00C00600
00FFFE00
00C00000
00C00000
00C00000
00C00000
00600200
00600400
00300800
00183000
0007C000
00000000
00000000
00000000
00000000
ENDCHAR
STARTCHAR 0436
ENCODING 1078
SWIDTH 1920 0
DWIDTH 32 0
BBX 31 28 0 -4
BITMAP
00000000
00000000
00000000
00000000
00000000
00000000
00000000
0307E0C0
0783C1E0
06818160
00418200
00418200
00218400
00118800
001FF800
00318C00
00618600
00618600
00C18300
00C18300
01818180
01818180
0383C1C0
0FE7E7F0
00000000
00000000
00000000
00000000
ENDCHAR
STARTCHAR 0437
ENCODING 1079
SWIDTH 1920 0
DWIDTH 32 0
BBX 31 28 0 -4
BITMAP
00000000
00000000
00000000
00000000
00000000
00000000
00000000
000FC000
00383000
00301800
00200C00
00000C00
00000C00
00000C00
00001800
0003E000
00001800
00000C00
00000C00
00000C00
00200C00
00301800
00383000
000FC000
00000000
00000000
00000000
00000000
ENDCHAR
STARTCHAR 0438
ENCODING 1080
SWIDTH 1920 0
DWIDTH 32 0
BBX 31 28 0 -4
BITMAP
00000000
00000000
00000000
00000000
00000000
00000000
00000000
01F81F80
00F00F00
00600600
00600E00
00601600
00602600
00604600
00608600
00610600
00620600
00640600
00680600
00700600
00600600
00600600
00F00F00
01F81F80
00000000
00000000
00000000
00000000
ENDCHAR
STARTCHAR 0439
ENCODING 1081
SWIDTH 1920 0
DWIDTH 32 0
BBX 31 28 0 -4
BITMAP
00000000
00000000
00181800
00181800
000C3000
0003C000
00000000
01F81F80
00F00F00
00600600
00600E00
00601600
00602600
00604600
00608600
00610600
00620600
00640600
00680600
00700600
00600600
00600600
00F00F00
01F81F80
00000000
00000000
00000000
00000000
ENDCHAR
STARTCHAR 043A
ENCODING 1082
SWIDTH 1920 0
DWIDTH 32 0
BBX 31 28 0 -4
BITMAP
00000000
00000000
00000000
00000000
00000000
00000000
00000000
00FC0E00
00781F00
00301300
00302000
00302000
00304000
00318000
003E0000
00370000
00338000
0031C000
0030E000
00307000
00303800
00301C00
00780E00
00FC3F80
00000000
00000000
00000000
00000000
ENDCHAR
STARTCHAR 043B
ENCODING 1083
SWIDTH 1920 0
DWIDTH 32 0
BBX 31 28 0 -4
BITMAP
00000000
00000000
00000000
00000000
00000000
00000000
00000000
001FFF00
00061E00
00020C00
00020C00
00020C00
00020C00
00020C00
00020C00
00020C00
00040C00
00040C00
00040C00
00080C00
03080C00
03100C00
03201E00
01C03F00
00000000
00000000
00000000
00000000
ENDCHAR
STARTCHAR 043C
ENCODING 1084
SWIDTH 1920 0
DWIDTH 32 0
BBX 31 28 0 -4
BITMAP
00000000
00000000
00000000
00000000
00000000
00000000
00000000
03C00F80
01E00F00
00E01600
00B01600
00B01600
00B02600
00982600
00982600
008C4600
008C4600
008C8600
00868600
00868600
00830600
00830600
01C10F00
03E01F80
00000000
00000000
00000000
00000000
ENDCHAR
STARTCHAR 043D
ENCODING 1085
SWIDTH 1920 0
DWIDTH 32 0
BBX 31 28 0 -4
BITMAP
00000000
00000000
00000000
00000000
00000000
00000000
00000000
01F81F80
00F00F00
00600600
00600600
00600600
00600600
00600600
00600600
007FFE00
00600600
00600600
00600600
00600600
00600600
00600600
00F00F00
01F81F80
00000000
00000000
00000000
00000000
ENDCHAR
STARTCHAR 043E
ENCODING 1086
SWIDTH 1920 0
DWIDTH 32 0
BBX 31 28 0 -4
BITMAP
00000000
00000000
00000000
00000000
00000000
00000000
00000000
0007E000
00181800
00300C00
00600600
00600600
00C00300
00C00300
00C00300
00C00300
00C00300
00C00300
00C00300
00600600
00600600
00300C00
00181800
0007E000
00000000
00000000
00000000
00000000
ENDCHAR
STARTCHAR 043F
ENCODING 1087
SWIDTH 1920 0
DWIDTH 32 0
BBX 31 28 0 -4
BITMAP
00000000
00000000
00000000
00000000
00000000
00000000
00000000
01FFFF80
00F00F00
00600600
00600600
00600600
00600600
00600600
00600600
00600600
00600600
00600600
00600600
00600600
00600600
00600600
00F00F00
01F81F80
00000000
00000000
00000000
00000000
ENDCHAR
STARTCHAR 0440
ENCODING 1088
SWIDTH 1920 0
DWIDTH 32 0
BBX 31 28 0 -4
BITMAP
00000000
00000000
00000000
00000000
00000000
00000000
00000000
0011E000
00361800
00FC0C00
00380600
00300600
00300300
00300300
00300300
00300300
00300300
00300300
00300300
00300600
00380600
003C0C00
00361800
0031E000
00300000
00780000
01FE0000
00000000
ENDCHAR
STARTCHAR 0441
ENCODING 1089
SWIDTH 1920 0
DWIDTH 32 0
BBX 31 28 0 -4
BITMAP
00000000
00000000
00000000
00000000
00000000
00000000
00000000
0003E000
000C1800
00180C00
00300600
00300600
00600600
00600000
00600000
00600000
00600000
00600100
00600100
00300200
00300200
00180400
000C1800
0003E000
00000000
00000000
00000000
00000000
ENDCHAR
STARTCHAR 0442
ENCODING 1090
SWIDTH 1920 0
DWIDTH 32 0
BBX 31 28 0 -4
BITMAP
00000000
00000000
00000000
00000000
00000000
00000000
00000000
00FFFF00
00E18700
00C18300
01818180
01018080
00018000
00018000
00018000
00018000
00018000
00018000
00018000
00018000
00018000
00018000
0003C000
000FF000
00000000
00000000
00000000
00000000
ENDCHAR
STARTCHAR 0443
ENCODING 1091
SWIDTH 1920 0
DWIDTH 32 0
BBX 31 28 0 -4
BITMAP
00000000
00000000
00000000
00000000
00000000
00000000
00000000
01FC1FC0
00700300
00300200
00300400
00180400
00180800
000C0800
000C0800
00061000
00061000
00032000
00032000
0001C000
0001C000
00008000
00608000
00610000
00610000
00320000
001C0000
00000000
ENDCHAR
STARTCHAR 0444
ENCODING 1092
SWIDTH 1920 0
DWIDTH 32 0
BBX 31 28 0 -4
BITMAP
00000000
00008000
00018000
00078000
00018000
00018000
00018000
00399C00
0067E600
00C3C300
00C18300
01818180
01818180
01818180
01818180
01818180
01818180
01818180
01818180
00C18300
00C3C300
0065A600
00399C00
00018000
00018000
0003C000
0007E000
00000000
ENDCHAR
STARTCHAR 0445
ENCODING 1093
SWIDTH 1920 0
DWIDTH 32 0
BBX 31 28 0 -4
BITMAP
00000000
00000000
00000000
00000000
00000000
00000000
00000000
01FE1F80
00700600
00380400
00180800
000C1000
00062000
00074000
00038000
0001C000
0002E000
00046000
00083000
00101800
00201C00
00400E00
00C00700
03F83FC0
00000000
00000000
00000000
00000000
ENDCHAR
STARTCHAR 0446
ENCODING 1094
SWIDTH 1920 0
DWIDTH 32 0
BBX 31 28 0 -4
BITMAP
00000000
00000000
00000000
00000000
00000000
00000000
00000000
00FC1F80
00780F00
00300600
00300600
00300600
00300600
00300600
00300600
00300600
00300600
00300600
00300600
00300600
00300600
00300600
00700600
00FFFFC0
000000C0
00000040
00000020
00000000
ENDCHAR
STARTCHAR 0447
ENCODING 1095
SWIDTH 1920 0
DWIDTH 32 0
BBX 31 28 0 -4
BITMAP
00000000
00000000
00000000
00000000
00000000
00000000
00000000
00FC3F00
00781E00
00300C00
00300C00
00300C00
00300C00
00300C00
00300C00
00181C00
001C6C00
00078C00
00000C00
00000C00
00000C00
00000C00
00001E00
00003F00
00000000
00000000
00000000
00000000
ENDCHAR
STARTCHAR 0448
ENCODING 1096
SWIDTH 1920 0
DWIDTH 32 0
BBX 31 28 0 -4
BITMAP
00000000
00000000
00000000
00000000
00000000
00000000
00000000
07E7E7E0
03C3C3C0
01818180
01818180
01818180
01818180
01818180
01818180
01818180
01818180
01818180
01818180
01818180
01818180
01818180
03C3C3C0
07FFFFE0
00000000
00000000
00000000
00000000
ENDCHAR
STARTCHAR 0449
ENCODING 1097
SWIDTH 1920 0
DWIDTH 32 0
BBX 31 28 0 -4
BITMAP
00000000
00000000
00000000
00000000
00000000
00000000
00000000
07E7E7E0
03C3C3C0
01818180
01818180
01818180
01818180
01818180
01818180
01818180
01818180
01818180
01818180
01818180
01818180
01818180
03C3C3C0
07FFFFF0
00000030
00000010
00000008
00000000
ENDCHAR
STARTCHAR 044A
ENCODING 1098
SWIDTH 1920 0
DWIDTH 32 0
BBX 31 28 0 -4
BITMAP
00000000
00000000
00000000
00000000
00000000
00000000
00000000
01FE0000
019C0000
03180000
02180000
00180000
00180000
00180000
001FF000
00180C00
00180600
00180300
00180300
00180300
00180300
00180600
00380C00
007FF000
00000000
00000000
00000000
00000000
ENDCHAR
STARTCHAR 044B
ENCODING 1099
SWIDTH 1920 0
DWIDTH 32 0
BBX 31 28 0 -4
BITMAP
00000000
00000000
00000000
00000000
00000000
00000000
00000000
07E00FC0
03C00780
01800300
01800300
01800300
01800300
01800300
01FE0300
01818300
0180C300
01806300
01806300
01806300
01806300
0180C300
03818780
07FE0FC0
00000000
00000000
00000000
00000000
ENDCHAR
STARTCHAR 044C
ENCODING 1100
SWIDTH 1920 0
DWIDTH 32 0
BBX 31 28 0 -4
BITMAP
00000000
00000000
00000000
00000000
00000000
00000000
00000000
007E0000
003C0000
00180000
00180000
00180000
00180000
00180000
001FF000
00180C00
00180600
00180300
00180300
00180300
00180300
00180600
00380C00
007FF000
00000000
00000000
00000000
00000000
ENDCHAR
STARTCHAR 044D
ENCODING 1101
SWIDTH 1920 0
DWIDTH 32 0
BBX 31 28 0 -4
BITMAP
00000000
00000000
00000000
00000000
00000000
00000000
00000000
001FC000
00703000
00601800
00400C00
00000C00
00000600
00060600
000F8E00
0011F600
00006600
00000600
00000600
00000C00
00400C00
00601800
00703000
001FC000
00000000
00000000
00000000
00000000
ENDCHAR
STARTCHAR 044E
ENCODING 1102
SWIDTH 1920 0
DWIDTH 32 0
BBX 31 28 0 -4
BITMAP
00000000
00000000
00000000
00000000
00000000
00000000
00000000
07E07C00
03C18300
01830180
018600C0
018600C0
018C0060
018C0060
018C0060
01FC0060
018C0060
018C0060
018C0060
018600C0
018600C0
01830180
03C18300
07E07C00
00000000
00000000
00000000
00000000
ENDCHAR
STARTCHAR 044F
ENCODING 1103
SWIDTH 1920 0
DWIDTH 32 0
BBX 31 28 0 -4
BITMAP
00000000
00000000
00000000
00000000
00000000
00000000
00000000
0007FF00
00180E00
00300C00
00600C00
00600C00
00600C00
00300C00
00180C00
0007FC00
00030C00
00060C00
00060C00
000C0C00
00180C00
00300C00
00601E00
01803F00
00000000
00000000
00000000
00000000
ENDCHAR
STARTCHAR 0451
ENCODING 1105
SWIDTH 1920 0
DWIDTH 32 0
BBX 31 28 0 -4
BITMAP
00000000
00000000
001C3800
001C3800
00000000
00000000
00000000
0007C000
00183000
00301800
00600C00
00600C00
00C00600
00C00600
00FFFE00
00C00000
00C00000
00C00000
00C00000
00600200
00600400
00300800
00183000
0007C000
00000000
00000000
00000000
00000000
ENDCHAR
STARTCHAR 2000
ENCODING 8192
SWIDTH 1920 0
DWIDTH 32 0
BBX 31 28 0 -4
BITMAP
00000000
00000000
00000000
00000000
00000000
00000000
00000000
00000000
00000000
00000000
00000000
00000000
00000000
00000000
00000000
00000000
00000000
00000000
00000000
00000000
00000000
00000000
00000000
00000000
00000000
00000000
00000000
00000000
ENDCHAR
STARTCHAR 2001
ENCODING 8193
SWIDTH 1920 0
DWIDTH 32 0
BBX 31 28 0 -4
BITMAP
00000000
00000000
00000000
00000000
00000000
00000000
00000000
00000000
00000000
00000000
00000000
00000000
00000000
00000000
00000000
00000000
00000000
00000000
00000000
00000000
00000000
00000000
00000000
00000000
00000000
00000000
00000000
00000000
ENDCHAR
STARTCHAR 2002
ENCODING 8194
SWIDTH 1920 0
DWIDTH 32 0
BBX 31 28 0 -4
BITMAP
00000000
00000000
00000000
00000000
00000000
00000000
00000000
00000000
00000000
00000000
00000000
00000000
00000000
00000000
00000000
00000000
00000000
00000000
00000000
00000000
00000000
00000000
00000000
00000000
00000000
00000000
00000000
00000000
ENDCHAR
STARTCHAR 2003
ENCODING 8195
SWIDTH 1920 0
DWIDTH 32 0
BBX 31 28 0 -4
BITMAP
00000000
00000000
00000000
00000000
00000000
00000000
00000000
00000000
00000000
00000000
00000000
00000000
00000000
00000000
00000000
00000000
00000000
00000000
00000000
00000000
00000000
00000000
00000000
00000000
00000000
00000000
00000000
00000000
ENDCHAR
STARTCHAR 2004
ENCODING 8196
SWIDTH 1920 0
DWIDTH 32 0
BBX 31 28 0 -4
BITMAP
00000000
00000000
00000000
00000000
00000000
00000000
00000000
00000000
00000000
00000000
00000000
00000000
00000000
00000000
00000000
00000000
00000000
00000000
00000000
00000000
00000000
00000000
00000000
00000000
00000000
00000000
00000000
00000000
ENDCHAR
STARTCHAR 2005
ENCODING 8197
SWIDTH 1920 0
DWIDTH 32 0
BBX 31 28 0 -4
BITMAP
00000000
00000000
00000000
00000000
00000000
00000000
00000000
00000000
00000000
00000000
00000000
00000000
00000000
00000000
00000000
00000000
00000000
00000000
00000000
00000000
00000000
00000000
00000000
00000000
00000000
00000000
00000000
00000000
ENDCHAR
STARTCHAR 2006
ENCODING 8198
SWIDTH 1920 0
DWIDTH 32 0
BBX 31 28 0 -4
BITMAP
00000000
00000000
00000000
00000000
00000000
00000000
00000000
00000000
00000000
00000000
00000000
00000000
00000000
00000000
00000000
00000000
00000000
00000000
00000000
00000000
00000000
00000000
00000000
00000000
00000000
00000000
00000000
00000000
ENDCHAR
STARTCHAR 2007
ENCODING 8199
SWIDTH 1920 0
DWIDTH 32 0
BBX 31 28 0 -4
BITMAP
00000000
00000000
00000000
00000000
00000000
00000000
00000000
00000000
00000000
00000000
00000000
00000000
00000000
00000000
00000000
00000000
00000000
00000000
00000000
00000000
00000000
00000000
00000000
00000000
00000000
00000000
00000000
00000000
ENDCHAR
STARTCHAR 2008
ENCODING 8200
SWIDTH 1920 0
DWIDTH 32 0
BBX 31 28 0 -4
BITMAP
00000000
00000000
00000000
00000000
00000000
00000000
00000000
00000000
00000000
00000000
00000000
00000000
00000000
00000000
00000000
00000000
00000000
00000000
00000000
00000000
00000000
00000000
00000000
00000000
00000000
00000000
00000000
00000000
ENDCHAR
STARTCHAR 2009
ENCODING 8201
SWIDTH 1920 0
DWIDTH 32 0
BBX 31 28 0 -4
BITMAP
00000000
00000000
00000000
00000000
00000000
00000000
00000000
00000000
00000000
00000000
00000000
00000000
00000000
00000000
00000000
00000000
00000000
00000000
00000000
00000000
00000000
00000000
00000000
00000000
00000000
00000000
00000000
00000000
ENDCHAR
STARTCHAR 200A
ENCODING 8202
SWIDTH 1920 0
DWIDTH 32 0
BBX 31 28 0 -4
BITMAP
00000000
00000000
00000000
00000000
00000000
00000000
00000000
00000000
00000000
00000000
00000000
00000000
00000000
00000000
00000000
00000000
00000000
00000000
00000000
00000000
00000000
00000000
00000000
00000000
00000000
00000000
00000000
00000000
ENDCHAR
STARTCHAR 200B
ENCODING 8203
SWIDTH 960 0
DWIDTH 16 0
BBX 1 1 0 0
BITMAP
00
ENDCHAR
STARTCHAR 200C
ENCODING 8204
SWIDTH 960 0
DWIDTH 16 0
BBX 1 1 0 0
BITMAP
00
ENDCHAR
STARTCHAR 200D
ENCODING 8205
SWIDTH 960 0
DWIDTH 16 0
BBX 1 1 0 0
BITMAP
00
ENDCHAR
STARTCHAR 200E
ENCODING 8206
SWIDTH 960 0
DWIDTH 16 0
BBX 1 1 0 0
BITMAP
00
ENDCHAR
STARTCHAR 200F
ENCODING 8207
SWIDTH 960 0
DWIDTH 16 0
BBX 1 1 0 0
BITMAP
00
ENDCHAR
STARTCHAR 2010
ENCODING 8208
SWIDTH 1920 0
DWIDTH 32 0
BBX 12 1 10 12
BITMAP
FFF0
ENDCHAR
STARTCHAR 2015
ENCODING 8213
SWIDTH 1920 0
DWIDTH 32 0
BBX 32 1 0 12
BITMAP
FFFFFFFF
ENDCHAR
STARTCHAR 2016
ENCODING 8214
SWIDTH 1920 0
DWIDTH 32 0
BBX 6 32 13 -4
BITMAP
84
84
84
84
84
84
84
84
84
84
84
84
84
84
84
84
84
84
84
84
84
84
84
84
84
84
84
84
84
84
84
84
ENDCHAR
STARTCHAR 2018
ENCODING 8216
SWIDTH 1920 0
DWIDTH 32 0
BBX 4 9 25 19
BITMAP
10
20
60
40
C0
E0
F0
F0
60
ENDCHAR
STARTCHAR 2019
ENCODING 8217
SWIDTH 1920 0
DWIDTH 32 0
BBX 4 9 3 18
BITMAP
60
F0
F0
70
30
20
60
40
80
ENDCHAR
STARTCHAR 201C
ENCODING 8220
SWIDTH 1920 0
DWIDTH 32 0
BBX 10 9 19 19
BITMAP
1040
2080
6180
4100
C300
E380
F3C0
F3C0
6180
ENDCHAR
STARTCHAR 201D
ENCODING 8221
SWIDTH 1920 0
DWIDTH 32 0
BBX 10 9 3 18
BITMAP
6180
F3C0
F3C0
71C0
30C0
2080
6180
4100
8200
ENDCHAR
STARTCHAR 2020
ENCODING 8224
SWIDTH 1920 0
DWIDTH 32 0
BBX 15 30 8 -3
BITMAP
0100
0380
07C0
0380
0100
2108
711C
FFFE
711C
2108
0100
0100
0380
07C0
0380
0380
0380
0380
0380
0380
0380
0380
0380
0100
0100
0100
0100
0100
0100
0100
ENDCHAR
STARTCHAR 2021
ENCODING 8225
SWIDTH 1920 0
DWIDTH 32 0
BBX 15 30 8 -3
BITMAP
0100
0380
07C0
0380
2108
711C
FFFE
711C
2108
0380
07C0
0380
0380
0100
0100
0100
0100
0380
0380
07C0
0380
2108
711C
FFFE
711C
2108
0380
07C0
0380
0100
ENDCHAR
STARTCHAR 2025
ENCODING 8229
SWIDTH 1920 0
DWIDTH 32 0
BBX 20 4 6 10
BITMAP
600060
F000F0
F000F0
600060
ENDCHAR
STARTCHAR 2026
ENCODING 8230
SWIDTH 1920 0
DWIDTH 32 0
BBX 26 4 3 10
BITMAP
600C0180
F01E03C0
F01E03C0
600C0180
ENDCHAR
STARTCHAR 2030
ENCODING 8240
SWIDTH 1920 0
DWIDTH 32 0
BBX 31 31 0 -4
BITMAP
00001000
0E001000
31802000
20802000
60C04000
60C08000
60C08000
60C10000
60C20000
60C20000
60C40000
60C80000
20880000
31900000
0E200000
00238070
004C618C
00882104
00983306
01183306
02183306
02183306
04183306
08183306
08183306
10183306
20082104
200C618C
40038070
80000000
80000000
ENDCHAR
STARTCHAR 2032
ENCODING 8242
SWIDTH 1920 0
DWIDTH 32 0
BBX 6 9 2 18
BITMAP
10
1C
18
30
30
20
40
40
80
ENDCHAR
STARTCHAR 2033
ENCODING 8243
SWIDTH 1920 0
DWIDTH 32 0
BBX 11 9 2 18
BITMAP
1080
1CE0
18C0
3180
3180
2100
4200
4200
8400
ENDCHAR
STARTCHAR 203B
ENCODING 8251
SWIDTH 1920 0
DWIDTH 32 0
BBX 28 28 2 -2
BITMAP
80000010
400F0020
200F0040
100F0080
080F0100
04000200
02000400
01000800
00801000
00402000
00204000
00108000
780901E0
780601E0
780601E0
780901E0
00108000
00204000
00402000
00801000
01000800
02000400
04000200
080F0100
100F0080
200F0040
400F0020
80000000
ENDCHAR
STARTCHAR 203E
ENCODING 8254
SWIDTH 960 0
DWIDTH 16 0
BBX 14 1 1 25
BITMAP
FFFC
ENDCHAR
STARTCHAR 2103
ENCODING 8451
SWIDTH 1920 0
DWIDTH 32 0
BBX 28 26 2 0
BITMAP
38000000
44000000
8203F820
820C0620
823001E0
44600060
38C00060
00C00020
01800020
01800000
03000000
03000000
03000000
03000000
03000000
03000000
03000000
03000010
01800010
01800020
00C00020
00C00040
00600080
00300100
000C0600
0003F800
ENDCHAR
STARTCHAR 2116
ENCODING 8470
SWIDTH 1920 0
DWIDTH 32 0
BBX 30 24 1 0
BITMAP
F87E0000
38180000
2C180000
2C180000
2C180000
26180000
26180000
26180000
23181E00
23186180
2318C0C0
2198C0C0
21998060
21998060
21998060
20D98060
20D98060
20D98060
20798060
20798060
2078C0C0
2038C0DC
2038619C
F8381E1C
ENDCHAR
STARTCHAR 2121
ENCODING 8481
SWIDTH 1920 0
DWIDTH 32 0
BBX 31 24 0 0
BITMAP
FFFE0000
C3060000
83020000
83020000
83020000
03000000
03000000
03000000
033FF7E0
030C3180
030C1180
030C1180
030C0180
030C2180
030C2180
030FE180
030C2180
030C2180
030C0180
030C1182
030C1182
030C1182
030C3186
1FFFF7FE
ENDCHAR
STARTCHAR 212B
ENCODING 8491
SWIDTH 1920 0
DWIDTH 32 0
BBX 25 27 3 0
BITMAP
000C0000
00120000
00210000
00210000
00120000
000C0000
000C0000
000C0000
00160000
00160000
00130000
00230000
00230000
00418000
00418000
0080C000
0080C000
01006000
01006000
01FFE000
02003000
02003000
04001800
04001800
08000C00
18001E00
FF007F80
ENDCHAR
STARTCHAR 2160
ENCODING 8544
SWIDTH 1920 0
DWIDTH 32 0
BBX 9 26 11 -1
BITMAP
FF80
1C00
1C00
1C00
1C00
1C00
1C00
1C00
1C00
1C00
1C00
1C00
1C00
1C00
1C00
1C00
1C00
1C00
1C00
1C00
1C00
1C00
1C00
1C00
1C00
FF80
ENDCHAR
STARTCHAR 2161
ENCODING 8545
SWIDTH 1920 0
DWIDTH 32 0
BBX 16 26 8 -1
BITMAP
FFFF
1C38
1C38
1C38
1C38
1C38
1C38
1C38
1C38
1C38
1C38
1C38
1C38
1C38
1C38
1C38
1C38
1C38
1C38
1C38
1C38
1C38
1C38
1C38
1C38
FFFF
ENDCHAR
STARTCHAR 2162
ENCODING 8546
SWIDTH 1920 0
DWIDTH 32 0
BBX 23 26 4 -1
BITMAP
FFFFFE
1C3870
1C3870
1C3870
1C3870
1C3870
1C3870
1C3870
1C3870
1C3870
1C3870
1C3870
1C3870
1C3870
1C3870
1C3870
1C3870
1C3870
1C3870
1C3870
1C3870
1C3870
1C3870
1C3870
1C3870
FFFFFE
ENDCHAR
STARTCHAR 2163
ENCODING 8547
SWIDTH 1920 0
DWIDTH 32 0
BBX 26 26 4 -1
BITMAP
FFF81FC0
1DC00200
1DC00200
1DC00200
1CE00200
1CE00400
1CE00400
1C700400
1C700800
1C700800
1C380800
1C380800
1C381000
1C1C1000
1C1C1000
1C1C2000
1C0E2000
1C0E2000
1C0E4000
1C074000
1C074000
1C078000
1C038000
1C038000
1C010000
FF810000
ENDCHAR
STARTCHAR 2164
ENCODING 8548
SWIDTH 1920 0
DWIDTH 32 0
BBX 24 26 4 -1
BITMAP
FF807F
1C0008
1C0008
0E0008
0E0010
0E0010
070010
070020
070020
038020
038040
038040
01C040
01C080
01C080
00E080
00E100
00E100
007100
007200
003A00
003A00
003C00
001C00
001800
000800
ENDCHAR
STARTCHAR 2165
ENCODING 8549
SWIDTH 1920 0
DWIDTH 32 0
BBX 26 26 1 -1
BITMAP
FF80FFC0
1C002E00
1C002E00
1C002E00
0E002E00
0E004E00
0E004E00
07004E00
07008E00
07008E00
03808E00
03808E00
03810E00
01C10E00
01C10E00
01C20E00
00E20E00
00E20E00
00E40E00
00740E00
00740E00
00780E00
00380E00
00380E00
00100E00
00107FC0
ENDCHAR
STARTCHAR 2166
ENCODING 8550
SWIDTH 1920 0
DWIDTH 32 0
BBX 29 26 1 -1
BITMAP
FF87FFF8
1C00B9C0
1C00B9C0
1C0139C0
0E0139C0
0E0139C0
0E0139C0
0E0239C0
070239C0
070239C0
070239C0
070439C0
038439C0
038439C0
038439C0
038839C0
01C839C0
01C839C0
01D039C0
01D039C0
00D039C0
00F039C0
00E039C0
006039C0
006039C0
0041FFF8
ENDCHAR
STARTCHAR 2167
ENCODING 8551
SWIDTH 1920 0
DWIDTH 32 0
BBX 31 26 0 -1
BITMAP
FF1FFFFE
3802E738
3802E738
3804E738
3804E738
1C04E738
1C04E738
1C08E738
1C08E738
0E08E738
0E08E738
0E08E738
0E10E738
0710E738
0710E738
0710E738
0320E738
03A0E738
03A0E738
03A0E738
01E0E738
01C0E738
01C0E738
00C0E738
00C0E738
0087FFFE
ENDCHAR
STARTCHAR 2168
ENCODING 8552
SWIDTH 1920 0
DWIDTH 32 0
BBX 26 26 4 -1
BITMAP
FFF83F80
1DC00400
1CE00400
1CE00800
1C700800
1C701000
1C382000
1C382000
1C1C4000
1C0E4000
1C0E8000
1C070000
1C070000
1C038000
1C038000
1C05C000
1C04E000
1C08E000
1C087000
1C103800
1C103800
1C201C00
1C400E00
1C400E00
1C800700
FFF87FC0
ENDCHAR
STARTCHAR 2169
ENCODING 8553
SWIDTH 1920 0
DWIDTH 32 0
BBX 25 26 4 -1
BITMAP
FF80FF00
1C001000
0E002000
0E002000
07004000
03808000
03808000
01C10000
00E20000
00E20000
00740000
00380000
003C0000
003C0000
002E0000
00460000
00870000
00838000
0101C000
0201C000
0200E000
04007000
08003800
08003800
10001C00
FF00FF80
ENDCHAR
STARTCHAR 2190
ENCODING 8592
SWIDTH 1920 0
DWIDTH 32 0
BBX 30 11 1 7
BITMAP
01000000
02000000
0C000000
18000000
30000000
FFFFFFFC
30000000
18000000
0C000000
02000000
01000000
ENDCHAR
STARTCHAR 2191
ENCODING 8593
SWIDTH 1920 0
DWIDTH 32 0
BBX 11 30 10 -3
BITMAP
0400
0400
0E00
1F00
3580
2480
4440
8420
0400
0400
0400
0400
0400
0400
0400
0400
0400
0400
0400
0400
0400
0400
0400
0400
0400
0400
0400
0400
0400
0400
ENDCHAR
STARTCHAR 2192
ENCODING 8594
SWIDTH 1920 0
DWIDTH 32 0
BBX 30 11 1 7
BITMAP
00000200
00000100
000000C0
00000060
00000030
FFFFFFFC
00000030
00000060
000000C0
00000100
00000200
ENDCHAR
STARTCHAR 2193
ENCODING 8595
SWIDTH 1920 0
DWIDTH 32 0
BBX 11 30 10 -3
BITMAP
0400
0400
0400
0400
0400
0400
0400
0400
0400
0400
0400
0400
0400
0400
0400
0400
0400
0400
0400
0400
0400
0400
8420
4440
2480
3580
1F00
0E00
0400
0400
ENDCHAR
STARTCHAR 21D2
ENCODING 8658
SWIDTH 1920 0
DWIDTH 32 0
BBX 31 17 0 4
BITMAP
00000200
00000100
00000080
00000040
00000020
FFFFFFF0
00000008
00000004
00000002
00000004
00000008
FFFFFFF0
00000020
00000040
00000080
00000100
00000200
ENDCHAR
STARTCHAR 21D4
ENCODING 8660
SWIDTH 1920 0
DWIDTH 32 0
BBX 30 17 1 4
BITMAP
00800400
01000200
02000100
04000080
08000040
1FFFFFE0
20000010
40000008
80000004
40000008
20000010
1FFFFFE0
08000040
04000080
02000100
01000200
00800400
ENDCHAR
STARTCHAR 2200
ENCODING 8704
SWIDTH 1920 0
DWIDTH 32 0
BBX 25 26 3 -1
BITMAP
80000080
80000080
40000100
40000100
20000200
20000200
10000400
10000400
08000800
0FFFF800
04001000
04001000
02002000
02002000
01004000
01004000
00808000
00808000
00410000
00410000
00220000
00220000
00140000
00140000
00080000
00080000
ENDCHAR
STARTCHAR 2202
ENCODING 8706
SWIDTH 1920 0
DWIDTH 32 0
BBX 17 28 7 -2
BITMAP
007800
01CE00
030300
040100
080180
000080
000080
000080
000080
000080
01C180
063180
0C1980
180B00
300700
200300
600300
600600
C00600
C00600
C00C00
C00C00
C01800
C01800
603000
606000
30C000
1F0000
ENDCHAR
STARTCHAR 2203
ENCODING 8707
SWIDTH 1920 0
DWIDTH 32 0
BBX 21 23 5 1
BITMAP
FFFFF8
000008
000008
000008
000008
000008
000008
000008
000008
000008
000008
FFFFF8
000008
000008
000008
000008
000008
000008
000008
000008
000008
000008
FFFFF8
ENDCHAR
STARTCHAR 2207
ENCODING 8711
SWIDTH 1920 0
DWIDTH 32 0
BBX 28 27 2 -2
BITMAP
FFFFFFF0
7FFFFFE0
60000020
30000040
30000040
18000080
18000080
0C000100
0C000100
06000200
06000200
03000400
03000400
01800800
01800800
00C01000
00C01000
00602000
00602000
00304000
00304000
00188000
00188000
000D0000
000D0000
00060000
00060000
ENDCHAR
STARTCHAR 2208
ENCODING 8712
SWIDTH 1920 0
DWIDTH 32 0
BBX 24 21 4 2
BITMAP
03FFFF
0C0000
100000
200000
400000
400000
800000
800000
800000
800000
FFFFFF
800000
800000
800000
800000
400000
400000
200000
100000
0C0000
03FFFF
ENDCHAR
STARTCHAR 220B
ENCODING 8715
SWIDTH 1920 0
DWIDTH 32 0
BBX 24 21 4 2
BITMAP
FFFFC0
000030
000008
000004
000002
000002
000001
000001
000001
000001
FFFFFF
000001
000001
000001
000001
000002
000002
000004
000008
000030
FFFFC0
ENDCHAR
STARTCHAR 2211
ENCODING 8721
SWIDTH 1920 0
DWIDTH 32 0
BBX 24 25 3 -1
BITMAP
7FFFFC
1C000C
0E0004
070004
038004
01C000
00E000
007000
003800
001C00
000E00
000600
000C00
001800
003000
006000
00C000
018001
030001
060001
0C0001
180003
3FFFFF
7FFFFF
FFFFFF
ENDCHAR
STARTCHAR 2212
ENCODING 8722
SWIDTH 1920 0
DWIDTH 32 0
BBX 24 1 4 12
BITMAP
FFFFFF
ENDCHAR
STARTCHAR 221A
ENCODING 8730
SWIDTH 1920 0
DWIDTH 32 0
BBX 30 28 0 -3
BITMAP
00007FFC
00004000
00004000
0000C000
00008000
00008000
00018000
00010000
00010000
00030000
00020000
00020000
00060000
10040000
18040000
380C0000
2C080000
4C080000
46180000
86100000
03100000
03300000
01A00000
01E00000
00E00000
00C00000
00400000
00400000
ENDCHAR
STARTCHAR 221D
ENCODING 8733
SWIDTH 1920 0
DWIDTH 32 0
BBX 30 14 1 5
BITMAP
0FC00FC0
38703870
60186018
400CC00C
C0048004
80078000
80030000
80030000
80078000
C0048004
400CC00C
60186018
38703870
0FC00FC0
ENDCHAR
STARTCHAR 221E
ENCODING 8734
SWIDTH 1920 0
DWIDTH 32 0
BBX 30 14 1 5
BITMAP
0FC00FC0
38703870
60186018
400CC008
C004800C
80078004
80030004
80030004
80078004
C004800C
400CC008
60186018
38703870
0FC00FC0
ENDCHAR
STARTCHAR 221F
ENCODING 8735
SWIDTH 1920 0
DWIDTH 32 0
BBX 24 24 4 3
BITMAP
800000
800000
800000
800000
800000
800000
800000
800000
800000
800000
800000
800000
800000
800000
800000
800000
800000
800000
800000
800000
800000
800000
800000
FFFFFF
ENDCHAR
STARTCHAR 2220
ENCODING 8736
SWIDTH 1920 0
DWIDTH 32 0
BBX 30 28 1 -2
BITMAP
00000000
00000000
00000080
00000100
00000200
00000400
00000800
00001000
00002000
00004000
00008000
00010000
00020000
00040000
00080000
00100000
00200000
00400000
00800000
01000000
02000000
04000000
0FFFFFC0
00000000
00000000
00000000
00000000
00000000
ENDCHAR
STARTCHAR 2227
ENCODING 8743
SWIDTH 1920 0
DWIDTH 32 0
BBX 30 28 1 -2
BITMAP
00000000
00020000
00020000
00050000
00050000
00088000
00088000
00104000
00104000
00202000
00202000
00401000
00401000
00800800
00800800
01000400
01000400
02000200
02000200
04000100
04000100
08000080
08000080
10000040
10000040
20000020
20000020
00000000
ENDCHAR
STARTCHAR 2228
ENCODING 8744
SWIDTH 1920 0
DWIDTH 32 0
BBX 30 28 1 -2
BITMAP
00000000
20000020
20000020
10000040
10000040
08000080
08000080
04000100
04000100
02000200
02000200
01000400
01000400
00800800
00800800
00401000
00401000
00202000
00202000
00104000
00104000
00088000
00088000
00050000
00050000
00020000
00020000
00000000
ENDCHAR
STARTCHAR 2229
ENCODING 8745
SWIDTH 1920 0
DWIDTH 32 0
BBX 30 28 1 -2
BITMAP
00000000
000FC000
00303000
00400800
00800400
01000200
02000100
02000100
04000080
04000080
04000080
04000080
04000080
04000080
04000080
04000080
04000080
04000080
04000080
04000080
04000080
04000080
04000080
04000080
04000080
04000080
04000080
00000000
ENDCHAR
STARTCHAR 222A
ENCODING 8746
SWIDTH 1920 0
DWIDTH 32 0
BBX 30 28 1 -2
BITMAP
00000000
04000080
04000080
04000080
04000080
04000080
04000080
04000080
04000080
04000080
04000080
04000080
04000080
04000080
04000080
04000080
04000080
04000080
04000080
04000080
02000100
02000100
01000200
00800400
00400800
00303000
000FC000
00000000
ENDCHAR
STARTCHAR 222B
ENCODING 8747
SWIDTH 1920 0
DWIDTH 32 0
BBX 30 28 1 -2
BITMAP
0001C000
00022000
00043000
00043000
00040000
00040000
00040000
00060000
00060000
00060000
00060000
00030000
00030000
00030000
00030000
00030000
00030000
00018000
00018000
00018000
00018000
00008000
00008000
00008000
00308000
00308000
00190000
000E0000
ENDCHAR
STARTCHAR 222C
ENCODING 8748
SWIDTH 1920 0
DWIDTH 32 0
BBX 30 28 1 -2
BITMAP
00380E00
00441300
00862180
00862180
00802000
00802000
00802000
00C03000
00C03000
00C03000
00C03000
00601800
00601800
00601800
00601800
00601800
00601800
00300C00
00300C00
00300C00
00300C00
00100400
00100400
00100400
06118400
06118400
0320C800
01C07000
ENDCHAR
STARTCHAR 222E
ENCODING 8750
SWIDTH 1920 0
DWIDTH 32 0
BBX 30 28 1 -2
BITMAP
0001C000
00022000
00043000
00043000
00040000
00040000
00040000
00060000
00060000
000FC000
00162000
00231000
00430800
00430800
00430800
00430800
00231000
0011A000
000FC000
00018000
00018000
00008000
00008000
00008000
00308000
00308000
00190000
000E0000
ENDCHAR
STARTCHAR 2234
ENCODING 8756
SWIDTH 1920 0
DWIDTH 32 0
BBX 30 28 1 -2
BITMAP
00000000
00000000
00000000
00000000
00030000
00078000
00078000
00030000
00000000
00000000
00000000
00000000
00000000
00000000
00000000
00000000
00000000
00000000
00000000
03000300
07800780
07800780
03000300
00000000
00000000
00000000
00000000
00000000
ENDCHAR
STARTCHAR 2235
ENCODING 8757
SWIDTH 1920 0
DWIDTH 32 0
BBX 30 28 1 -2
BITMAP
00000000
00000000
00000000
00000000
03000300
07800780
07800780
03000300
00000000
00000000
00000000
00000000
00000000
00000000
00000000
00000000
00000000
00000000
00000000
00000000
00030000
00078000
00078000
00030000
00000000
00000000
00000000
00000000
ENDCHAR
STARTCHAR 223D
ENCODING 8765
SWIDTH 1920 0
DWIDTH 32 0
BBX 30 28 1 -2
BITMAP
00000000
00000000
00000000
00000000
00000000
00000000
00000000
0FC00FC0
38703870
60186018
4008C008
C001800C
80010004
80030004
80020004
80060004
C004000C
400C4008
60186018
38703870
0FC00FC0
00000000
00000000
00000000
00000000
00000000
00000000
00000000
ENDCHAR
STARTCHAR 2252
ENCODING 8786
SWIDTH 1920 0
DWIDTH 32 0
BBX 30 28 1 -2
BITMAP
00000000
00000000
00600000
00F00000
00F00000
00600000
00000000
00000000
00000000
00000000
1FFFFFE0
1FFFFFE0
00000000
00000000
00000000
00000000
1FFFFFE0
1FFFFFE0
00000000
00000000
00000000
00000000
00001800
00003C00
00003C00
00001800
00000000
00000000
ENDCHAR
STARTCHAR 2260
ENCODING 8800
SWIDTH 1920 0
DWIDTH 32 0
BBX 30 28 1 -2
BITMAP
00000000
00000000
00002000
00002000
00002000
00004000
00004000
00004000
00008000
00008000
1FFFFFE0
00010000
00010000
00010000
00020000
00020000
1FFFFFE0
00040000
00040000
00040000
00080000
00080000
00080000
00100000
00100000
00000000
00000000
00000000
ENDCHAR
STARTCHAR 2261
ENCODING 8801
SWIDTH 1920 0
DWIDTH 32 0
BBX 30 28 1 -2
BITMAP
00000000
00000000
00000000
00000000
00000000
00000000
1FFFFFE0
1FFFFFE0
00000000
00000000
00000000
00000000
00000000
1FFFFFE0
1FFFFFE0
00000000
00000000
00000000
00000000
00000000
1FFFFFE0
1FFFFFE0
00000000
00000000
00000000
00000000
00000000
00000000
ENDCHAR
STARTCHAR 2266
ENCODING 8806
SWIDTH 1920 0
DWIDTH 32 0
BBX 30 28 1 -2
BITMAP
00000070
00000380
00001C00
0000E000
00070000
00380000
01C00000
0E000000
30000000
0E000000
01C00000
00380000
00070000
0000E000
00001C00
00000380
00000070
00000000
00000000
00000000
3FFFFFF0
00000000
00000000
00000000
00000000
3FFFFFF0
00000000
00000000
ENDCHAR
STARTCHAR 2267
ENCODING 8807
SWIDTH 1920 0
DWIDTH 32 0
BBX 30 28 1 -2
BITMAP
38000000
07000000
00E00000
001C0000
00038000
00007000
00000E00
000001C0
00000030
000001C0
00000E00
00007000
00038000
001C0000
00E00000
07000000
38000000
00000000
00000000
00000000
3FFFFFF0
00000000
00000000
00000000
00000000
3FFFFFF0
00000000
00000000
ENDCHAR
STARTCHAR 226A
ENCODING 8810
SWIDTH 1920 0
DWIDTH 32 0
BBX 30 28 1 -2
BITMAP
00000000
00001830
00002040
0000C180
00010200
00060C00
00081000
00306000
00408000
01830000
02040000
0C180000
10200000
60C00000
10200000
0C180000
02040000
01830000
00408000
00306000
00081000
00060C00
00010200
0000C180
00002040
00001830
00000000
00000000
ENDCHAR
STARTCHAR 226B
ENCODING 8811
SWIDTH 1920 0
DWIDTH 32 0
BBX 30 28 1 -2
BITMAP
00000000
30600000
08100000
060C0000
01020000
00C18000
00204000
00183000
00040800
00030600
00008100
000060C0
00001020
00000C18
00001020
000060C0
00008100
00030600
00040800
00183000
00204000
00C18000
01020000
060C0000
08100000
30600000
00000000
00000000
ENDCHAR
STARTCHAR 2282
ENCODING 8834
SWIDTH 1920 0
DWIDTH 32 0
BBX 30 28 1 -2
BITMAP
00000000
00000000
00000000
00000000
007FFFF0
01800000
02000000
04000000
08000000
10000000
10000000
20000000
20000000
20000000
20000000
20000000
20000000
10000000
10000000
08000000
04000000
02000000
01800000
007FFFF0
00000000
00000000
00000000
00000000
ENDCHAR
STARTCHAR 2283
ENCODING 8835
SWIDTH 1920 0
DWIDTH 32 0
BBX 30 28 1 -2
BITMAP
00000000
00000000
00000000
00000000
3FFFF800
00000600
00000100
00000080
00000040
00000020
00000020
00000010
00000010
00000010
00000010
00000010
00000010
00000020
00000020
00000040
00000080
00000100
00000600
3FFFF800
00000000
00000000
00000000
00000000
ENDCHAR
STARTCHAR 2286
ENCODING 8838
SWIDTH 1920 0
DWIDTH 32 0
BBX 30 28 1 -2
BITMAP
00000000
007FFFF0
01800000
02000000
04000000
08000000
10000000
10000000
20000000
20000000
20000000
20000000
20000000
10000000
10000000
08000000
04000000
02000000
01800000
007FFFF0
00000000
00000000
00000000
00000000
00000000
3FFFFFF0
00000000
00000000
ENDCHAR
STARTCHAR 2287
ENCODING 8839
SWIDTH 1920 0
DWIDTH 32 0
BBX 30 28 1 -2
BITMAP
00000000
3FFFF800
00000600
00000100
00000080
00000040
00000020
00000020
00000010
00000010
00000010
00000010
00000010
00000020
00000020
00000040
00000080
00000100
00000600
3FFFF800
00000000
00000000
00000000
00000000
00000000
3FFFFFF0
00000000
00000000
ENDCHAR
STARTCHAR 22A5
ENCODING 8869
SWIDTH 1920 0
DWIDTH 32 0
BBX 25 24 3 3
BITMAP
00080000
00080000
00080000
00080000
00080000
00080000
00080000
00080000
00080000
00080000
00080000
00080000
00080000
00080000
00080000
00080000
00080000
00080000
00080000
00080000
00080000
00080000
00080000
FFFFFF80
ENDCHAR
STARTCHAR 22BF
ENCODING 8895
SWIDTH 1920 0
DWIDTH 32 0
BBX 21 21 4 3
BITMAP
000008
000018
000028
000048
000088
000108
000208
000408
000808
001008
002008
004008
008008
010008
020008
040008
080008
100008
200008
400008
FFFFF8
ENDCHAR
STARTCHAR 2312
ENCODING 8978
SWIDTH 1920 0
DWIDTH 32 0
BBX 32 6 0 20
BITMAP
001FF800
00FFFF00
07C003E0
1C000038
60000006
80000001
ENDCHAR
STARTCHAR 2460
ENCODING 9312
SWIDTH 1920 0
DWIDTH 32 0
BBX 30 30 1 -3
BITMAP
000FC000
00703800
01800600
02000100
04010080
08030040
10070020
203F0010
20030010
40030008
40030008
40030008
80030004
80030004
80030004
80030004
80030004
80030004
40030008
40030008
40030008
20030010
20030010
101FE020
08000040
04000080
02000100
01800600
00703800
000FC000
ENDCHAR
STARTCHAR 2461
ENCODING 9313
SWIDTH 1920 0
DWIDTH 32 0
BBX 30 30 1 -3
BITMAP
000FC000
00703800
01800600
02000100
0407C080
08182040
10303020
20201010
20601810
40601808
40601808
40001808
80001004
80003004
80006004
80018004
80020004
80040004
40080008
40100808
40100808
20200810
203FF810
107FF820
08000040
04000080
02000100
01800600
00703800
000FC000
ENDCHAR
STARTCHAR 2462
ENCODING 9314
SWIDTH 1920 0
DWIDTH 32 0
BBX 30 30 1 -3
BITMAP
000FC000
00703800
01800600
02000100
04070080
0818C040
10306020
20603010
20603010
40603008
40003008
40002008
80006004
800FC004
8000E004
80003004
80003004
80001804
40001808
40601808
40601808
20603010
20203010
1010E020
080F8040
04000080
02000100
01800600
00703800
000FC000
ENDCHAR
STARTCHAR 2463
ENCODING 9315
SWIDTH 1920 0
DWIDTH 32 0
BBX 30 30 1 -3
BITMAP
000FC000
00703800
01800600
02000100
04018080
08018040
10038020
20038010
20058010
40058008
40098008
40098008
80118004
80118004
80218004
80218004
80418004
80418004
40FFF808
40018008
40018008
20018010
20018010
1007E020
08000040
04000080
02000100
01800600
00703800
000FC000
ENDCHAR
STARTCHAR 2464
ENCODING 9316
SWIDTH 1920 0
DWIDTH 32 0
BBX 30 30 1 -3
BITMAP
000FC000
00703800
01800600
02000100
04000080
08000040
103FF020
203FF010
20200010
40200008
40200008
40200008
8027C004
80386004
80303004
80203004
80001804
80001804
40601808
40601808
40603008
20303010
20186010
10078020
08000040
04000080
02000100
01800600
00703800
000FC000
ENDCHAR
STARTCHAR 2465
ENCODING 9317
SWIDTH 1920 0
DWIDTH 32 0
BBX 30 30 1 -3
BITMAP
000FC000
00703800
01800600
02000100
04000080
08000040
1007C020
20183010
20301810
40201808
40601808
40600008
80600004
8067C004
80786004
80703004
80601804
80601804
40601808
40601808
40201808
20303010
20186010
10078020
08000040
04000080
02000100
01800600
00703800
000FC000
ENDCHAR
STARTCHAR 2466
ENCODING 9318
SWIDTH 1920 0
DWIDTH 32 0
BBX 30 30 1 -3
BITMAP
000FC000
00703800
01800600
02000100
04000080
08000040
107FF820
207FF810
20401010
40402008
40002008
40004008
80004004
80008004
80008004
80010004
80010004
80030004
40020008
40060008
40060008
200C0010
200C0010
100C0020
08000040
04000080
02000100
01800600
00703800
000FC000
ENDCHAR
STARTCHAR 2467
ENCODING 9319
SWIDTH 1920 0
DWIDTH 32 0
BBX 30 30 1 -3
BITMAP
000FC000
00703800
01800600
02000100
04000080
08000040
10078020
20186010
20303010
40303008
40303008
40303008
80186004
800FC004
80186004
80303004
80601804
80601804
40601808
40601808
40601808
20303010
20186010
10078020
08000040
04000080
02000100
01800600
00703800
000FC000
ENDCHAR
STARTCHAR 2468
ENCODING 9320
SWIDTH 1920 0
DWIDTH 32 0
BBX 30 30 1 -3
BITMAP
000FC000
00703800
01800600
02000100
04000080
08000040
10078020
20186010
20303010
40601008
40601808
40601808
80601804
80601804
80303804
80187804
800F9804
80001804
40001808
40601808
40601008
20603010
20306010
100F8020
08000040
04000080
02000100
01800600
00703800
000FC000
ENDCHAR
STARTCHAR 2469
ENCODING 9321
SWIDTH 1920 0
DWIDTH 32 0
BBX 30 30 1 -3
BITMAP
000FC000
00703800
01800600
02000100
04000080
08000040
10207020
20618C10
21E10410
40630608
40630608
40630608
80630604
80630604
80630604
80630604
80630604
80630604
40630608
40630608
40630608
20610410
20618C10
11F87020
08000040
04000080
02000100
01800600
00703800
000FC000
ENDCHAR
STARTCHAR 246A
ENCODING 9322
SWIDTH 1920 0
DWIDTH 32 0
BBX 30 30 1 -3
BITMAP
000FC000
00703800
01800600
02000100
04000080
08000040
10101020
20303010
20F0F010
40303008
40303008
40303008
80303004
80303004
80303004
80303004
80303004
80303004
40303008
40303008
40303008
20303010
20303010
10FCFC20
08000040
04000080
02000100
01800600
00703800
000FC000
ENDCHAR
STARTCHAR 246B
ENCODING 9323
SWIDTH 1920 0
DWIDTH 32 0
BBX 30 30 1 -3
BITMAP
000FC000
00703800
01800600
02000100
04000080
08000040
10207020
20618C10
21E30410
40630608
40630608
40600608
80600C04
80600C04
80601804
80603004
80606004
8060C004
40608008
40610008
40610208
20620210
2063FE10
11FBFE20
08000040
04000080
02000100
01800600
00703800
000FC000
ENDCHAR
STARTCHAR 246C
ENCODING 9324
SWIDTH 1920 0
DWIDTH 32 0
BBX 30 30 1 -3
BITMAP
000FC000
00703800
01800600
02000100
04000080
08000040
10207020
20618C10
21E30410
40630608
40630608
40600608
80600404
80600C04
80607804
80600C04
80600604
80600604
40600608
40630608
40630608
20630610
20618C10
11F87020
08000040
04000080
02000100
01800600
00703800
000FC000
ENDCHAR
STARTCHAR 246D
ENCODING 9325
SWIDTH 1920 0
DWIDTH 32 0
BBX 30 30 1 -3
BITMAP
000FC000
00703800
01800600
02000100
04000080
08000040
10201820
20601810
21E03810
40603808
40605808
40605808
80609804
80609804
80611804
80611804
80621804
8067FF04
40601808
40601808
40601808
20601810
20601810
11F87E20
08000040
04000080
02000100
01800600
00703800
000FC000
ENDCHAR
STARTCHAR 246E
ENCODING 9326
SWIDTH 1920 0
DWIDTH 32 0
BBX 30 30 1 -3
BITMAP
000FC000
00703800
01800600
02000100
04000080
08000040
1021FC20
2061FC10
21E10010
40610008
40610008
40610008
80617004
8061CC04
80618404
80610604
80600604
80600604
40600608
40630608
40630608
20630C10
20618C10
11F87020
08000040
04000080
02000100
01800600
00703800
000FC000
ENDCHAR
STARTCHAR 246F
ENCODING 9327
SWIDTH 1920 0
DWIDTH 32 0
BBX 30 30 1 -3
BITMAP
000FC000
00703800
01800600
02000100
04000080
08000040
10207820
20618C10
21E10C10
40630C08
40630008
40630008
80630004
80637804
8063C404
80638604
80630604
80630604
40630608
40630608
40630608
20610610
20618C10
11F87020
08000040
04000080
02000100
01800600
00703800
000FC000
ENDCHAR
STARTCHAR 2470
ENCODING 9328
SWIDTH 1920 0
DWIDTH 32 0
BBX 30 30 1 -3
BITMAP
000FC000
00703800
01800600
02000100
04000080
08000040
1023FE20
2063FE10
21E20410
40620408
40600808
40600808
80600804
80601004
80601004
80603004
80602004
80606004
40606008
40606008
4060C008
2060C010
2060C010
11F8C020
08000040
04000080
02000100
01800600
00703800
000FC000
ENDCHAR
STARTCHAR 2471
ENCODING 9329
SWIDTH 1920 0
DWIDTH 32 0
BBX 30 30 1 -3
BITMAP
000FC000
00703800
01800600
02000100
04000080
08000040
10207020
20618C10
21E30610
40630608
40630608
40630608
80610404
80608804
8060F804
80610404
80630604
80630604
40630608
40630608
40630608
20630610
20618C10
11F87020
08000040
04000080
02000100
01800600
00703800
000FC000
ENDCHAR
STARTCHAR 2472
ENCODING 9330
SWIDTH 1920 0
DWIDTH 32 0
BBX 30 30 1 -3
BITMAP
000FC000
00703800
01800600
02000100
04000080
08000040
10207820
20618410
21E30410
40630608
40630608
40630608
80630604
80630E04
80611E04
8060F604
80600604
80600604
40600608
40630608
40630608
20630410
20618C10
11F87020
08000040
04000080
02000100
01800600
00703800
000FC000
ENDCHAR
STARTCHAR 2473
ENCODING 9331
SWIDTH 1920 0
DWIDTH 32 0
BBX 30 30 1 -3
BITMAP
000FC000
00703800
01800600
02000100
04000080
08000040
10601820
21986610
210C4210
430CC308
430CC308
400CC308
800CC304
8018C304
8010C304
8030C304
8060C304
8040C304
4080C308
4080C308
4104C308
21044210
23FC6610
13FC1820
08000040
04000080
02000100
01800600
00703800
000FC000
ENDCHAR
STARTCHAR 2500
ENCODING 9472
SWIDTH 1920 0
DWIDTH 32 0
BBX 32 1 0 12
BITMAP
FFFFFFFF
ENDCHAR
STARTCHAR 2501
ENCODING 9473
SWIDTH 1920 0
DWIDTH 32 0
BBX 32 3 0 11
BITMAP
FFFFFFFF
FFFFFFFF
FFFFFFFF
ENDCHAR
STARTCHAR 2502
ENCODING 9474
SWIDTH 1920 0
DWIDTH 32 0
BBX 1 32 15 -4
BITMAP
80
80
80
80
80
80
80
80
80
80
80
80
80
80
80
80
80
80
80
80
80
80
80
80
80
80
80
80
80
80
80
80
ENDCHAR
STARTCHAR 2503
ENCODING 9475
SWIDTH 1920 0
DWIDTH 32 0
BBX 3 32 14 -4
BITMAP
E0
E0
E0
E0
E0
E0
E0
E0
E0
E0
E0
E0
E0
E0
E0
E0
E0
E0
E0
E0
E0
E0
E0
E0
E0
E0
E0
E0
E0
E0
E0
E0
ENDCHAR
STARTCHAR 2504
ENCODING 9476
SWIDTH 1920 0
DWIDTH 32 0
BBX 31 1 0 12
BITMAP
EEEEEEEE
ENDCHAR
STARTCHAR 2505
ENCODING 9477
SWIDTH 1920 0
DWIDTH 32 0
BBX 31 3 0 11
BITMAP
EEEEEEEE
EEEEEEEE
EEEEEEEE
ENDCHAR
STARTCHAR 2506
ENCODING 9478
SWIDTH 1920 0
DWIDTH 32 0
BBX 1 31 15 -3
BITMAP
80
80
80
00
80
80
80
00
80
80
80
00
80
80
80
00
80
80
80
00
80
80
80
00
80
80
80
00
80
80
80
ENDCHAR
STARTCHAR 2507
ENCODING 9479
SWIDTH 1920 0
DWIDTH 32 0
BBX 3 31 14 -3
BITMAP
E0
E0
E0
00
E0
E0
E0
00
E0
E0
E0
00
E0
E0
E0
00
E0
E0
E0
00
E0
E0
E0
00
E0
E0
E0
00
E0
E0
E0
ENDCHAR
STARTCHAR 2508
ENCODING 9480
SWIDTH 1920 0
DWIDTH 32 0
BBX 29 1 0 12
BITMAP
88888888
ENDCHAR
STARTCHAR 2509
ENCODING 9481
SWIDTH 1920 0
DWIDTH 32 0
BBX 29 3 0 11
BITMAP
88888888
88888888
88888888
ENDCHAR
STARTCHAR 250A
ENCODING 9482
SWIDTH 1920 0
DWIDTH 32 0
BBX 1 29 15 -1
BITMAP
80
00
00
00
80
00
00
00
80
00
00
00
80
00
00
00
80
00
00
00
80
00
00
00
80
00
00
00
80
ENDCHAR
STARTCHAR 250B
ENCODING 9483
SWIDTH 1920 0
DWIDTH 32 0
BBX 3 29 14 -1
BITMAP
E0
00
00
00
E0
00
00
00
E0
00
00
00
E0
00
00
00
E0
00
00
00
E0
00
00
00
E0
00
00
00
E0
ENDCHAR
STARTCHAR 250C
ENCODING 9484
SWIDTH 1920 0
DWIDTH 32 0
BBX 17 17 15 -4
BITMAP
FFFF80
800000
800000
800000
800000
800000
800000
800000
800000
800000
800000
800000
800000
800000
800000
800000
800000
ENDCHAR
STARTCHAR 250D
ENCODING 9485
SWIDTH 1920 0
DWIDTH 32 0
BBX 17 18 15 -4
BITMAP
FFFF80
FFFF80
FFFF80
800000
800000
800000
800000
800000
800000
800000
800000
800000
800000
800000
800000
800000
800000
800000
ENDCHAR
STARTCHAR 250E
ENCODING 9486
SWIDTH 1920 0
DWIDTH 32 0
BBX 18 17 14 -4
BITMAP
FFFFC0
E00000
E00000
E00000
E00000
E00000
E00000
E00000
E00000
E00000
E00000
E00000
E00000
E00000
E00000
E00000
E00000
ENDCHAR
STARTCHAR 250F
ENCODING 9487
SWIDTH 1920 0
DWIDTH 32 0
BBX 18 18 14 -4
BITMAP
FFFFC0
FFFFC0
FFFFC0
E00000
E00000
E00000
E00000
E00000
E00000
E00000
E00000
E00000
E00000
E00000
E00000
E00000
E00000
E00000
ENDCHAR
STARTCHAR 2510
ENCODING 9488
SWIDTH 1920 0
DWIDTH 32 0
BBX 16 17 0 -4
BITMAP
FFFF
0001
0001
0001
0001
0001
0001
0001
0001
0001
0001
0001
0001
0001
0001
0001
0001
ENDCHAR
STARTCHAR 2511
ENCODING 9489
SWIDTH 1920 0
DWIDTH 32 0
BBX 16 18 0 -4
BITMAP
FFFF
FFFF
FFFF
0001
0001
0001
0001
0001
0001
0001
0001
0001
0001
0001
0001
0001
0001
0001
ENDCHAR
STARTCHAR 2512
ENCODING 9490
SWIDTH 1920 0
DWIDTH 32 0
BBX 17 17 0 -4
BITMAP
FFFF80
000380
000380
000380
000380
000380
000380
000380
000380
000380
000380
000380
000380
000380
000380
000380
000380
ENDCHAR
STARTCHAR 2513
ENCODING 9491
SWIDTH 1920 0
DWIDTH 32 0
BBX 17 18 0 -4
BITMAP
FFFF80
FFFF80
FFFF80
000380
000380
000380
000380
000380
000380
000380
000380
000380
000380
000380
000380
000380
000380
000380
ENDCHAR
STARTCHAR 2514
ENCODING 9492
SWIDTH 1920 0
DWIDTH 32 0
BBX 17 16 15 12
BITMAP
800000
800000
800000
800000
800000
800000
800000
800000
800000
800000
800000
800000
800000
800000
800000
FFFF80
ENDCHAR
STARTCHAR 2515
ENCODING 9493
SWIDTH 1920 0
DWIDTH 32 0
BBX 17 17 15 11
BITMAP
800000
800000
800000
800000
800000
800000
800000
800000
800000
800000
800000
800000
800000
800000
FFFF80
FFFF80
FFFF80
ENDCHAR
STARTCHAR 2516
ENCODING 9494
SWIDTH 1920 0
DWIDTH 32 0
BBX 18 16 14 12
BITMAP
E00000
E00000
E00000
E00000
E00000
E00000
E00000
E00000
E00000
E00000
E00000
E00000
E00000
E00000
E00000
FFFFC0
ENDCHAR
STARTCHAR 2517
ENCODING 9495
SWIDTH 1920 0
DWIDTH 32 0
BBX 18 17 14 11
BITMAP
E00000
E00000
E00000
E00000
E00000
E00000
E00000
E00000
E00000
E00000
E00000
E00000
E00000
E00000
FFFFC0
FFFFC0
FFFFC0
ENDCHAR
STARTCHAR 2518
ENCODING 9496
SWIDTH 1920 0
DWIDTH 32 0
BBX 16 16 0 12
BITMAP
0001
0001
0001
0001
0001
0001
0001
0001
0001
0001
0001
0001
0001
0001
0001
FFFF
ENDCHAR
STARTCHAR 2519
ENCODING 9497
SWIDTH 1920 0
DWIDTH 32 0
BBX 16 17 0 11
BITMAP
0001
0001
0001
0001
0001
0001
0001
0001
0001
0001
0001
0001
0001
0001
FFFF
FFFF
FFFF
ENDCHAR
STARTCHAR 251A
ENCODING 9498
SWIDTH 1920 0
DWIDTH 32 0
BBX 17 16 0 12
BITMAP
000380
000380
000380
000380
000380
000380
000380
000380
000380
000380
000380
000380
000380
000380
000380
FFFF80
ENDCHAR
STARTCHAR 251B
ENCODING 9499
SWIDTH 1920 0
DWIDTH 32 0
BBX 17 17 0 11
BITMAP
000380
000380
000380
000380
000380
000380
000380
000380
000380
000380
000380
000380
000380
000380
FFFF80
FFFF80
FFFF80
ENDCHAR
STARTCHAR 251C
ENCODING 9500
SWIDTH 1920 0
DWIDTH 32 0
BBX 17 32 15 -4
BITMAP
800000
800000
800000
800000
800000
800000
800000
800000
800000
800000
800000
800000
800000
800000
800000
FFFF80
800000
800000
800000
800000
800000
800000
800000
800000
800000
800000
800000
800000
800000
800000
800000
800000
ENDCHAR
STARTCHAR 251D
ENCODING 9501
SWIDTH 1920 0
DWIDTH 32 0
BBX 17 32 15 -4
BITMAP
800000
800000
800000
800000
800000
800000
800000
800000
800000
800000
800000
800000
800000
800000
FFFF80
FFFF80
FFFF80
800000
800000
800000
800000
800000
800000
800000
800000
800000
800000
800000
800000
800000
800000
800000
ENDCHAR
STARTCHAR 251E
ENCODING 9502
SWIDTH 1920 0
DWIDTH 32 0
BBX 18 32 14 -4
BITMAP
E00000
E00000
E00000
E00000
E00000
E00000
E00000
E00000
E00000
E00000
E00000
E00000
E00000
E00000
E00000
FFFFC0
400000
400000
400000
400000
400000
400000
400000
400000
400000
400000
400000
400000
400000
400000
400000
400000
ENDCHAR
STARTCHAR 251F
ENCODING 9503
SWIDTH 1920 0
DWIDTH 32 0
BBX 18 32 14 -4
BITMAP
400000
400000
400000
400000
400000
400000
400000
400000
400000
400000
400000
400000
400000
400000
400000
FFFFC0
E00000
E00000
E00000
E00000
E00000
E00000
E00000
E00000
E00000
E00000
E00000
E00000
E00000
E00000
E00000
E00000
ENDCHAR
STARTCHAR 2520
ENCODING 9504
SWIDTH 1920 0
DWIDTH 32 0
BBX 18 32 14 -4
BITMAP
E00000
E00000
E00000
E00000
E00000
E00000
E00000
E00000
E00000
E00000
E00000
E00000
E00000
E00000
E00000
FFFFC0
E00000
E00000
E00000
E00000
E00000
E00000
E00000
E00000
E00000
E00000
E00000
E00000
E00000
E00000
E00000
E00000
ENDCHAR
STARTCHAR 2521
ENCODING 9505
SWIDTH 1920 0
DWIDTH 32 0
BBX 18 32 14 -4
BITMAP
E00000
E00000
E00000
E00000
E00000
E00000
E00000
E00000
E00000
E00000
E00000
E00000
E00000
E00000
E00000
FFFFC0
400000
400000
400000
400000
400000
400000
400000
400000
400000
400000
400000
400000
400000
400000
400000
400000
ENDCHAR
STARTCHAR 2522
ENCODING 9506
SWIDTH 1920 0
DWIDTH 32 0
BBX 18 32 14 -4
BITMAP
400000
400000
400000
400000
400000
400000
400000
400000
400000
400000
400000
400000
400000
400000
400000
FFFFC0
E00000
E00000
E00000
E00000
E00000
E00000
E00000
E00000
E00000
E00000
E00000
E00000
E00000
E00000
E00000
E00000
ENDCHAR
STARTCHAR 2523
ENCODING 9507
SWIDTH 1920 0
DWIDTH 32 0
BBX 18 32 14 -4
BITMAP
E00000
E00000
E00000
E00000
E00000
E00000
E00000
E00000
E00000
E00000
E00000
E00000
E00000
E00000
FFFFC0
FFFFC0
FFFFC0
E00000
E00000
E00000
E00000
E00000
E00000
E00000
E00000
E00000
E00000
E00000
E00000
E00000
E00000
E00000
ENDCHAR
STARTCHAR 2524
ENCODING 9508
SWIDTH 1920 0
DWIDTH 32 0
BBX 16 32 0 -4
BITMAP
0001
0001
0001
0001
0001
0001
0001
0001
0001
0001
0001
0001
0001
0001
0001
FFFF
0001
0001
0001
0001
0001
0001
0001
0001
0001
0001
0001
0001
0001
0001
0001
0001
ENDCHAR
STARTCHAR 2525
ENCODING 9509
SWIDTH 1920 0
DWIDTH 32 0
BBX 16 32 0 -4
BITMAP
0001
0001
0001
0001
0001
0001
0001
0001
0001
0001
0001
0001
0001
0001
FFFF
FFFF
FFFF
0001
0001
0001
0001
0001
0001
0001
0001
0001
0001
0001
0001
0001
0001
0001
ENDCHAR
STARTCHAR 2526
ENCODING 9510
SWIDTH 1920 0
DWIDTH 32 0
BBX 17 32 0 -4
BITMAP
000380
000380
000380
000380
000380
000380
000380
000380
000380
000380
000380
000380
000380
000380
000380
FFFF80
000100
000100
000100
000100
000100
000100
000100
000100
000100
000100
000100
000100
000100
000100
000100
000100
ENDCHAR
STARTCHAR 2527
ENCODING 9511
SWIDTH 1920 0
DWIDTH 32 0
BBX 17 32 0 -4
BITMAP
000100
000100
000100
000100
000100
000100
000100
000100
000100
000100
000100
000100
000100
000100
000100
FFFF80
000380
000380
000380
000380
000380
000380
000380
000380
000380
000380
000380
000380
000380
000380
000380
000380
ENDCHAR
STARTCHAR 2528
ENCODING 9512
SWIDTH 1920 0
DWIDTH 32 0
BBX 17 32 0 -4
BITMAP
000380
000380
000380
000380
000380
000380
000380
000380
000380
000380
000380
000380
000380
000380
000380
FFFF80
000380
000380
000380
000380
000380
000380
000380
000380
000380
000380
000380
000380
000380
000380
000380
000380
ENDCHAR
STARTCHAR 2529
ENCODING 9513
SWIDTH 1920 0
DWIDTH 32 0
BBX 17 32 0 -4
BITMAP
000380
000380
000380
000380
000380
000380
000380
000380
000380
000380
000380
000380
000380
000380
FFFF80
FFFF80
FFFF80
000100
000100
000100
000100
000100
000100
000100
000100
000100
000100
000100
000100
000100
000100
000100
ENDCHAR
STARTCHAR 252A
ENCODING 9514
SWIDTH 1920 0
DWIDTH 32 0
BBX 17 32 0 -4
BITMAP
000100
000100
000100
000100
000100
000100
000100
000100
000100
000100
000100
000100
000100
000100
000100
FFFF80
000380
000380
000380
000380
000380
000380
000380
000380
000380
000380
000380
000380
000380
000380
000380
000380
ENDCHAR
STARTCHAR 252B
ENCODING 9515
SWIDTH 1920 0
DWIDTH 32 0
BBX 17 32 0 -4
BITMAP
000380
000380
000380
000380
000380
000380
000380
000380
000380
000380
000380
000380
000380
000380
FFFF80
FFFF80
FFFF80
000380
000380
000380
000380
000380
000380
000380
000380
000380
000380
000380
000380
000380
000380
000380
ENDCHAR
STARTCHAR 252C
ENCODING 9516
SWIDTH 1920 0
DWIDTH 32 0
BBX 32 17 0 -4
BITMAP
FFFFFFFF
00010000
00010000
00010000
00010000
00010000
00010000
00010000
00010000
00010000
00010000
00010000
00010000
00010000
00010000
00010000
00010000
ENDCHAR
STARTCHAR 252D
ENCODING 9517
SWIDTH 1920 0
DWIDTH 32 0
BBX 32 18 0 -4
BITMAP
FFFF0000
FFFFFFFF
FFFF0000
00010000
00010000
00010000
00010000
00010000
00010000
00010000
00010000
00010000
00010000
00010000
00010000
00010000
00010000
00010000
ENDCHAR
STARTCHAR 252E
ENCODING 9518
SWIDTH 1920 0
DWIDTH 32 0
BBX 32 18 0 -4
BITMAP
0001FFFF
FFFFFFFF
0001FFFF
00010000
00010000
00010000
00010000
00010000
00010000
00010000
00010000
00010000
00010000
00010000
00010000
00010000
00010000
00010000
ENDCHAR
STARTCHAR 252F
ENCODING 9519
SWIDTH 1920 0
DWIDTH 32 0
BBX 32 18 0 -4
BITMAP
FFFFFFFF
FFFFFFFF
FFFFFFFF
00010000
00010000
00010000
00010000
00010000
00010000
00010000
00010000
00010000
00010000
00010000
00010000
00010000
00010000
00010000
ENDCHAR
STARTCHAR 2530
ENCODING 9520
SWIDTH 1920 0
DWIDTH 32 0
BBX 32 17 0 -4
BITMAP
FFFFFFFF
00038000
00038000
00038000
00038000
00038000
00038000
00038000
00038000
00038000
00038000
00038000
00038000
00038000
00038000
00038000
00038000
ENDCHAR
STARTCHAR 2531
ENCODING 9521
SWIDTH 1920 0
DWIDTH 32 0
BBX 32 18 0 -4
BITMAP
FFFF8000
FFFFFFFF
FFFF8000
00038000
00038000
00038000
00038000
00038000
00038000
00038000
00038000
00038000
00038000
00038000
00038000
00038000
00038000
00038000
ENDCHAR
STARTCHAR 2532
ENCODING 9522
SWIDTH 1920 0
DWIDTH 32 0
BBX 32 18 0 -4
BITMAP
0003FFFF
FFFFFFFF
0003FFFF
00038000
00038000
00038000
00038000
00038000
00038000
00038000
00038000
00038000
00038000
00038000
00038000
00038000
00038000
00038000
ENDCHAR
STARTCHAR 2533
ENCODING 9523
SWIDTH 1920 0
DWIDTH 32 0
BBX 32 18 0 -4
BITMAP
FFFFFFFF
FFFFFFFF
FFFFFFFF
00038000
00038000
00038000
00038000
00038000
00038000
00038000
00038000
00038000
00038000
00038000
00038000
00038000
00038000
00038000
ENDCHAR
STARTCHAR 2534
ENCODING 9524
SWIDTH 1920 0
DWIDTH 32 0
BBX 32 16 0 12
BITMAP
00010000
00010000
00010000
00010000
00010000
00010000
00010000
00010000
00010000
00010000
00010000
00010000
00010000
00010000
00010000
FFFFFFFF
ENDCHAR
STARTCHAR 2535
ENCODING 9525
SWIDTH 1920 0
DWIDTH 32 0
BBX 32 17 0 11
BITMAP
00010000
00010000
00010000
00010000
00010000
00010000
00010000
00010000
00010000
00010000
00010000
00010000
00010000
00010000
FFFF0000
FFFFFFFF
FFFF0000
ENDCHAR
STARTCHAR 2536
ENCODING 9526
SWIDTH 1920 0
DWIDTH 32 0
BBX 32 17 0 11
BITMAP
00010000
00010000
00010000
00010000
00010000
00010000
00010000
00010000
00010000
00010000
00010000
00010000
00010000
00010000
0001FFFF
FFFFFFFF
0001FFFF
ENDCHAR
STARTCHAR 2537
ENCODING 9527
SWIDTH 1920 0
DWIDTH 32 0
BBX 32 17 0 11
BITMAP
00010000
00010000
00010000
00010000
00010000
00010000
00010000
00010000
00010000
00010000
00010000
00010000
00010000
00010000
FFFFFFFF
FFFFFFFF
FFFFFFFF
ENDCHAR
STARTCHAR 2538
ENCODING 9528
SWIDTH 1920 0
DWIDTH 32 0
BBX 32 16 0 12
BITMAP
00038000
00038000
00038000
00038000
00038000
00038000
00038000
00038000
00038000
00038000
00038000
00038000
00038000
00038000
00038000
FFFFFFFF
ENDCHAR
STARTCHAR 2539
ENCODING 9529
SWIDTH 1920 0
DWIDTH 32 0
BBX 32 17 0 11
BITMAP
00038000
00038000
00038000
00038000
00038000
00038000
00038000
00038000
00038000
00038000
00038000
00038000
00038000
00038000
FFFF8000
FFFFFFFF
FFFF8000
ENDCHAR
STARTCHAR 253A
ENCODING 9530
SWIDTH 1920 0
DWIDTH 32 0
BBX 32 17 0 11
BITMAP
00038000
00038000
00038000
00038000
00038000
00038000
00038000
00038000
00038000
00038000
00038000
00038000
00038000
00038000
0003FFFF
FFFFFFFF
0003FFFF
ENDCHAR
STARTCHAR 253B
ENCODING 9531
SWIDTH 1920 0
DWIDTH 32 0
BBX 32 17 0 11
BITMAP
00038000
00038000
00038000
00038000
00038000
00038000
00038000
00038000
00038000
00038000
00038000
00038000
00038000
00038000
FFFFFFFF
FFFFFFFF
FFFFFFFF
ENDCHAR
STARTCHAR 253C
ENCODING 9532
SWIDTH 1920 0
DWIDTH 32 0
BBX 32 32 0 -4
BITMAP
00010000
00010000
00010000
00010000
00010000
00010000
00010000
00010000
00010000
00010000
00010000
00010000
00010000
00010000
00010000
FFFFFFFF
00010000
00010000
00010000
00010000
00010000
00010000
00010000
00010000
00010000
00010000
00010000
00010000
00010000
00010000
00010000
00010000
ENDCHAR
STARTCHAR 253D
ENCODING 9533
SWIDTH 1920 0
DWIDTH 32 0
BBX 32 32 0 -4
BITMAP
00010000
00010000
00010000
00010000
00010000
00010000
00010000
00010000
00010000
00010000
00010000
00010000
00010000
00010000
FFFF0000
FFFFFFFF
FFFF0000
00010000
00010000
00010000
00010000
00010000
00010000
00010000
00010000
00010000
00010000
00010000
00010000
00010000
00010000
00010000
ENDCHAR
STARTCHAR 253E
ENCODING 9534
SWIDTH 1920 0
DWIDTH 32 0
BBX 32 32 0 -4
BITMAP
00010000
00010000
00010000
00010000
00010000
00010000
00010000
00010000
00010000
00010000
00010000
00010000
00010000
00010000
0001FFFF
FFFFFFFF
0001FFFF
00010000
00010000
00010000
00010000
00010000
00010000
00010000
00010000
00010000
00010000
00010000
00010000
00010000
00010000
00010000
ENDCHAR
STARTCHAR 253F
ENCODING 9535
SWIDTH 1920 0
DWIDTH 32 0
BBX 32 32 0 -4
BITMAP
00010000
00010000
00010000
00010000
00010000
00010000
00010000
00010000
00010000
00010000
00010000
00010000
00010000
00010000
FFFFFFFF
FFFFFFFF
FFFFFFFF
00010000
00010000
00010000
00010000
00010000
00010000
00010000
00010000
00010000
00010000
00010000
00010000
00010000
00010000
00010000
ENDCHAR
STARTCHAR 2540
ENCODING 9536
SWIDTH 1920 0
DWIDTH 32 0
BBX 32 32 0 -4
BITMAP
00038000
00038000
00038000
00038000
00038000
00038000
00038000
00038000
00038000
00038000
00038000
00038000
00038000
00038000
00038000
FFFFFFFF
00010000
00010000
00010000
00010000
00010000
00010000
00010000
00010000
00010000
00010000
00010000
00010000
00010000
00010000
00010000
00010000
ENDCHAR
STARTCHAR 2541
ENCODING 9537
SWIDTH 1920 0
DWIDTH 32 0
BBX 32 32 0 -4
BITMAP
00010000
00010000
00010000
00010000
00010000
00010000
00010000
00010000
00010000
00010000
00010000
00010000
00010000
00010000
00010000
FFFFFFFF
00038000
00038000
00038000
00038000
00038000
00038000
00038000
00038000
00038000
00038000
00038000
00038000
00038000
00038000
00038000
00038000
ENDCHAR
STARTCHAR 2542
ENCODING 9538
SWIDTH 1920 0
DWIDTH 32 0
BBX 32 32 0 -4
BITMAP
00038000
00038000
00038000
00038000
00038000
00038000
00038000
00038000
00038000
00038000
00038000
00038000
00038000
00038000
00038000
FFFFFFFF
00038000
00038000
00038000
00038000
00038000
00038000
00038000
00038000
00038000
00038000
00038000
00038000
00038000
00038000
00038000
00038000
ENDCHAR
STARTCHAR 2543
ENCODING 9539
SWIDTH 1920 0
DWIDTH 32 0
BBX 32 32 0 -4
BITMAP
00038000
00038000
00038000
00038000
00038000
00038000
00038000
00038000
00038000
00038000
00038000
00038000
00038000
00038000
FFFF8000
FFFFFFFF
FFFF8000
00010000
00010000
00010000
00010000
00010000
00010000
00010000
00010000
00010000
00010000
00010000
00010000
00010000
00010000
00010000
ENDCHAR
STARTCHAR 2544
ENCODING 9540
SWIDTH 1920 0
DWIDTH 32 0
BBX 32 32 0 -4
BITMAP
00038000
00038000
00038000
00038000
00038000
00038000
00038000
00038000
00038000
00038000
00038000
00038000
00038000
00038000
0003FFFF
FFFFFFFF
0003FFFF
00010000
00010000
00010000
00010000
00010000
00010000
00010000
00010000
00010000
00010000
00010000
00010000
00010000
00010000
00010000
ENDCHAR
STARTCHAR 2545
ENCODING 9541
SWIDTH 1920 0
DWIDTH 32 0
BBX 32 32 0 -4
BITMAP
00010000
00010000
00010000
00010000
00010000
00010000
00010000
00010000
00010000
00010000
00010000
00010000
00010000
00010000
FFFF8000
FFFFFFFF
FFFF8000
00038000
00038000
00038000
00038000
00038000
00038000
00038000
00038000
00038000
00038000
00038000
00038000
00038000
00038000
00038000
ENDCHAR
STARTCHAR 2546
ENCODING 9542
SWIDTH 1920 0
DWIDTH 32 0
BBX 32 32 0 -4
BITMAP
00010000
00010000
00010000
00010000
00010000
00010000
00010000
00010000
00010000
00010000
00010000
00010000
00010000
00010000
0003FFFF
FFFFFFFF
0003FFFF
00038000
00038000
00038000
00038000
00038000
00038000
00038000
00038000
00038000
00038000
00038000
00038000
00038000
00038000
00038000
ENDCHAR
STARTCHAR 2547
ENCODING 9543
SWIDTH 1920 0
DWIDTH 32 0
BBX 32 32 0 -4
BITMAP
00038000
00038000
00038000
00038000
00038000
00038000
00038000
00038000
00038000
00038000
00038000
00038000
00038000
00038000
FFFFFFFF
FFFFFFFF
FFFFFFFF
00010000
00010000
00010000
00010000
00010000
00010000
00010000
00010000
00010000
00010000
00010000
00010000
00010000
00010000
00010000
ENDCHAR
STARTCHAR 2548
ENCODING 9544
SWIDTH 1920 0
DWIDTH 32 0
BBX 32 32 0 -4
BITMAP
00010000
00010000
00010000
00010000
00010000
00010000
00010000
00010000
00010000
00010000
00010000
00010000
00010000
00010000
FFFFFFFF
FFFFFFFF
FFFFFFFF
00038000
00038000
00038000
00038000
00038000
00038000
00038000
00038000
00038000
00038000
00038000
00038000
00038000
00038000
00038000
ENDCHAR
STARTCHAR 2549
ENCODING 9545
SWIDTH 1920 0
DWIDTH 32 0
BBX 32 32 0 -4
BITMAP
00038000
00038000
00038000
00038000
00038000
00038000
00038000
00038000
00038000
00038000
00038000
00038000
00038000
00038000
FFFF8000
FFFFFFFF
FFFF8000
00038000
00038000
00038000
00038000
00038000
00038000
00038000
00038000
00038000
00038000
00038000
00038000
00038000
00038000
00038000
ENDCHAR
STARTCHAR 254A
ENCODING 9546
SWIDTH 1920 0
DWIDTH 32 0
BBX 32 32 0 -4
BITMAP
00038000
00038000
00038000
00038000
00038000
00038000
00038000
00038000
00038000
00038000
00038000
00038000
00038000
00038000
0003FFFF
FFFFFFFF
0003FFFF
00038000
00038000
00038000
00038000
00038000
00038000
00038000
00038000
00038000
00038000
00038000
00038000
00038000
00038000
00038000
ENDCHAR
STARTCHAR 254B
ENCODING 9547
SWIDTH 1920 0
DWIDTH 32 0
BBX 32 32 0 -4
BITMAP
00038000
00038000
00038000
00038000
00038000
00038000
00038000
00038000
00038000
00038000
00038000
00038000
00038000
00038000
FFFFFFFF
FFFFFFFF
FFFFFFFF
00038000
00038000
00038000
00038000
00038000
00038000
00038000
00038000
00038000
00038000
00038000
00038000
00038000
00038000
00038000
ENDCHAR
STARTCHAR 2581
ENCODING 9601
SWIDTH 1920 0
DWIDTH 32 0
BBX 16 4 0 -4
BITMAP
FFFF
FFFF
FFFF
FFFF
ENDCHAR
STARTCHAR 2582
ENCODING 9602
SWIDTH 1920 0
DWIDTH 32 0
BBX 16 8 0 -4
BITMAP
FFFF
FFFF
FFFF
FFFF
FFFF
FFFF
FFFF
FFFF
ENDCHAR
STARTCHAR 2583
ENCODING 9603
SWIDTH 1920 0
DWIDTH 32 0
BBX 16 12 0 -4
BITMAP
FFFF
FFFF
FFFF
FFFF
FFFF
FFFF
FFFF
FFFF
FFFF
FFFF
FFFF
FFFF
ENDCHAR
STARTCHAR 2584
ENCODING 9604
SWIDTH 1920 0
DWIDTH 32 0
BBX 16 16 0 -4
BITMAP
FFFF
FFFF
FFFF
FFFF
FFFF
FFFF
FFFF
FFFF
FFFF
FFFF
FFFF
FFFF
FFFF
FFFF
FFFF
FFFF
ENDCHAR
STARTCHAR 2585
ENCODING 9605
SWIDTH 1920 0
DWIDTH 32 0
BBX 16 20 0 -4
BITMAP
FFFF
FFFF
FFFF
FFFF
FFFF
FFFF
FFFF
FFFF
FFFF
FFFF
FFFF
FFFF
FFFF
FFFF
FFFF
FFFF
FFFF
FFFF
FFFF
FFFF
ENDCHAR
STARTCHAR 2586
ENCODING 9606
SWIDTH 1920 0
DWIDTH 32 0
BBX 16 24 0 -4
BITMAP
FFFF
FFFF
FFFF
FFFF
FFFF
FFFF
FFFF
FFFF
FFFF
FFFF
FFFF
FFFF
FFFF
FFFF
FFFF
FFFF
FFFF
FFFF
FFFF
FFFF
FFFF
FFFF
FFFF
FFFF
ENDCHAR
STARTCHAR 2587
ENCODING 9607
SWIDTH 1920 0
DWIDTH 32 0
BBX 16 27 0 -4
BITMAP
FFFF
FFFF
FFFF
FFFF
FFFF
FFFF
FFFF
FFFF
FFFF
FFFF
FFFF
FFFF
FFFF
FFFF
FFFF
FFFF
FFFF
FFFF
FFFF
FFFF
FFFF
FFFF
FFFF
FFFF
FFFF
FFFF
FFFF
ENDCHAR
STARTCHAR 2588
ENCODING 9608
SWIDTH 1920 0
DWIDTH 32 0
BBX 16 32 0 -4
BITMAP
FFFF
FFFF
FFFF
FFFF
FFFF
FFFF
FFFF
FFFF
FFFF
FFFF
FFFF
FFFF
FFFF
FFFF
FFFF
FFFF
FFFF
FFFF
FFFF
FFFF
FFFF
FFFF
FFFF
FFFF
FFFF
FFFF
FFFF
FFFF
FFFF
FFFF
FFFF
FFFF
ENDCHAR
STARTCHAR 2589
ENCODING 9609
SWIDTH 1920 0
DWIDTH 32 0
BBX 14 32 0 -4
BITMAP
FFFC
FFFC
FFFC
FFFC
FFFC
FFFC
FFFC
FFFC
FFFC
FFFC
FFFC
FFFC
FFFC
FFFC
FFFC
FFFC
FFFC
FFFC
FFFC
FFFC
FFFC
FFFC
FFFC
FFFC
FFFC
FFFC
FFFC
FFFC
FFFC
FFFC
FFFC
FFFC
ENDCHAR
STARTCHAR 258A
ENCODING 9610
SWIDTH 1920 0
DWIDTH 32 0
BBX 12 32 0 -4
BITMAP
FFF0
FFF0
FFF0
FFF0
FFF0
FFF0
FFF0
FFF0
FFF0
FFF0
FFF0
FFF0
FFF0
FFF0
FFF0
FFF0
FFF0
FFF0
FFF0
FFF0
FFF0
FFF0
FFF0
FFF0
FFF0
FFF0
FFF0
FFF0
FFF0
FFF0
FFF0
FFF0
ENDCHAR
STARTCHAR 258B
ENCODING 9611
SWIDTH 1920 0
DWIDTH 32 0
BBX 10 32 0 -4
BITMAP
FFC0
FFC0
FFC0
FFC0
FFC0
FFC0
FFC0
FFC0
FFC0
FFC0
FFC0
FFC0
FFC0
FFC0
FFC0
FFC0
FFC0
FFC0
FFC0
FFC0
FFC0
FFC0
FFC0
FFC0
FFC0
FFC0
FFC0
FFC0
FFC0
FFC0
FFC0
FFC0
ENDCHAR
STARTCHAR 258C
ENCODING 9612
SWIDTH 1920 0
DWIDTH 32 0
BBX 8 32 0 -4
BITMAP
FF
FF
FF
FF
FF
FF
FF
FF
FF
FF
FF
FF
FF
FF
FF
FF
FF
FF
FF
FF
FF
FF
FF
FF
FF
FF
FF
FF
FF
FF
FF
FF
ENDCHAR
STARTCHAR 258D
ENCODING 9613
SWIDTH 1920 0
DWIDTH 32 0
BBX 6 32 0 -4
BITMAP
FC
FC
FC
FC
FC
FC
FC
FC
FC
FC
FC
FC
FC
FC
FC
FC
FC
FC
FC
FC
FC
FC
FC
FC
FC
FC
FC
FC
FC
FC
FC
FC
ENDCHAR
STARTCHAR 258E
ENCODING 9614
SWIDTH 1920 0
DWIDTH 32 0
BBX 4 32 0 -4
BITMAP
F0
F0
F0
F0
F0
F0
F0
F0
F0
F0
F0
F0
F0
F0
F0
F0
F0
F0
F0
F0
F0
F0
F0
F0
F0
F0
F0
F0
F0
F0
F0
F0
ENDCHAR
STARTCHAR 258F
ENCODING 9615
SWIDTH 1920 0
DWIDTH 32 0
BBX 2 32 0 -4
BITMAP
C0
C0
C0
C0
C0
C0
C0
C0
C0
C0
C0
C0
C0
C0
C0
C0
C0
C0
C0
C0
C0
C0
C0
C0
C0
C0
C0
C0
C0
C0
C0
C0
ENDCHAR
STARTCHAR 25A0
ENCODING 9632
SWIDTH 1920 0
DWIDTH 32 0
BBX 26 26 3 -1
BITMAP
FFFFFFC0
FFFFFFC0
FFFFFFC0
FFFFFFC0
FFFFFFC0
FFFFFFC0
FFFFFFC0
FFFFFFC0
FFFFFFC0
FFFFFFC0
FFFFFFC0
FFFFFFC0
FFFFFFC0
FFFFFFC0
FFFFFFC0
FFFFFFC0
FFFFFFC0
FFFFFFC0
FFFFFFC0
FFFFFFC0
FFFFFFC0
FFFFFFC0
FFFFFFC0
FFFFFFC0
FFFFFFC0
FFFFFFC0
ENDCHAR
STARTCHAR 25A1
ENCODING 9633
SWIDTH 1920 0
DWIDTH 32 0
BBX 26 26 3 -1
BITMAP
FFFFFFC0
80000040
80000040
80000040
80000040
80000040
80000040
80000040
80000040
80000040
80000040
80000040
80000040
80000040
80000040
80000040
80000040
80000040
80000040
80000040
80000040
80000040
80000040
80000040
80000040
FFFFFFC0
ENDCHAR
STARTCHAR 25B2
ENCODING 9650
SWIDTH 1920 0
DWIDTH 32 0
BBX 27 24 2 1
BITMAP
00040000
00040000
000E0000
000E0000
001F0000
001F0000
003F8000
007FC000
007FC000
00FFE000
00FFE000
01FFF000
03FFF800
03FFF800
07FFFC00
07FFFC00
0FFFFE00
1FFFFF00
1FFFFF00
3FFFFF80
3FFFFF80
7FFFFFC0
FFFFFFE0
FFFFFFE0
ENDCHAR
STARTCHAR 25B3
ENCODING 9651
SWIDTH 1920 0
DWIDTH 32 0
BBX 27 24 2 1
BITMAP
00040000
00040000
000A0000
000A0000
00110000
00110000
00208000
00404000
00404000
00802000
00802000
01001000
02000800
02000800
04000400
04000400
08000200
10000100
10000100
20000080
20000080
40000040
80000020
FFFFFFE0
ENDCHAR
STARTCHAR 25BC
ENCODING 9660
SWIDTH 1920 0
DWIDTH 32 0
BBX 27 24 2 -1
BITMAP
FFFFFFE0
FFFFFFE0
7FFFFFC0
3FFFFF80
3FFFFF80
1FFFFF00
1FFFFF00
0FFFFE00
07FFFC00
07FFFC00
03FFF800
03FFF800
01FFF000
00FFE000
00FFE000
007FC000
007FC000
003F8000
001F0000
001F0000
000E0000
000E0000
00040000
00040000
ENDCHAR
STARTCHAR 25BD
ENCODING 9661
SWIDTH 1920 0
DWIDTH 32 0
BBX 27 24 2 -1
BITMAP
FFFFFFE0
80000020
40000040
20000080
20000080
10000100
10000100
08000200
04000400
04000400
02000800
02000800
01001000
00802000
00802000
00404000
00404000
00208000
00110000
00110000
000A0000
000A0000
00040000
00040000
ENDCHAR
STARTCHAR 25C6
ENCODING 9670
SWIDTH 1920 0
DWIDTH 32 0
BBX 30 30 1 -3
BITMAP
00030000
00078000
000FC000
001FE000
003FF000
007FF800
00FFFC00
01FFFE00
03FFFF00
07FFFF80
0FFFFFC0
1FFFFFE0
3FFFFFF0
7FFFFFF8
FFFFFFFC
FFFFFFFC
7FFFFFF8
3FFFFFF0
1FFFFFE0
0FFFFFC0
07FFFF80
03FFFF00
01FFFE00
00FFFC00
007FF800
003FF000
001FE000
000FC000
00078000
00030000
ENDCHAR
STARTCHAR 25C7
ENCODING 9671
SWIDTH 1920 0
DWIDTH 32 0
BBX 30 30 1 -3
BITMAP
00030000
00048000
00084000
00102000
00201000
00400800
00800400
01000200
02000100
04000080
08000040
10000020
20000010
40000008
80000004
80000004
40000008
20000010
10000020
08000040
04000080
02000100
01000200
00800400
00400800
00201000
00102000
00084000
00048000
00030000
ENDCHAR
STARTCHAR 25CB
ENCODING 9675
SWIDTH 1920 0
DWIDTH 32 0
BBX 30 30 1 -3
BITMAP
000FC000
00703800
01800600
02000100
04000080
08000040
10000020
20000010
20000010
40000008
40000008
40000008
80000004
80000004
80000004
80000004
80000004
80000004
40000008
40000008
40000008
20000010
20000010
10000020
08000040
04000080
02000100
01800600
00703800
000FC000
ENDCHAR
STARTCHAR 25CE
ENCODING 9678
SWIDTH 1920 0
DWIDTH 32 0
BBX 30 30 1 -3
BITMAP
000FC000
00703800
01800600
02000100
04000080
08000040
100FC020
20303010
20400810
40800408
41000208
41000208
82000104
82000104
82000104
82000104
82000104
82000104
41000208
41000208
40800408
20400810
20303010
100FC020
08000040
04000080
02000100
01800600
00703800
000FC000
ENDCHAR
STARTCHAR 25CF
ENCODING 9679
SWIDTH 1920 0
DWIDTH 32 0
BBX 30 30 1 -3
BITMAP
000FC000
007FF800
01FFFE00
03FFFF00
07FFFF80
0FFFFFC0
1FFFFFE0
3FFFFFF0
3FFFFFF0
7FFFFFF8
7FFFFFF8
7FFFFFF8
FFFFFFFC
FFFFFFFC
FFFFFFFC
FFFFFFFC
FFFFFFFC
FFFFFFFC
7FFFFFF8
7FFFFFF8
7FFFFFF8
3FFFFFF0
3FFFFFF0
1FFFFFE0
0FFFFFC0
07FFFF80
03FFFF00
01FFFE00
007FF800
000FC000
ENDCHAR
STARTCHAR 25EF
ENCODING 9711
SWIDTH 1920 0
DWIDTH 32 0
BBX 32 32 0 -4
BITMAP
000FF000
00700E00
01800180
02000040
04000020
08000010
10000008
20000004
20000004
40000002
40000002
40000002
80000001
80000001
80000001
80000001
80000001
80000001
80000001
80000001
40000002
40000002
40000002
20000004
20000004
10000008
08000010
04000020
02000040
01800180
00700E00
000FF000
ENDCHAR
STARTCHAR 2605
ENCODING 9733
SWIDTH 1920 0
DWIDTH 32 0
BBX 29 30 1 -3
BITMAP
00020000
00020000
00020000
00070000
00070000
00070000
000F8000
000F8000
000F8000
001FC000
001FC000
FFFFFFF8
3FFFFFE0
1FFFFFC0
07FFFF00
01FFFC00
00FFF800
003FE000
007FF000
007FF000
00FFF800
00FDF800
00F8F800
01F07C00
01E03C00
03C01E00
03800E00
03000600
06000300
04000100
ENDCHAR
STARTCHAR 2606
ENCODING 9734
SWIDTH 1920 0
DWIDTH 32 0
BBX 29 30 1 -3
BITMAP
00020000
00020000
00020000
00050000
00050000
00050000
00088000
00088000
00088000
00104000
00104000
FFF07FF8
20000020
180000C0
06000300
01000400
00C01800
00202000
00401000
00401000
00820800
00850800
00888800
01104400
01202400
02401200
02800A00
05000500
06000300
04000100
ENDCHAR
STARTCHAR 2640
ENCODING 9792
SWIDTH 1920 0
DWIDTH 32 0
BBX 22 30 5 -3
BITMAP
007800
018600
020100
040080
040080
080040
080040
080040
080040
040080
040080
020100
018600
007800
002000
002000
002000
FFFFFC
002000
002000
002000
002000
002000
002000
002000
002000
002000
002000
002000
002000
ENDCHAR
STARTCHAR 2642
ENCODING 9794
SWIDTH 1920 0
DWIDTH 32 0
BBX 29 29 1 -3
BITMAP
0001FFF8
00000018
00000028
00000048
00000088
00000108
00000208
00000408
00000808
00001008
00002008
00004008
00008008
00010008
00020000
07840000
18680000
20100000
40080000
40080000
80040000
80040000
80040000
80040000
40080000
40080000
20100000
18600000
07800000
ENDCHAR
STARTCHAR 266A
ENCODING 9834
SWIDTH 1920 0
DWIDTH 32 0
BBX 19 28 7 -2
BITMAP
008000
008000
00C000
00E000
00F000
00B800
009C00
008600
008300
008180
0080C0
008040
008060
008020
008060
008040
0080C0
008080
008100
008200
008000
008000
0F8000
3F0000
7F0000
FE0000
FC0000
700000
ENDCHAR
STARTCHAR 266D
ENCODING 9837
SWIDTH 1920 0
DWIDTH 32 0
BBX 13 28 10 -2
BITMAP
8000
8000
8000
8000
8000
8000
8000
8000
8000
8000
8000
8780
9860
B030
E018
C018
8018
8018
8030
8030
8060
80C0
8180
8700
8C00
B000
C000
8000
ENDCHAR
STARTCHAR 266F
ENCODING 9839
SWIDTH 1920 0
DWIDTH 32 0
BBX 20 28 6 -2
BITMAP
040200
040200
040200
040200
040200
040200
0403F0
043FF0
07FE00
FFC200
FC0200
040200
040200
040200
040200
040200
040200
0403F0
043FF0
07FE00
FFC200
FC0200
040200
040200
040200
040200
040200
040200
ENDCHAR
STARTCHAR 3000
ENCODING 12288
SWIDTH 1920 0
DWIDTH 32 0
BBX 1 1 0 0
BITMAP
00
ENDCHAR
STARTCHAR 3001
ENCODING 12289
SWIDTH 1920 0
DWIDTH 32 0
BBX 8 8 1 -3
BITMAP
80
60
38
1C
0E
07
07
03
ENDCHAR
STARTCHAR 3002
ENCODING 12290
SWIDTH 1920 0
DWIDTH 32 0
BBX 8 8 2 -2
BITMAP
3C
66
C3
81
81
C3
66
3C
ENDCHAR
STARTCHAR 3003
ENCODING 12291
SWIDTH 1920 0
DWIDTH 32 0
BBX 12 17 9 4
BITMAP
0C30
0C30
0C30
0C30
0C30
0C30
1860
1860
1860
1860
1040
30C0
2080
2080
4100
4100
8200
ENDCHAR
STARTCHAR 3005
ENCODING 12293
SWIDTH 1920 0
DWIDTH 32 0
BBX 22 24 4 0
BITMAP
004000
007000
007800
006000
00C010
00C038
00FFFC
018030
018060
030060
0200C0
060080
0C0180
088100
104200
203400
401800
800C00
000600
000700
000300
000380
000180
000180
ENDCHAR
STARTCHAR 3006
ENCODING 12294
SWIDTH 1920 0
DWIDTH 32 0
BBX 32 32 0 -4
BITMAP
00000006
00000003
00000007
0000000F
0000003C
00000070
000001C0
00000300
00000E00
00001800
00003000
00004000
00788000
01870000
02058000
0408C000
08107000
08203800
10401C00
10800C00
10800000
11000000
22000000
26000000
2C000000
28000000
38000000
30000000
70000000
60000000
E0000000
C0000000
ENDCHAR
STARTCHAR 3007
ENCODING 12295
SWIDTH 1920 0
DWIDTH 32 0
BBX 30 28 1 -2
BITMAP
001FE000
00F87C00
03800700
06000180
0C0000C0
18000060
30000030
20000010
40000008
40000008
40000008
80000004
80000004
80000004
80000004
80000004
80000004
40000008
40000008
40000008
20000010
30000030
18000060
0C0000C0
06000180
03800700
00F87C00
001FE000
ENDCHAR
STARTCHAR 3008
ENCODING 12296
SWIDTH 1920 0
DWIDTH 32 0
BBX 11 32 18 -4
BITMAP
0020
0020
0040
0080
0080
0100
0200
0200
0400
0800
0800
1000
2000
2000
4000
8000
8000
4000
2000
2000
1000
0800
0800
0400
0200
0200
0100
0080
0080
0040
0020
0020
ENDCHAR
STARTCHAR 3009
ENCODING 12297
SWIDTH 1920 0
DWIDTH 32 0
BBX 11 32 3 -4
BITMAP
8000
8000
4000
2000
2000
1000
0800
0800
0400
0200
0200
0100
0080
0080
0040
0020
0020
0040
0080
0080
0100
0200
0200
0400
0800
0800
1000
2000
2000
4000
8000
8000
ENDCHAR
STARTCHAR 300A
ENCODING 12298
SWIDTH 1920 0
DWIDTH 32 0
BBX 16 32 13 -4
BITMAP
0021
0021
0042
0084
0084
0108
0210
0210
0420
0840
0840
1080
2100
2100
4200
8400
8400
4200
2100
2100
1080
0840
0840
0420
0210
0210
0108
0084
0084
0042
0021
0021
ENDCHAR
STARTCHAR 300B
ENCODING 12299
SWIDTH 1920 0
DWIDTH 32 0
BBX 16 32 3 -4
BITMAP
8400
8400
4200
2100
2100
1080
0840
0840
0420
0210
0210
0108
0084
0084
0042
0021
0021
0042
0084
0084
0108
0210
0210
0420
0840
0840
1080
2100
2100
4200
8400
8400
ENDCHAR
STARTCHAR 300C
ENCODING 12300
SWIDTH 1920 0
DWIDTH 32 0
BBX 9 28 20 0
BITMAP
FF80
8000
8000
8000
8000
8000
8000
8000
8000
8000
8000
8000
8000
8000
8000
8000
8000
8000
8000
8000
8000
8000
8000
8000
8000
8000
8000
8000
ENDCHAR
STARTCHAR 300D
ENCODING 12301
SWIDTH 1920 0
DWIDTH 32 0
BBX 9 28 3 -4
BITMAP
0080
0080
0080
0080
0080
0080
0080
0080
0080
0080
0080
0080
0080
0080
0080
0080
0080
0080
0080
0080
0080
0080
0080
0080
0080
0080
0080
FF80
ENDCHAR
STARTCHAR 300E
ENCODING 12302
SWIDTH 1920 0
DWIDTH 32 0
BBX 12 28 18 0
BITMAP
FFF0
8010
8010
8010
8FF0
8800
8800
8800
8800
8800
8800
8800
8800
8800
8800
8800
8800
8800
8800
8800
8800
8800
8800
8800
8800
8800
8800
F800
ENDCHAR
STARTCHAR 300F
ENCODING 12303
SWIDTH 1920 0
DWIDTH 32 0
BBX 12 28 2 -4
BITMAP
01F0
0110
0110
0110
0110
0110
0110
0110
0110
0110
0110
0110
0110
0110
0110
0110
0110
0110
0110
0110
0110
0110
0110
FF10
8010
8010
8010
FFF0
ENDCHAR
STARTCHAR 3010
ENCODING 12304
SWIDTH 1920 0
DWIDTH 32 0
BBX 7 32 22 -4
BITMAP
FE
FC
F8
F8
F0
F0
E0
E0
E0
E0
C0
C0
C0
C0
C0
C0
C0
C0
C0
C0
C0
C0
E0
E0
E0
E0
F0
F0
F8
F8
FC
FE
ENDCHAR
STARTCHAR 3011
ENCODING 12305
SWIDTH 1920 0
DWIDTH 32 0
BBX 7 32 3 -4
BITMAP
FE
7E
3E
3E
1E
1E
0E
0E
0E
0E
06
06
06
06
06
06
06
06
06
06
06
06
0E
0E
0E
0E
1E
1E
3E
3E
7E
FE
ENDCHAR
STARTCHAR 3012
ENCODING 12306
SWIDTH 1920 0
DWIDTH 32 0
BBX 26 27 2 -2
BITMAP
FFFFFFC0
FFFFFFC0
FFFFFFC0
00000000
00000000
00000000
00000000
FFFFFFC0
FFFFFFC0
FFFFFFC0
000E0000
000E0000
000E0000
000E0000
000E0000
000E0000
000E0000
000E0000
000E0000
000E0000
000E0000
000E0000
000E0000
000E0000
000E0000
000E0000
000E0000
ENDCHAR
STARTCHAR 3013
ENCODING 12307
SWIDTH 1920 0
DWIDTH 32 0
BBX 24 14 4 5
BITMAP
FFFFFF
FFFFFF
FFFFFF
FFFFFF
FFFFFF
000000
000000
000000
000000
FFFFFF
FFFFFF
FFFFFF
FFFFFF
FFFFFF
ENDCHAR
STARTCHAR 3014
ENCODING 12308
SWIDTH 1920 0
DWIDTH 32 0
BBX 10 32 21 -4
BITMAP
00C0
0300
0C00
3000
C000
8000
8000
8000
8000
8000
8000
8000
8000
8000
8000
8000
8000
8000
8000
8000
8000
8000
8000
8000
8000
8000
8000
C000
3000
0C00
0300
00C0
ENDCHAR
STARTCHAR 3015
ENCODING 12309
SWIDTH 1920 0
DWIDTH 32 0
BBX 10 32 1 -4
BITMAP
C000
3000
0C00
0300
00C0
0040
0040
0040
0040
0040
0040
0040
0040
0040
0040
0040
0040
0040
0040
0040
0040
0040
0040
0040
0040
0040
0040
00C0
0300
0C00
3000
C000
ENDCHAR
STARTCHAR 301C
ENCODING 12316
SWIDTH 1920 0
DWIDTH 32 0
BBX 32 8 0 8
BITMAP
03E00000
0E780000
181E0001
20070002
4001C004
8000F018
00003E70
00000FC0
ENDCHAR
STARTCHAR 301D
ENCODING 12317
SWIDTH 1920 0
DWIDTH 32 0
BBX 13 7 17 20
BITMAP
1C38
1C38
1830
3060
2040
4080
8100
ENDCHAR
STARTCHAR 301F
ENCODING 12319
SWIDTH 1920 0
DWIDTH 32 0
BBX 13 7 1 -2
BITMAP
1C38
1C38
1830
3060
2040
4080
8100
ENDCHAR
STARTCHAR 3041
ENCODING 12353
SWIDTH 1920 0
DWIDTH 32 0
BBX 21 24 6 -3
BITMAP
018000
00C000
00E000
00C000
00C700
40BE00
3FF000
1E8000
008000
018000
017F80
0190E0
072030
192030
314018
618018
418018
C30018
C78030
9D8030
F88060
6000C0
000180
000E00
ENDCHAR
STARTCHAR 3042
ENCODING 12354
SWIDTH 1920 0
DWIDTH 32 0
BBX 26 30 3 -3
BITMAP
00300000
00180000
001C0000
00182000
00307000
1031F000
0FFFC000
03FE0000
00300000
00300000
0023F800
003F1E00
00710700
00E20380
03460180
066401C0
0C6C00C0
186800C0
307800C0
307000C0
606000C0
60F001C0
C1B00180
C7300380
DE000300
F8000600
60000C00
00003800
0000E000
000F0000
ENDCHAR
STARTCHAR 3043
ENCODING 12355
SWIDTH 1920 0
DWIDTH 32 0
BBX 21 17 6 -1
BITMAP
800000
400600
600180
7000C0
600060
600030
600030
400030
400018
420018
620018
240000
340000
1C0000
1E0000
0E0000
060000
ENDCHAR
STARTCHAR 3044
ENCODING 12356
SWIDTH 1920 0
DWIDTH 32 0
BBX 24 21 4 1
BITMAP
800000
E00000
700000
600000
600000
6000E0
400038
C0000C
C0000E
C00006
C00007
C00003
C08003
410002
610000
630000
320000
3A0000
1E0000
0F0000
060000
ENDCHAR
STARTCHAR 3045
ENCODING 12357
SWIDTH 1920 0
DWIDTH 32 0
BBX 14 23 8 -3
BITMAP
0800
0600
03C0
01C0
0200
0000
0000
03E0
9E38
7818
300C
000C
000C
000C
000C
000C
0018
0018
0018
0030
0060
00C0
0700
ENDCHAR
STARTCHAR 3046
ENCODING 12358
SWIDTH 1920 0
DWIDTH 32 0
BBX 17 31 6 -3
BITMAP
080000
060000
03F000
00F800
018000
020000
040000
000000
000000
00F800
878600
DE0300
7C0300
700180
000180
000180
000180
000180
000180
000180
000380
000300
000300
000600
000600
000C00
001800
003000
006000
018000
060000
ENDCHAR
STARTCHAR 3047
ENCODING 12359
SWIDTH 1920 0
DWIDTH 32 0
BBX 19 22 7 -2
BITMAP
020000
01C000
00F800
013800
020000
000000
003000
21D800
1F3C00
0E3000
006000
00C000
018000
030000
020000
078000
0CC000
184000
304000
706000
E07FE0
C01FE0
ENDCHAR
STARTCHAR 3048
ENCODING 12360
SWIDTH 1920 0
DWIDTH 32 0
BBX 21 28 6 -1
BITMAP
020000
010000
01F000
00F800
019000
020000
000000
000000
000000
001C00
10FE00
1F8E00
0F1C00
043800
003000
006000
00C000
018000
030000
07C000
0E6000
1C2000
382000
703000
603000
E03838
C01FF8
400FF0
ENDCHAR
STARTCHAR 3049
ENCODING 12361
SWIDTH 1920 0
DWIDTH 32 0
BBX 22 23 5 -3
BITMAP
060000
030000
038000
034000
0321E0
033038
02701C
83E01C
7F8020
3A0000
020000
020FC0
023060
02C030
030018
060018
0E1018
1A2018
7A2030
7218E0
0E0F80
060000
060000
ENDCHAR
STARTCHAR 304A
ENCODING 12362
SWIDTH 1920 0
DWIDTH 32 0
BBX 27 24 3 0
BITMAP
07000000
0B800000
01800000
01800000
01000000
01300380
01380FE0
01F810E0
83E000E0
7F800100
3D800000
01800000
0183FC00
019E0E00
01F00600
01C00300
03800300
07820300
9D840300
F9840600
77840600
23861C00
0303F800
0001E000
ENDCHAR
STARTCHAR 304B
ENCODING 12363
SWIDTH 1920 0
DWIDTH 32 0
BBX 29 24 1 0
BITMAP
00C00000
03E00000
00E00000
00C00000
00C00000
00800600
00FE0180
83E300E0
CF818070
7D818030
71008038
010080F8
03008370
02018020
06018000
06018000
04030000
0C030000
1C030000
18060000
318E0000
70DC0000
60780000
00700000
ENDCHAR
STARTCHAR 304C
ENCODING 12364
SWIDTH 1920 0
DWIDTH 32 0
BBX 30 28 1 0
BITMAP
00000040
00000030
00000018
0000021C
00C0018C
03E000C0
00E000E0
00C00060
00C00000
00800600
00FE0180
83E300E0
CF818070
7D818030
71008038
010080F8
03008370
02018020
06018000
06018000
04030000
0C030000
1C030000
18060000
318E0000
70DC0000
60780000
00700000
ENDCHAR
STARTCHAR 304D
ENCODING 12365
SWIDTH 1920 0
DWIDTH 32 0
BBX 18 29 7 -2
BITMAP
1C0000
2E0000
060000
060000
031000
21B800
1FF000
0FC000
006280
0021C0
803380
401F00
7FFC00
1FD800
000400
000600
000200
000300
000380
07E180
183980
300F80
600700
400000
400000
600000
307000
3FF000
0FE000
ENDCHAR
STARTCHAR 304E
ENCODING 12366
SWIDTH 1920 0
DWIDTH 32 0
BBX 24 29 6 -2
BITMAP
1C0010
2E000C
060006
060087
031063
21B830
1FF038
0FC018
006280
0021C0
803380
401F00
7FFC00
1FD800
000400
000600
000200
000300
000380
07E180
183980
300F80
600700
400000
400000
600000
307000
3FF000
0FE000
ENDCHAR
STARTCHAR 304F
ENCODING 12367
SWIDTH 1920 0
DWIDTH 32 0
BBX 11 29 8 -2
BITMAP
0300
01C0
00E0
00E0
01C0
0180
0380
0300
0600
0C00
1800
3000
6000
4000
C000
4000
6000
3000
1800
0C00
0E00
0700
0300
0180
01C0
00C0
00E0
0060
0060
ENDCHAR
STARTCHAR 3050
ENCODING 12368
SWIDTH 1920 0
DWIDTH 32 0
BBX 20 29 8 -2
BITMAP
030000
01C000
00E000
00E100
01C0C0
018060
038870
030630
060300
0C0380
180180
300000
600000
400000
C00000
400000
600000
300000
180000
0C0000
0E0000
070000
030000
018000
01C000
00C000
00E000
006000
006000
ENDCHAR
STARTCHAR 3051
ENCODING 12369
SWIDTH 1920 0
DWIDTH 32 0
BBX 23 27 5 -2
BITMAP
8001C0
400060
600070
600060
700060
700066
60006E
60107E
600FF8
6003E0
400060
C00060
C00060
840060
880060
880060
980060
900060
D00060
F000C0
E000C0
6000C0
700180
380180
380300
180200
000C00
ENDCHAR
STARTCHAR 3052
ENCODING 12370
SWIDTH 1920 0
DWIDTH 32 0
BBX 29 30 3 -2
BITMAP
00000080
00000060
00000830
8001C638
40006318
60007380
60006180
70006000
70006600
60006E00
60107E00
600FF800
6003E000
40006000
C0006000
C0006000
84006000
88006000
88006000
98006000
90006000
D0006000
F000C000
E000C000
6000C000
70018000
38018000
38030000
18020000
000C0000
ENDCHAR
STARTCHAR 3053
ENCODING 12371
SWIDTH 1920 0
DWIDTH 32 0
BBX 19 22 6 1
BITMAP
1FF800
07FE00
003E00
006000
008000
000000
000000
000000
000000
000000
000000
000000
000000
000000
000000
800000
800000
400000
600000
3800E0
1FFFE0
07FFC0
ENDCHAR
STARTCHAR 3054
ENCODING 12372
SWIDTH 1920 0
DWIDTH 32 0
BBX 24 26 6 1
BITMAP
000010
00000C
000006
000087
1FF863
07FE30
003E38
006018
008000
000000
000000
000000
000000
000000
000000
000000
000000
000000
000000
800000
800000
400000
600000
3800E0
1FFFE0
07FFC0
ENDCHAR
STARTCHAR 3055
ENCODING 12373
SWIDTH 1920 0
DWIDTH 32 0
BBX 21 26 5 0
BITMAP
038000
072100
071F80
038780
01C700
007E00
803C00
41FC00
7FC600
3F0300
000180
0000C0
000060
000070
000030
03FC38
0E07B8
1801F8
100070
300000
300000
300000
180000
1E0700
0FFF00
03FE00
ENDCHAR
STARTCHAR 3056
ENCODING 12374
SWIDTH 1920 0
DWIDTH 32 0
BBX 26 27 5 0
BITMAP
00000400
03800300
07210180
071FA1C0
038798C0
01C70C00
007E0E00
803C0600
41FC0000
7FC60000
3F030000
00018000
0000C000
00006000
00007000
00003000
03FC3800
0E07B800
1801F800
10007000
30000000
30000000
30000000
18000000
1E070000
0FFF0000
03FE0000
ENDCHAR
STARTCHAR 3057
ENCODING 12375
SWIDTH 1920 0
DWIDTH 32 0
BBX 21 28 6 -1
BITMAP
C00000
600000
700000
700000
700000
700000
600000
600000
600000
600000
600000
C00000
C00000
C00000
C00000
C00000
C00000
C00008
C00008
C00010
C00030
600060
6000C0
700180
380700
1E1E00
0FF800
03E000
ENDCHAR
STARTCHAR 3058
ENCODING 12376
SWIDTH 1920 0
DWIDTH 32 0
BBX 21 28 6 -1
BITMAP
C00000
600000
700400
700300
700180
7021C0
6018C0
600C00
600E00
600600
600000
C00000
C00000
C00000
C00000
C00000
C00000
C00008
C00008
C00010
C00030
600060
6000C0
700180
380700
1E1E00
0FF800
03E000
ENDCHAR
STARTCHAR 3059
ENCODING 12377
SWIDTH 1920 0
DWIDTH 32 0
BBX 28 30 1 -3
BITMAP
00030000
00018000
0001C000
0001C000
0001B000
00018C00
000187F0
801FFFF0
FFF98000
7E010000
10010000
00010000
00070000
000F8000
0019C000
0010C000
0030C000
0020C000
0020C000
0030C000
0019C000
001FC000
0006C000
00018000
00018000
00030000
00030000
00060000
000C0000
00100000
ENDCHAR
STARTCHAR 305A
ENCODING 12378
SWIDTH 1920 0
DWIDTH 32 0
BBX 31 31 1 -3
BITMAP
00000010
0003010C
000180C6
0001C066
0001C072
0001B030
00018C00
000187F0
801FFFF0
FFF98000
7E010000
10010000
00010000
00070000
000F8000
0019C000
0010C000
0030C000
0020C000
0020C000
0030C000
0019C000
001FC000
0006C000
00018000
00018000
00030000
00030000
00060000
000C0000
00100000
ENDCHAR
STARTCHAR 305B
ENCODING 12379
SWIDTH 1920 0
DWIDTH 32 0
BBX 29 24 1 1
BITMAP
00007000
00003800
01001C00
07801800
01C01900
00E018C0
00C01878
00C01FF8
00C7F818
00FE3000
87E03000
FFC03000
7CC03000
30C07000
00C3E000
00C1E000
00C0C000
00C08000
00C00000
00C00000
00C00000
00601E00
007FFE00
001FF800
ENDCHAR
STARTCHAR 305C
ENCODING 12380
SWIDTH 1920 0
DWIDTH 32 0
BBX 31 27 1 1
BITMAP
00000010
0000000C
00000006
00007086
00003862
01001C30
07801838
01C01918
00E018C0
00C01878
00C01FF8
00C7F818
00FE3000
87E03000
FFC03000
7CC03000
30C07000
00C3E000
00C1E000
00C0C000
00C08000
00C00000
00C00000
00C00000
00601E00
007FFE00
001FF800
ENDCHAR
STARTCHAR 305D
ENCODING 12381
SWIDTH 1920 0
DWIDTH 32 0
BBX 19 29 6 -2
BITMAP
003000
11D800
0F8C00
0E1C00
043C00
007000
006000
00C000
018000
030000
060000
040180
080FE0
107FE0
23E000
6E8000
F90000
F20000
C20000
040000
040000
040000
040000
060000
030000
030000
01E000
00FE00
003C00
ENDCHAR
STARTCHAR 305E
ENCODING 12382
SWIDTH 1920 0
DWIDTH 32 0
BBX 25 29 5 -2
BITMAP
00300000
11D80000
0F8C0800
0E1C0600
043C0300
00704380
00603180
00C01800
01801C00
03000C00
06000000
04018000
080FE000
107FE000
23E00000
6E800000
F9000000
F2000000
C2000000
04000000
04000000
04000000
04000000
06000000
03000000
03000000
01E00000
00FE0000
003C0000
ENDCHAR
STARTCHAR 305F
ENCODING 12383
SWIDTH 1920 0
DWIDTH 32 0
BBX 27 28 2 -1
BITMAP
01C00000
00E00000
00E00000
00D00000
00CC0000
80DC0000
61F80000
3FE00E00
1F807F80
018001C0
010000E0
030001E0
03000200
02000000
06000000
06000000
06000000
0C000000
0C000000
0C000000
18040000
18040000
38040000
30020000
70030000
7001C000
2000FF80
00003F80
ENDCHAR
STARTCHAR 3060
ENCODING 12384
SWIDTH 1920 0
DWIDTH 32 0
BBX 31 29 1 -1
BITMAP
00000020
01C00018
00E0000C
00E0010E
00D000C6
00CC0060
80DC0070
61F80030
3FE00E00
1F807F80
018001C0
010000E0
030001E0
03000200
02000000
06000000
06000000
06000000
0C000000
0C000000
0C000000
18040000
18040000
38040000
30020000
70030000
7001C000
2000FF80
00003F80
ENDCHAR
STARTCHAR 3061
ENCODING 12385
SWIDTH 1920 0
DWIDTH 32 0
BBX 22 29 4 -2
BITMAP
070000
038000
01C000
018000
01A000
019800
811C00
7FFC00
1FF000
030000
030000
020000
020000
060000
060000
0607C0
061870
066018
0CC018
0D800C
0F000C
06000C
06000C
000018
000018
000030
0000E0
000380
001C00
ENDCHAR
STARTCHAR 3062
ENCODING 12386
SWIDTH 1920 0
DWIDTH 32 0
BBX 24 29 4 -2
BITMAP
070000
038000
01C000
018000
01A010
01980C
811C06
7FFC87
1FF063
030030
030038
020018
020000
060000
060000
0607C0
061870
066018
0CC018
0D800C
0F000C
06000C
06000C
000018
000018
000030
0000E0
000380
001C00
ENDCHAR
STARTCHAR 3063
ENCODING 12387
SWIDTH 1920 0
DWIDTH 32 0
BBX 22 14 5 1
BITMAP
000F80
007860
01E030
8F8018
FE001C
78000C
00000C
00000C
000018
000018
000030
0000E0
000180
000E00
ENDCHAR
STARTCHAR 3064
ENCODING 12388
SWIDTH 1920 0
DWIDTH 32 0
BBX 28 19 1 2
BITMAP
0000FC00
00078700
001C0180
007000C0
81C00060
CF800070
7E000030
38000030
00000030
00000030
00000030
00000070
00000060
000000E0
000001C0
00000380
00000E00
00003800
0003C000
ENDCHAR
STARTCHAR 3065
ENCODING 12389
SWIDTH 1920 0
DWIDTH 32 0
BBX 31 26 1 1
BITMAP
00000020
00000018
0000000C
0000010E
000000C6
00000060
00000070
0000FC30
00078700
001C0180
007000C0
81C00060
CF800070
7E000030
38000030
00000030
00000030
00000030
00000070
00000060
000000E0
000001C0
00000380
00000E00
00003800
0003C000
ENDCHAR
STARTCHAR 3066
ENCODING 12390
SWIDTH 1920 0
DWIDTH 32 0
BBX 25 26 3 -1
BITMAP
00000F00
00007F80
0007E180
003C8000
81E10000
C7820000
7E060000
78040000
200C0000
00080000
00180000
00180000
00100000
00300000
00300000
00300000
00300000
00300000
00300000
00300000
00300000
00300000
00180000
001E1800
000FF800
0003F000
ENDCHAR
STARTCHAR 3067
ENCODING 12391
SWIDTH 1920 0
DWIDTH 32 0
BBX 30 26 2 -1
BITMAP
00000F00
00007F80
0007E180
003C8000
81E10040
C7820030
7E060018
7804021C
200C018C
000800C0
001800E0
00180060
00100000
00300000
00300000
00300000
00300000
00300000
00300000
00300000
00300000
00300000
00180000
001E1800
000FF800
0003F000
ENDCHAR
STARTCHAR 3068
ENCODING 12392
SWIDTH 1920 0
DWIDTH 32 0
BBX 13 29 9 -2
BITMAP
3000
1800
1C00
1C00
1800
1800
1800
3000
3000
3000
3000
1000
18F0
1BF0
0FC0
0E00
1800
3000
6000
4000
C000
8000
8000
8000
C000
C000
7018
3FF8
0FF0
ENDCHAR
STARTCHAR 3069
ENCODING 12393
SWIDTH 1920 0
DWIDTH 32 0
BBX 19 29 9 -2
BITMAP
300000
180000
1C0200
1C0180
1800C0
1810E0
180C60
300600
300700
300300
300000
100000
18F000
1BF000
0FC000
0E0000
180000
300000
600000
400000
C00000
800000
800000
800000
C00000
C00000
701800
3FF800
0FF000
ENDCHAR
STARTCHAR 306A
ENCODING 12394
SWIDTH 1920 0
DWIDTH 32 0
BBX 24 29 3 -2
BITMAP
038000
01C000
019000
41B800
61F800
3FE000
1F8018
03000E
020007
060007
06003F
0400C3
0C0080
0C0100
180100
180100
300100
300100
600100
E00100
C00180
000180
00FF80
0183E0
0301B8
03019C
01838C
01FF00
007C00
ENDCHAR
STARTCHAR 306B
ENCODING 12395
SWIDTH 1920 0
DWIDTH 32 0
BBX 24 24 4 0
BITMAP
400000
200000
302018
301FFC
3803FC
380000
300000
300000
200000
600000
600000
400000
440000
C40000
C80000
C80000
C80000
D80000
F00000
702000
701803
380FFF
3803FE
180000
ENDCHAR
STARTCHAR 306C
ENCODING 12396
SWIDTH 1920 0
DWIDTH 32 0
BBX 26 23 2 1
BITMAP
02000000
01000000
0183E000
00CC3800
00F00C00
00600600
41C00600
43600700
46600300
64600300
28600300
38C00300
38C00300
28C00300
6D800300
47800700
43800700
C3C1E600
C7433E00
86041F00
CE041B80
F807F1C0
7001C1C0
ENDCHAR
STARTCHAR 306D
ENCODING 12397
SWIDTH 1920 0
DWIDTH 32 0
BBX 27 29 3 -2
BITMAP
03800000
01C00000
01C00000
01C00000
01800000
01800000
01800000
0180F800
01F30E00
07F40300
1F480300
3D700300
71E00180
41C00180
41800180
23000180
23000180
17000180
1D000180
1D000180
39000180
35000180
7503F380
67063F00
E3840700
63840FC0
0387FCE0
0183F060
01000000
ENDCHAR
STARTCHAR 306E
ENCODING 12398
SWIDTH 1920 0
DWIDTH 32 0
BBX 27 25 3 -1
BITMAP
001FC000
00E83800
03040E00
06040300
0C040180
18040180
300400C0
200400C0
600C0060
60080060
C0180060
C0180060
C0300060
C0300060
C0600060
C06000E0
C0C000C0
C1C000C0
E3800180
7F000180
7E000300
18000600
00001C00
00007000
00038000
ENDCHAR
STARTCHAR 306F
ENCODING 12399
SWIDTH 1920 0
DWIDTH 32 0
BBX 25 27 4 -2
BITMAP
0001C000
C000E000
60007000
30006800
38006400
38006300
30206700
30107E00
601FFC00
600FE000
60006000
40006000
40006000
C0006000
80006000
88006000
88006000
90006000
90006000
D01FF000
D0207800
E0406E00
E0406700
6060E380
703FC180
701F8000
30000000
ENDCHAR
STARTCHAR 3070
ENCODING 12400
SWIDTH 1920 0
DWIDTH 32 0
BBX 29 30 3 -2
BITMAP
00000080
00000060
00000030
0001C438
C000E318
60007180
300069C0
380060C0
38006300
30206700
30107E00
601FFC00
600FE000
60006000
40006000
40006000
C0006000
80006000
88006000
88006000
90006000
90006000
D01FF000
D0207800
E0406E00
E0406700
6060E380
703FC180
701F8000
30000000
ENDCHAR
STARTCHAR 3071
ENCODING 12401
SWIDTH 1920 0
DWIDTH 32 0
BBX 28 30 3 -2
BITMAP
000001C0
00000220
00000410
0001C410
C000E410
60007220
300069C0
38006000
38006300
30206700
30107E00
601FFC00
600FE000
60006000
40006000
40006000
C0006000
80006000
88006000
88006000
90006000
90006000
D01FF000
D0207800
E0406E00
E0406700
6060E380
703FC180
701F8000
30000000
ENDCHAR
STARTCHAR 3072
ENCODING 12402
SWIDTH 1920 0
DWIDTH 32 0
BBX 26 27 4 -1
BITMAP
0000C000
0001C000
0180C000
43C0C000
7FC0C000
7E00C000
2C006000
08006000
18007000
10005000
30005800
20004C00
60004700
600043C0
400041C0
C0008000
C0008000
C0008000
C0008000
C0010000
C0010000
C0030000
E0060000
600C0000
70380000
3FF00000
0FC00000
ENDCHAR
STARTCHAR 3073
ENCODING 12403
SWIDTH 1920 0
DWIDTH 32 0
BBX 27 29 4 -1
BITMAP
00000200
00000180
0000C0C0
0001D0E0
0180CC60
43C0C600
7FC0C700
7E00C300
2C006000
08006000
18007000
10005000
30005800
20004C00
60004700
600043C0
400041C0
C0008000
C0008000
C0008000
C0008000
C0010000
C0010000
C0030000
E0060000
600C0000
70380000
3FF00000
0FC00000
ENDCHAR
STARTCHAR 3074
ENCODING 12404
SWIDTH 1920 0
DWIDTH 32 0
BBX 27 28 4 -1
BITMAP
00000380
0000C440
0001C820
0180C820
43C0C820
7FC0C440
7E00C380
2C006000
08006000
18007000
10005000
30005800
20004C00
60004700
600043C0
400041C0
C0008000
C0008000
C0008000
C0008000
C0010000
C0010000
C0030000
E0060000
600C0000
70380000
3FF00000
0FC00000
ENDCHAR
STARTCHAR 3075
ENCODING 12405
SWIDTH 1920 0
DWIDTH 32 0
BBX 28 23 1 2
BITMAP
00020000
00030000
00018000
0001E000
0001E000
0002C000
00040000
00080000
00100000
00100000
00080000
000C0000
00060000
00030000
0007FE00
00198780
0061C1C0
0180C0E0
0700C060
0C80C070
B861C030
F03F8030
600F0000
ENDCHAR
STARTCHAR 3076
ENCODING 12406
SWIDTH 1920 0
DWIDTH 32 0
BBX 28 23 1 2
BITMAP
00020100
000300C0
00018060
0001E870
0001E630
0002C300
00040380
00080180
00100000
00100000
00080000
000C0000
00060000
00030000
0007FE00
00198780
0061C1C0
0180C0E0
0700C060
0C80C070
B861C030
F03F8030
600F0000
ENDCHAR
STARTCHAR 3077
ENCODING 12407
SWIDTH 1920 0
DWIDTH 32 0
BBX 29 23 1 2
BITMAP
000200E0
00030110
00018208
0001E208
0001E208
0002C110
000400E0
00080000
00100000
00100000
00080000
000C0000
00060000
00030000
0007FE00
00198780
0061C1C0
0180C0E0
0700C060
0C80C070
B861C030
F03F8030
600F0000
ENDCHAR
STARTCHAR 3078
ENCODING 12408
SWIDTH 1920 0
DWIDTH 32 0
BBX 31 15 1 5
BITMAP
00380000
006C0000
00C60000
01830000
03018000
0600C000
9C007000
FC003800
78000E00
30000700
000001C0
000000F0
0000007E
0000001E
00000004
ENDCHAR
STARTCHAR 3079
ENCODING 12409
SWIDTH 1920 0
DWIDTH 32 0
BBX 31 20 1 5
BITMAP
00000200
00000180
000000C0
000010E0
00000C60
00380600
006C0700
00C60300
01830000
03018000
0600C000
9C007000
FC003800
78000E00
30000700
000001C0
000000F0
0000007E
0000001E
00000004
ENDCHAR
STARTCHAR 307A
ENCODING 12410
SWIDTH 1920 0
DWIDTH 32 0
BBX 31 20 1 5
BITMAP
00000700
00000880
00001040
00001040
00001040
00380880
006C0700
00C60000
01830000
03018000
0600C000
9C007000
FC003800
78000E00
30000700
000001C0
000000F0
0000007E
0000001E
00000004
ENDCHAR
STARTCHAR 307B
ENCODING 12411
SWIDTH 1920 0
DWIDTH 32 0
BBX 26 27 3 -1
BITMAP
00001C00
3004FC00
1803F800
18000000
18000000
1800E000
38007000
30007000
30006180
60006780
60107F00
600FFC00
4003F000
40002000
C0002000
88002000
88002000
90003000
90003000
D0007000
F007FC00
600C3F00
70103780
701031C0
3818F0C0
380FE000
18078000
ENDCHAR
STARTCHAR 307C
ENCODING 12412
SWIDTH 1920 0
DWIDTH 32 0
BBX 30 29 2 -1
BITMAP
00000040
00000030
00001818
3004FA1C
1803F18C
180000C0
180000E0
1800E060
38007000
30007000
30006180
60006780
60107F00
600FFC00
4003F000
40002000
C0002000
88002000
88002000
90003000
90003000
D0007000
F007FC00
600C3F00
70103780
701031C0
3818F0C0
380FE000
18078000
ENDCHAR
STARTCHAR 307D
ENCODING 12413
SWIDTH 1920 0
DWIDTH 32 0
BBX 29 28 2 -1
BITMAP
000000E0
00001910
3004FA08
1803F208
18000208
18000110
1800E0E0
38007000
30007000
30006180
60006780
60107F00
600FFC00
4003F000
40002000
C0002000
88002000
88002000
90003000
90003000
D0007000
F007FC00
600C3F00
70103780
701031C0
3818F0C0
380FE000
18078000
ENDCHAR
STARTCHAR 307E
ENCODING 12414
SWIDTH 1920 0
DWIDTH 32 0
BBX 19 30 5 -2
BITMAP
003800
001C00
001C00
001800
001800
021700
03FF00
01FE00
001000
001000
001100
0010E0
8011E0
6017C0
3FFF00
0FF800
001000
001000
001000
001000
001800
001800
0FF800
187E00
301F80
201BC0
3030E0
1CF060
0FE000
030000
ENDCHAR
STARTCHAR 307F
ENCODING 12415
SWIDTH 1920 0
DWIDTH 32 0
BBX 28 25 2 0
BITMAP
000F0000
047F8000
07E38000
03C70000
010E0000
000C0000
00180000
00180000
00301800
00200C00
00600E00
00400600
01FF0600
0783F600
1B007E00
33001F00
66000FC0
460019E0
CC0018F0
8C003070
98006020
F800C000
60018000
00030000
000C0000
ENDCHAR
STARTCHAR 3080
ENCODING 12416
SWIDTH 1920 0
DWIDTH 32 0
BBX 27 27 3 -1
BITMAP
0E000000
07000000
03400000
03200000
82700000
C6E00000
7FC00000
3F000000
02000F80
020010C0
0E001060
1F001060
130011E0
238010E0
23801000
23001000
23001000
23001000
36001000
3E001000
1C001000
04001800
04001800
04003800
0700F800
03FFF000
01FF8000
ENDCHAR
STARTCHAR 3081
ENCODING 12417
SWIDTH 1920 0
DWIDTH 32 0
BBX 25 26 3 0
BITMAP
000E0000
00070000
00038000
40030000
20030000
30070000
183FF000
18E63C00
0F0C0E00
0E0C0700
0C080300
1E180380
33100180
33B00180
61F00180
60E00180
60F80180
C0DC0380
C18C0300
C3000300
7E000600
78000C00
00003800
00006000
00038000
001C0000
ENDCHAR
STARTCHAR 3082
ENCODING 12418
SWIDTH 1920 0
DWIDTH 32 0
BBX 16 29 8 -2
BITMAP
0C00
0600
0700
0600
0600
4600
3600
1F00
0F80
0D80
1800
3800
4800
9800
9020
5010
7008
398C
1F86
1706
1002
1003
1003
1803
1803
0C06
0E0E
07FC
01F0
ENDCHAR
STARTCHAR 3083
ENCODING 12419
SWIDTH 1920 0
DWIDTH 32 0
BBX 24 23 5 -2
BITMAP
000800
000C00
07FC00
083C00
0801F8
080E0C
0C3806
04E006
038007
8F0007
FD040E
F883FC
20C0F8
00C000
006000
006000
003000
003000
003000
003800
001800
001800
001800
ENDCHAR
STARTCHAR 3084
ENCODING 12420
SWIDTH 1920 0
DWIDTH 32 0
BBX 28 28 1 -2
BITMAP
00040000
00020000
00030000
07C38000
0C3F0000
080E3F00
0C01E1C0
0C070060
061C0060
03700030
01E00030
83800030
CF800030
7CC10070
7860C0E0
30303FC0
00300F00
00180000
00180000
000C0000
000C0000
000E0000
00060000
00060000
00070000
00070000
00030000
00020000
ENDCHAR
STARTCHAR 3085
ENCODING 12421
SWIDTH 1920 0
DWIDTH 32 0
BBX 21 21 6 -4
BITMAP
003000
E04800
304C00
38BF80
30CC60
308630
318630
228618
248618
648618
688618
688618
708C10
704C30
3048E0
303F80
001800
003000
002000
004000
008000
ENDCHAR
STARTCHAR 3086
ENCODING 12422
SWIDTH 1920 0
DWIDTH 32 0
BBX 27 26 3 -2
BITMAP
000F0000
E013F000
7027CE00
7038C300
7020E180
60C060C0
60C060C0
61406060
E2406060
C2406060
C4406060
C4406060
CC406060
48206060
483060C0
6810E0C0
6818C180
3C0CC700
3C07FE00
08019000
00018000
00030000
00020000
00040000
00080000
00300000
ENDCHAR
STARTCHAR 3087
ENCODING 12423
SWIDTH 1920 0
DWIDTH 32 0
BBX 15 23 7 -1
BITMAP
0300
0180
01C0
0180
0180
018E
01FE
0180
0180
0180
0080
0080
0080
0080
00C0
00C0
00C0
7FE0
80F8
80DC
818E
7F86
1E00
ENDCHAR
STARTCHAR 3088
ENCODING 12424
SWIDTH 1920 0
DWIDTH 32 0
BBX 18 28 5 -1
BITMAP
01C000
00E000
007000
007000
006000
006000
006000
004180
0047C0
007F00
004000
004000
004000
004000
006000
006000
006000
002000
002000
003000
0FB000
3BF800
407E00
803780
8073C0
C0E0C0
7FC000
1F0000
ENDCHAR
STARTCHAR 3089
ENCODING 12425
SWIDTH 1920 0
DWIDTH 32 0
BBX 18 29 7 -2
BITMAP
020000
018000
00C000
00E000
1FE000
20C000
400000
400000
600000
600000
600000
600000
C00000
C00000
C00000
C00000
C07C00
C1C700
C70180
CC0180
F800C0
F000C0
6000C0
0000C0
000180
000380
000700
001C00
01E000
ENDCHAR
STARTCHAR 308A
ENCODING 12426
SWIDTH 1920 0
DWIDTH 32 0
BBX 13 29 9 -2
BITMAP
4000
2000
2800
3000
3000
30C0
63E0
6630
6830
D018
D018
E018
E018
C018
C018
C018
C018
E018
6018
6030
0030
0030
0060
0060
00C0
0180
0300
0C00
3000
ENDCHAR
STARTCHAR 308B
ENCODING 12427
SWIDTH 1920 0
DWIDTH 32 0
BBX 19 25 6 0
BITMAP
007000
01D800
271C00
3E3800
1C3000
086000
00C000
018000
010000
030000
060000
047E00
0D8380
1E00C0
3800C0
300060
600060
E00060
C00060
C3C0E0
0660C0
0631C0
030B80
03FF00
00FC00
ENDCHAR
STARTCHAR 308C
ENCODING 12428
SWIDTH 1920 0
DWIDTH 32 0
BBX 30 27 2 -1
BITMAP
0E000000
07000000
03800000
03800000
0300F000
03039800
03060C00
03CC0C00
0FD00C00
3F200C00
73C00C00
C3800C00
C7000C00
46001800
4E001800
2E001800
3A001804
1A001804
32003808
62003818
72001830
EA001CE0
C7000FC0
C7000300
03000000
07000000
06000000
ENDCHAR
STARTCHAR 308D
ENCODING 12429
SWIDTH 1920 0
DWIDTH 32 0
BBX 24 27 4 -2
BITMAP
000C00
007F00
11E700
1F8E00
0F0C00
061C00
001800
003000
006000
00C000
008000
018FF0
03303C
02C00E
070006
0E0007
1C0003
380003
300007
600006
E00006
C0000C
C00018
000030
0000C0
000300
000C00
ENDCHAR
STARTCHAR 308E
ENCODING 12430
SWIDTH 1920 0
DWIDTH 32 0
BBX 21 24 6 -3
BITMAP
0C0000
060000
070000
070000
060000
060000
060000
040000
060780
0F18E0
BE6030
74C030
2D8018
2F0018
160018
1C0018
340030
240030
740060
D400C0
CC0180
0C0E00
0C0000
0C0000
ENDCHAR
STARTCHAR 308F
ENCODING 12431
SWIDTH 1920 0
DWIDTH 32 0
BBX 25 28 3 -1
BITMAP
06000000
03800000
03C00000
01C00000
01800000
01800000
01800000
01000000
01000000
01C00000
03C3F000
0F8E3C00
1DB00E00
F9600700
E3C00300
43800380
27000180
1F000180
1B000180
1B000180
3B000180
67000300
67000300
C7000600
C3000C00
03001800
03807000
03038000
ENDCHAR
STARTCHAR 3090
ENCODING 12432
SWIDTH 1920 0
DWIDTH 32 0
BBX 26 25 3 0
BITMAP
003E0000
08CF0000
0F860000
0F0C0000
040C0000
00180000
0011F800
003E1E00
00300700
00600300
01C00180
03400180
0EC001C0
1C8000C0
398000C0
618000C0
810001C0
83000180
83000180
C6000380
660E0300
6E1B8600
3C10CC00
1C187800
000FC000
ENDCHAR
STARTCHAR 3091
ENCODING 12433
SWIDTH 1920 0
DWIDTH 32 0
BBX 25 29 3 -3
BITMAP
000F0000
047B8000
03E78000
03CF0000
010C0000
00180000
00300000
0027C000
00587000
00E03800
01C01800
03801C00
03801800
07303800
07487000
0278E000
003F8000
00200000
00400000
00800000
01800000
0300F800
06030E00
0F860700
1CEC0300
303C0380
70380F80
E0381300
60180000
ENDCHAR
STARTCHAR 3092
ENCODING 12434
SWIDTH 1920 0
DWIDTH 32 0
BBX 24 29 4 -2
BITMAP
01C000
00E000
00C800
40D800
3FF800
1FE000
018000
010008
03003E
020047
060083
0C010F
0BE23E
1E3470
3839C0
701F00
E01C00
603800
007800
009800
019800
031800
021000
060000
040000
060000
0300E0
03FFE0
00FF80
ENDCHAR
STARTCHAR 3093
ENCODING 12435
SWIDTH 1920 0
DWIDTH 32 0
BBX 26 28 4 -3
BITMAP
00200000
00300000
00180000
001C0000
001C0000
00380000
00700000
00600000
00C00000
01800000
01800000
03000000
06000000
047C0000
0D860000
0A060000
14030000
38030000
30030000
20030000
60030040
60030040
E0030080
C0030180
C0030300
C0038E00
C001FC00
0000F000
ENDCHAR
STARTCHAR 309B
ENCODING 12443
SWIDTH 1920 0
DWIDTH 32 0
BBX 9 7 1 19
BITMAP
0800
0600
8300
6180
3180
1800
1800
ENDCHAR
STARTCHAR 309C
ENCODING 12444
SWIDTH 1920 0
DWIDTH 32 0
BBX 6 6 1 20
BITMAP
30
48
84
84
48
30
ENDCHAR
STARTCHAR 309D
ENCODING 12445
SWIDTH 1920 0
DWIDTH 32 0
BBX 11 13 10 5
BITMAP
8000
4000
3000
1C00
0F00
0380
01C0
00E0
01E0
0300
0C00
1000
2000
ENDCHAR
STARTCHAR 309E
ENCODING 12446
SWIDTH 1920 0
DWIDTH 32 0
BBX 16 18 10 5
BITMAP
0010
000C
0106
00C3
0063
8030
4030
3000
1C00
0F00
0380
01C0
00E0
01E0
0300
0C00
1000
2000
ENDCHAR
STARTCHAR 30A1
ENCODING 12449
SWIDTH 1920 0
DWIDTH 32 0
BBX 20 20 6 -2
BITMAP
000180
801FC0
83F0E0
FF81F0
7C0380
300600
00D800
006000
006000
006000
00C000
00C000
018000
010000
030000
060000
040000
080000
100000
200000
ENDCHAR
STARTCHAR 30A2
ENCODING 12450
SWIDTH 1920 0
DWIDTH 32 0
BBX 24 26 4 -2
BITMAP
000018
0000FC
807F8E
FFF007
7E000F
30001E
000070
0038C0
001F00
000E00
000C00
001C00
001800
001800
003000
003000
006000
006000
00C000
008000
018000
030000
020000
040000
080000
100000
ENDCHAR
STARTCHAR 30A3
ENCODING 12451
SWIDTH 1920 0
DWIDTH 32 0
BBX 16 24 5 -2
BITMAP
0008
000E
000F
001C
0018
0038
0030
0060
00F0
01B8
03B8
0730
0C10
1810
3010
C010
0010
0030
0030
0030
0030
0030
0030
0030
ENDCHAR
STARTCHAR 30A4
ENCODING 12452
SWIDTH 1920 0
DWIDTH 32 0
BBX 18 29 4 -2
BITMAP
000600
000380
0003C0
000700
000600
000C00
000C00
001800
003800
006000
007800
00DC00
019C00
031800
061800
0C1800
181800
301800
C01800
001800
001800
001800
001800
001800
001800
001800
001C00
001C00
001800
ENDCHAR
STARTCHAR 30A5
ENCODING 12453
SWIDTH 1920 0
DWIDTH 32 0
BBX 18 21 7 -3
BITMAP
018000
00C000
00E000
00C000
00C100
E0FF80
7FC1C0
7C0180
600300
600300
600300
600600
600600
600C00
000C00
001800
003000
006000
00C000
018000
060000
ENDCHAR
STARTCHAR 30A6
ENCODING 12454
SWIDTH 1920 0
DWIDTH 32 0
BBX 22 28 6 -2
BITMAP
01C000
00F000
007000
006000
006010
8060F8
EFFFFC
7F8018
700038
300030
300070
300060
300060
3000C0
3000C0
300180
300180
300300
200600
000600
000C00
001800
003000
006000
00C000
038000
060000
180000
ENDCHAR
STARTCHAR 30A7
ENCODING 12455
SWIDTH 1920 0
DWIDTH 32 0
BBX 24 15 4 0
BITMAP
0801E0
0FFFF0
07B000
021800
001800
001800
001800
001000
001000
001000
00103C
83FFFF
FF800F
780000
200000
ENDCHAR
STARTCHAR 30A8
ENCODING 12456
SWIDTH 1920 0
DWIDTH 32 0
BBX 30 18 1 4
BITMAP
00000800
04007E00
07FFFF00
03F40000
01060000
00030000
00038000
00038000
00030000
00030000
00030000
00030000
00020000
00020020
803FFFF8
7FFFFFFC
3FC0001C
18000000
ENDCHAR
STARTCHAR 30A9
ENCODING 12457
SWIDTH 1920 0
DWIDTH 32 0
BBX 19 22 6 -2
BITMAP
006000
003000
003800
003000
003000
0031C0
803FE0
FFF000
7C7000
00F000
00D000
019000
031000
061000
0C1000
181000
301800
C01800
00F800
007800
003800
003000
ENDCHAR
STARTCHAR 30AA
ENCODING 12458
SWIDTH 1920 0
DWIDTH 32 0
BBX 24 27 4 -2
BITMAP
000600
001F00
000780
000300
000300
000300
000304
40037F
607FFF
3FFF00
1F0F00
001B00
003B00
003300
007300
006300
00C300
018300
030300
060300
0C0300
302300
C01B00
000F80
000780
000700
000300
ENDCHAR
STARTCHAR 30AB
ENCODING 12459
SWIDTH 1920 0
DWIDTH 32 0
BBX 24 26 3 0
BITMAP
000C00
000700
000780
000700
000700
000600
000604
000C1E
207FFF
3FFE07
1F8C07
081806
001806
00300E
00300C
00600C
00600C
00C01C
018018
010018
030830
060430
0C0660
1803E0
2003C0
C00180
ENDCHAR
STARTCHAR 30AC
ENCODING 12460
SWIDTH 1920 0
DWIDTH 32 0
BBX 30 28 2 0
BITMAP
00000040
00000030
000C0018
0007021C
0007818C
000700C0
000700E0
00060060
00060400
000C1E00
207FFF00
3FFE0700
1F8C0700
08180600
00180600
00300E00
00300C00
00600C00
00600C00
00C01C00
01801800
01001800
03083000
06043000
0C066000
1803E000
2003C000
C0018000
ENDCHAR
STARTCHAR 30AD
ENCODING 12461
SWIDTH 1920 0
DWIDTH 32 0
BBX 28 29 2 -2
BITMAP
00600000
00F00000
00780000
00300000
00300000
00381800
00187C00
001BFC00
103F0000
1FF80000
0FCC0000
020C0000
00040000
000607E0
00063FF0
0002FE00
001F8000
C3FB0000
7FC30000
3E010000
10018000
00018000
0000C000
0000C000
0000C000
0000E000
00006000
00006000
00006000
ENDCHAR
STARTCHAR 30AE
ENCODING 12462
SWIDTH 1920 0
DWIDTH 32 0
BBX 30 30 2 -2
BITMAP
00000040
00600030
00F00018
0078021C
0030018C
003000C0
003818E0
00187C60
001BFC00
103F0000
1FF80000
0FCC0000
020C0000
00040000
000607E0
00063FF0
0002FE00
001F8000
C3FB0000
7FC30000
3E010000
10018000
00018000
0000C000
0000C000
0000C000
0000E000
00006000
00006000
00006000
ENDCHAR
STARTCHAR 30AF
ENCODING 12463
SWIDTH 1920 0
DWIDTH 32 0
BBX 24 25 4 0
BITMAP
003000
001C00
001C00
00181C
003FFE
00370F
00700E
00E01C
01C038
038030
070060
0C00E0
1800C0
600180
000300
000600
000C00
001800
003000
006000
01C000
030000
060000
180000
E00000
ENDCHAR
STARTCHAR 30B0
ENCODING 12464
SWIDTH 1920 0
DWIDTH 32 0
BBX 30 28 2 0
BITMAP
00000040
00000030
00000018
0030021C
001C018C
001C00C0
00181CE0
003FFE60
00370F00
00700E00
00E01C00
01C03800
03803000
07006000
0C00E000
1800C000
60018000
00030000
00060000
000C0000
00180000
00300000
00600000
01C00000
03000000
06000000
18000000
E0000000
ENDCHAR
STARTCHAR 30B1
ENCODING 12465
SWIDTH 1920 0
DWIDTH 32 0
BBX 25 26 3 -1
BITMAP
03000000
01C00000
00E00000
00E00000
00C00000
01C00000
01803F00
031FFF80
03FF0380
06038000
0603C000
0C038000
18030000
30030000
60060000
80060000
000C0000
000C0000
00180000
00180000
00300000
00600000
00C00000
01800000
02000000
0C000000
ENDCHAR
STARTCHAR 30B2
ENCODING 12466
SWIDTH 1920 0
DWIDTH 32 0
BBX 29 29 2 -1
BITMAP
00000080
00000060
00000030
03000438
01C00318
00E00180
00E001C0
00C000C0
01C00000
01803F00
031FFF80
03FF0380
06038000
0603C000
0C038000
18030000
30030000
60060000
80060000
000C0000
000C0000
00180000
00180000
00300000
00600000
00C00000
01800000
02000000
0C000000
ENDCHAR
STARTCHAR 30B3
ENCODING 12467
SWIDTH 1920 0
DWIDTH 32 0
BBX 22 16 4 4
BITMAP
800070
7FFFF8
3FF03C
1C0038
000030
000030
000060
000060
000060
0000C0
0000C0
0000C0
800180
C7FFE0
7FFFF0
380000
ENDCHAR
STARTCHAR 30B4
ENCODING 12468
SWIDTH 1920 0
DWIDTH 32 0
BBX 28 24 4 4
BITMAP
00000100
000000C0
00000060
00000870
00000630
00000300
00000380
00000180
80007000
7FFFF800
3FF03C00
1C003800
00003000
00003000
00006000
00006000
00006000
0000C000
0000C000
0000C000
80018000
C7FFE000
7FFFF000
38000000
ENDCHAR
STARTCHAR 30B5
ENCODING 12469
SWIDTH 1920 0
DWIDTH 32 0
BBX 31 28 0 -2
BITMAP
0000E000
00007800
00003C00
00C01800
00701800
00381800
00381800
00301800
003019FC
8037FFFE
7FFE180E
3FB01800
08301800
00301800
00303800
00303000
00303000
00303000
00306000
00206000
00006000
0000C000
00008000
00018000
00030000
00020000
00040000
00080000
ENDCHAR
STARTCHAR 30B6
ENCODING 12470
SWIDTH 1920 0
DWIDTH 32 0
BBX 32 30 0 -2
BITMAP
00000010
0000000C
0000E006
00007887
00003C63
00C01830
00701838
00381818
00381800
00301800
003019FC
8037FFFE
7FFE180E
3FB01800
08301800
00301800
00303800
00303000
00303000
00303000
00306000
00206000
00006000
0000C000
00008000
00018000
00030000
00020000
00040000
00080000
ENDCHAR
STARTCHAR 30B7
ENCODING 12471
SWIDTH 1920 0
DWIDTH 32 0
BBX 24 23 3 0
BITMAP
070000
01C000
00E000
007000
003001
000001
E00002
380004
1C000C
0E0018
060030
000060
0000C0
000180
000300
000E00
001C00
007000
41E000
6F8000
3F0000
1C0000
080000
ENDCHAR
STARTCHAR 30B8
ENCODING 12472
SWIDTH 1920 0
DWIDTH 32 0
BBX 28 28 3 0
BITMAP
00000100
000000C0
00000060
00000870
00000630
07000300
01C00380
00E00180
00700000
00300000
00000100
E0000200
38000400
1C000C00
0E001800
06003000
06006000
0000C000
00018000
00030000
000E0000
001C0000
00700000
41E00000
6F800000
3F000000
1C000000
08000000
ENDCHAR
STARTCHAR 30B9
ENCODING 12473
SWIDTH 1920 0
DWIDTH 32 0
BBX 23 21 4 1
BITMAP
000080
2007C0
3FFFE0
1FC1C0
0C0180
000380
000300
000700
000600
000C00
001800
001C00
003300
006180
00C0C0
018060
030030
060018
1C001C
30000E
C0000E
ENDCHAR
STARTCHAR 30BA
ENCODING 12474
SWIDTH 1920 0
DWIDTH 32 0
BBX 27 27 4 1
BITMAP
00000200
00000180
000000C0
000010E0
00000C60
00000600
00008700
2007C300
3FFFE000
1FC1C000
0C018000
00038000
00030000
00070000
00060000
000C0000
00180000
001C0000
00330000
00618000
00C0C000
01806000
03003000
06001800
1C001C00
30000E00
C0000E00
ENDCHAR
STARTCHAR 30BB
ENCODING 12475
SWIDTH 1920 0
DWIDTH 32 0
BBX 25 23 2 2
BITMAP
00C00000
00700000
00380000
00380000
00300800
00303C00
0031FE00
0037C700
007C0780
81F00C00
DFB01800
7C303000
30304000
00300000
00300000
00300000
00300000
00300000
00300000
00300000
00180300
001FFF00
0007FE00
ENDCHAR
STARTCHAR 30BC
ENCODING 12476
SWIDTH 1920 0
DWIDTH 32 0
BBX 30 26 2 2
BITMAP
00000040
00000030
00000018
00C0021C
0070018C
003800C0
003800E0
00300860
00303C00
0031FE00
0037C700
007C0780
81F00C00
DFB01800
7C303000
30304000
00300000
00300000
00300000
00300000
00300000
00300000
00300000
00180300
001FFF00
0007FE00
ENDCHAR
STARTCHAR 30BD
ENCODING 12477
SWIDTH 1920 0
DWIDTH 32 0
BBX 20 22 6 0
BITMAP
000180
0000E0
800070
400060
6000E0
3000C0
1801C0
1C0180
0C0300
0C0300
000600
000E00
000C00
001800
003000
006000
00C000
018000
030000
060000
180000
600000
ENDCHAR
STARTCHAR 30BE
ENCODING 12478
SWIDTH 1920 0
DWIDTH 32 0
BBX 27 28 5 0
BITMAP
00000200
00000180
000000C0
000010E0
00000C60
00000600
00018700
0000E300
80007000
40006000
6000E000
3000C000
1801C000
1C018000
0C030000
0C030000
00060000
000E0000
000C0000
00180000
00300000
00600000
00C00000
01800000
03000000
06000000
18000000
60000000
ENDCHAR
STARTCHAR 30BF
ENCODING 12479
SWIDTH 1920 0
DWIDTH 32 0
BBX 24 26 2 -1
BITMAP
00F000
003800
003808
00301C
007FFE
006F1F
00E01C
00C038
018030
030070
066060
0418C0
080DC0
100780
200300
000780
000EC0
001CE0
003860
006070
00C030
038000
060000
0C0000
300000
C00000
ENDCHAR
STARTCHAR 30C0
ENCODING 12480
SWIDTH 1920 0
DWIDTH 32 0
BBX 31 29 1 -1
BITMAP
00000020
00000018
0000000C
00F0010E
003800C6
00380860
00301C70
007FFE30
006F1F00
00E01C00
00C03800
01803000
03007000
06606000
0418C000
080DC000
10078000
20030000
00078000
000EC000
001CE000
00386000
00607000
00C03000
03800000
06000000
0C000000
30000000
C0000000
ENDCHAR
STARTCHAR 30C1
ENCODING 12481
SWIDTH 1920 0
DWIDTH 32 0
BBX 29 28 1 -2
BITMAP
00002000
00007000
0000FC00
0003E000
000F0000
007E0000
07C70000
00038000
00030000
00030040
00031FF0
807FFFF8
7FE30000
3E030000
10030000
00060000
00060000
00060000
000C0000
000C0000
00180000
00180000
00300000
00600000
00C00000
01800000
03000000
0C000000
ENDCHAR
STARTCHAR 30C2
ENCODING 12482
SWIDTH 1920 0
DWIDTH 32 0
BBX 31 30 1 -2
BITMAP
00000020
00000018
0000200C
0000710E
0000FCC6
0003E060
000F0070
007E0030
07C70000
00038000
00030000
00030040
00031FF0
807FFFF8
7FE30000
3E030000
10030000
00060000
00060000
00060000
000C0000
000C0000
00180000
00180000
00300000
00600000
00C00000
01800000
03000000
0C000000
ENDCHAR
STARTCHAR 30C3
ENCODING 12483
SWIDTH 1920 0
DWIDTH 32 0
BBX 19 18 7 -1
BITMAP
020000
018080
00C0C0
80E0E0
6060C0
3001C0
3801C0
180380
000300
000700
000E00
000C00
001800
003000
006000
00C000
030000
0C0000
ENDCHAR
STARTCHAR 30C4
ENCODING 12484
SWIDTH 1920 0
DWIDTH 32 0
BBX 24 23 4 0
BITMAP
010000
00C008
00600C
003006
803807
60180E
30180C
38001C
180018
1C0030
0C0030
000060
0000C0
0000C0
000180
000300
000600
000C00
001800
007000
00C000
030000
0C0000
ENDCHAR
STARTCHAR 30C5
ENCODING 12485
SWIDTH 1920 0
DWIDTH 32 0
BBX 29 28 3 0
BITMAP
00000080
00000060
00000030
00000438
00000318
01000180
00C001C0
006000C0
00300C00
80380600
60180F00
30180C00
38001C00
18001800
1C003000
0C003000
00006000
0000C000
0000C000
00018000
00030000
00060000
000C0000
00180000
00700000
00C00000
03000000
0C000000
ENDCHAR
STARTCHAR 30C6
ENCODING 12486
SWIDTH 1920 0
DWIDTH 32 0
BBX 24 27 3 -2
BITMAP
000780
047FC0
03F800
00C000
000000
000000
000000
0001FE
807FFF
FFE807
7E0C00
200F00
000E00
000C00
001800
001800
001800
003000
003000
006000
006000
00C000
018000
030000
060000
080000
300000
ENDCHAR
STARTCHAR 30C7
ENCODING 12487
SWIDTH 1920 0
DWIDTH 32 0
BBX 29 30 3 -2
BITMAP
00000080
00000060
00000030
00078438
047FC318
03F80180
00C001C0
000000C0
00000000
00000000
0001FE00
807FFF00
FFE80700
7E0C0000
200F0000
000E0000
000C0000
00180000
00180000
00180000
00300000
00300000
00600000
00600000
00C00000
01800000
03000000
06000000
08000000
30000000
ENDCHAR
STARTCHAR 30C8
ENCODING 12488
SWIDTH 1920 0
DWIDTH 32 0
BBX 14 30 11 -3
BITMAP
7000
F800
3800
3800
3000
3000
3000
3000
3000
3000
3000
3E00
3380
30E0
3070
3038
301C
300C
3000
3000
3000
3000
3000
3000
3000
3000
7000
7000
3000
3000
ENDCHAR
STARTCHAR 30C9
ENCODING 12489
SWIDTH 1920 0
DWIDTH 32 0
BBX 19 31 10 -3
BITMAP
000200
700180
F800C0
3810E0
380C60
300600
300700
300300
300000
300000
300000
300000
3E0000
338000
30E000
307000
303800
301C00
300C00
300000
300000
300000
300000
300000
300000
300000
300000
700000
700000
300000
300000
ENDCHAR
STARTCHAR 30CA
ENCODING 12490
SWIDTH 1920 0
DWIDTH 32 0
BBX 27 27 3 -1
BITMAP
001C0000
00070000
00078000
00070000
00060000
00060000
00060000
00060080
80067FC0
FFFFFFE0
7FC60000
30060000
000E0000
000C0000
000C0000
000C0000
00180000
00180000
00180000
00300000
00200000
00600000
00C00000
00800000
01000000
02000000
04000000
ENDCHAR
STARTCHAR 30CB
ENCODING 12491
SWIDTH 1920 0
DWIDTH 32 0
BBX 26 14 3 6
BITMAP
0407F800
07FFF800
03F80000
00000000
00000000
00000000
00000000
00000000
00000000
00000000
8001FF80
FFFFFFC0
7FFC03C0
30000000
ENDCHAR
STARTCHAR 30CC
ENCODING 12492
SWIDTH 1920 0
DWIDTH 32 0
BBX 23 22 2 1
BITMAP
000038
0401FC
07FFDC
03F818
018030
000070
000060
0000E0
0380C0
007180
001F80
000700
000DC0
001C70
003838
00601C
00C00E
03800E
060000
0C0000
300000
C00000
ENDCHAR
STARTCHAR 30CD
ENCODING 12493
SWIDTH 1920 0
DWIDTH 32 0
BBX 26 29 2 -2
BITMAP
00200000
00180000
000E0000
00078000
00038000
00018000
00000000
00000000
00070000
10FFC000
1FF38000
0F830000
04070000
000E0000
000C4000
001E3000
00370C00
00660700
00C60380
018201C0
070200C0
0C020000
30060000
C0060000
00060000
00060000
00060000
00060000
00060000
ENDCHAR
STARTCHAR 30CE
ENCODING 12494
SWIDTH 1920 0
DWIDTH 32 0
BBX 18 23 6 0
BITMAP
000F00
000380
0003C0
000380
000300
000700
000600
000E00
000C00
001C00
001800
003000
006000
006000
00C000
018000
030000
070000
0C0000
180000
300000
400000
800000
ENDCHAR
STARTCHAR 30CF
ENCODING 12495
SWIDTH 1920 0
DWIDTH 32 0
BBX 28 14 0 5
BITMAP
00E01000
00700C00
00780600
00E00300
00C00180
01C001C0
038000C0
030000E0
06000060
0C000070
18000030
30000030
60000000
80000000
ENDCHAR
STARTCHAR 30D0
ENCODING 12496
SWIDTH 1920 0
DWIDTH 32 0
BBX 31 22 0 5
BITMAP
00000020
00000018
0000000C
0000000E
00000106
000000C0
00000060
00000070
00E01030
00700C00
00780600
00E00300
00C00180
01C001C0
038000C0
030000E0
06000060
0C000070
18000030
30000030
60000000
80000000
ENDCHAR
STARTCHAR 30D1
ENCODING 12497
SWIDTH 1920 0
DWIDTH 32 0
BBX 30 21 0 5
BITMAP
00000070
00000088
00000104
00000104
00000104
00000088
00000070
00E01000
00700C00
00780600
00E00300
00C00180
01C001C0
038000C0
030000E0
06000060
0C000070
18000030
30000030
60000000
80000000
ENDCHAR
STARTCHAR 30D2
ENCODING 12498
SWIDTH 1920 0
DWIDTH 32 0
BBX 19 22 6 1
BITMAP
F00000
3C0000
1C0000
180000
180C00
180300
180780
180F80
181C00
187000
19C000
1E0000
180000
180000
180000
180000
180000
180000
180000
1C00E0
0FFFE0
03FF80
ENDCHAR
STARTCHAR 30D3
ENCODING 12499
SWIDTH 1920 0
DWIDTH 32 0
BBX 24 27 6 1
BITMAP
000010
00000C
000006
000087
000063
F00030
3C0038
1C0018
180000
180C00
180300
180780
180F80
181C00
187000
19C000
1E0000
180000
180000
180000
180000
180000
180000
180000
1C00E0
0FFFE0
03FF80
ENDCHAR
STARTCHAR 30D4
ENCODING 12500
SWIDTH 1920 0
DWIDTH 32 0
BBX 23 26 6 1
BITMAP
000038
000044
000082
000082
F00082
3C0044
1C0038
180000
180C00
180300
180780
180F80
181C00
187000
19C000
1E0000
180000
180000
180000
180000
180000
180000
180000
1C00E0
0FFFE0
03FF80
ENDCHAR
STARTCHAR 30D5
ENCODING 12501
SWIDTH 1920 0
DWIDTH 32 0
BBX 23 23 3 0
BITMAP
000070
801FF8
FFFC1C
7F801E
380038
000030
000070
000060
0000E0
0000C0
000180
000300
000600
000600
000C00
001800
003000
006000
00C000
018000
030000
040000
180000
ENDCHAR
STARTCHAR 30D6
ENCODING 12502
SWIDTH 1920 0
DWIDTH 32 0
BBX 30 28 2 0
BITMAP
00000040
00000030
00000018
0000021C
0000018C
000070C0
801FF8E0
FFFC1C60
7F801E00
38003800
00003000
00007000
00006000
0000E000
0000C000
00018000
00030000
00060000
00060000
000C0000
00180000
00300000
00600000
00C00000
01800000
03000000
04000000
18000000
ENDCHAR
STARTCHAR 30D7
ENCODING 12503
SWIDTH 1920 0
DWIDTH 32 0
BBX 29 28 2 0
BITMAP
000000E0
00000110
00000208
00000208
00000208
00007110
801FF8E0
FFFC1C00
7F801E00
38003800
00003000
00007000
00006000
0000E000
0000C000
00018000
00030000
00060000
00060000
000C0000
00180000
00300000
00600000
00C00000
01800000
03000000
04000000
18000000
ENDCHAR
STARTCHAR 30D8
ENCODING 12504
SWIDTH 1920 0
DWIDTH 32 0
BBX 30 12 1 6
BITMAP
00380000
006C0000
00C60000
01838000
0700C000
8E007000
FC001C00
78000F00
300003C0
000001F8
0000007C
00000018
ENDCHAR
STARTCHAR 30D9
ENCODING 12505
SWIDTH 1920 0
DWIDTH 32 0
BBX 30 19 1 6
BITMAP
00000400
00000300
00000180
000021C0
000018C0
00000C00
00000E00
00380600
006C0000
00C60000
01838000
0700C000
8E007000
FC001C00
78000F00
300003C0
000001F8
0000007C
00000018
ENDCHAR
STARTCHAR 30DA
ENCODING 12506
SWIDTH 1920 0
DWIDTH 32 0
BBX 30 19 1 6
BITMAP
00000700
00000880
00001040
00001040
00001040
00000880
00000700
00380000
006C0000
00C60000
01838000
0700C000
8E007000
FC001C00
78000F00
300003C0
000001F8
0000007C
00000018
ENDCHAR
STARTCHAR 30DB
ENCODING 12507
SWIDTH 1920 0
DWIDTH 32 0
BBX 27 24 3 0
BITMAP
003C0000
001E0000
000E0000
000C0000
000C0000
000C0300
800C1FC0
FFFFFFE0
7FCC0000
300C0000
000C0000
000C0000
040C1000
040C0C00
0C0C0600
180C0300
380C0380
700C01C0
F06C01C0
C03C00C0
001C0000
001E0000
000C0000
00080000
ENDCHAR
STARTCHAR 30DC
ENCODING 12508
SWIDTH 1920 0
DWIDTH 32 0
BBX 29 28 3 0
BITMAP
00000080
00000060
00000030
00000438
003C0318
001E0180
000E01C0
000C00C0
000C0000
000C0300
800C1FC0
FFFFFFE0
7FCC0000
300C0000
000C0000
000C0000
040C1000
040C0C00
0C0C0600
180C0300
380C0380
700C01C0
F06C01C0
C03C00C0
001C0000
001E0000
000C0000
00080000
ENDCHAR
STARTCHAR 30DD
ENCODING 12509
SWIDTH 1920 0
DWIDTH 32 0
BBX 28 28 3 0
BITMAP
000001C0
00000220
00000410
00000410
003C0410
001E0220
000E01C0
000C0000
000C0000
000C0300
800C1FC0
FFFFFFE0
7FCC0000
300C0000
000C0000
000C0000
040C1000
040C0C00
0C0C0600
180C0300
380C0380
700C01C0
F06C01C0
C03C00C0
001C0000
001E0000
000C0000
00080000
ENDCHAR
STARTCHAR 30DE
ENCODING 12510
SWIDTH 1920 0
DWIDTH 32 0
BBX 30 29 1 -3
BITMAP
00000000
00000000
00000000
00000000
00000000
00000000
00000F00
400FFF80
7FFE01C0
3FC003E0
1C000700
00000E00
00001800
00003000
00302000
000C4000
00078000
00038000
0001C000
0000E000
0000E000
00006000
00000000
00000000
00000000
00000000
00000000
00000000
00000000
ENDCHAR
STARTCHAR 30DF
ENCODING 12511
SWIDTH 1920 0
DWIDTH 32 0
BBX 30 29 1 -3
BITMAP
00000000
003E0000
0003C000
0000F000
00007800
00003800
00000000
00000000
00F80000
001F0000
0007C000
0001E000
0000C000
00000000
00000000
00000000
00000000
00F00000
001E0000
00078000
0001C000
0000F000
00007800
00003C00
00001800
00000000
00000000
00000000
00000000
ENDCHAR
STARTCHAR 30E0
ENCODING 12512
SWIDTH 1920 0
DWIDTH 32 0
BBX 30 29 1 -3
BITMAP
00000000
00000000
00100000
000C0000
000E0000
000F0000
000C0000
00180000
00180000
00300000
00300000
00200000
00602000
00401800
00C00C00
00800600
00801F00
0100E380
010F8180
22FC01C0
3FE000C0
1F0000C0
0C000000
00000000
00000000
00000000
00000000
00000000
00000000
ENDCHAR
STARTCHAR 30E1
ENCODING 12513
SWIDTH 1920 0
DWIDTH 32 0
BBX 30 29 1 -3
BITMAP
00000000
00000000
00003000
00001800
00001C00
00001C00
00003800
00003000
00607000
00186000
000CE000
0007C000
00038000
0003C000
0006E000
000E7000
000C3000
00183800
00301800
00601800
00C00000
03800000
06000000
0C000000
30000000
00000000
00000000
00000000
00000000
ENDCHAR
STARTCHAR 30E2
ENCODING 12514
SWIDTH 1920 0
DWIDTH 32 0
BBX 30 29 1 -3
BITMAP
00000000
00000000
00000000
00000000
00003C00
0403FC00
07FFC000
03E80000
000C0000
000E0000
000E0000
000C00C0
000C0FF0
000FFFF0
81FE0000
FFCC0000
7C0C0000
200C0000
000C0000
000C0000
000C0000
00060000
00070080
0003FFC0
0000FFC0
00000000
00000000
00000000
00000000
ENDCHAR
STARTCHAR 30E3
ENCODING 12515
SWIDTH 1920 0
DWIDTH 32 0
BBX 30 29 1 -3
BITMAP
00000000
00000000
00000000
00000000
00000000
00100000
003C0000
001C0000
000C0000
000C0780
000C3FC0
0007C1C0
083E0380
0FE20200
07020400
02030800
00030000
00010000
00018000
00008000
00008000
0000C000
0000C000
0000C000
00006000
00006000
00007000
00003000
00000000
ENDCHAR
STARTCHAR 30E4
ENCODING 12516
SWIDTH 1920 0
DWIDTH 32 0
BBX 30 29 1 -3
BITMAP
00000000
00000000
00300000
00F00000
00700000
00380000
00180380
00183FE0
001BE0F8
003E00F0
83EC01C0
FF0C0300
7C040600
10060800
00061000
00020000
00030000
00030000
00010000
00018000
00018000
00018000
0000C000
0000C000
0000C000
0000E000
00006000
00006000
00006000
ENDCHAR
STARTCHAR 30E5
ENCODING 12517
SWIDTH 1920 0
DWIDTH 32 0
BBX 30 29 1 -3
BITMAP
00000000
00000000
00000000
00000000
00000000
00000000
00000000
00000000
00000000
00000000
00000000
00000000
0000E000
018FF800
00F87000
00606000
00006000
00006000
00006000
00006000
00004000
0000C000
1000FFC0
1FFFFFE0
0F800000
00000000
00000000
00000000
00000000
ENDCHAR
STARTCHAR 30E6
ENCODING 12518
SWIDTH 1920 0
DWIDTH 32 0
BBX 30 29 1 -3
BITMAP
00000000
00000000
00000000
00000000
00000000
00000000
00003000
0201F800
03FFFC00
01F83800
00C03000
00002000
00006000
00006000
00006000
00004000
0000C000
0000C000
80008030
E00FFFF8
7FFF81FC
3F00000C
00000000
00000000
00000000
00000000
00000000
00000000
00000000
ENDCHAR
STARTCHAR 30E7
ENCODING 12519
SWIDTH 1920 0
DWIDTH 32 0
BBX 30 29 1 -3
BITMAP
00000000
00000000
00000000
00000000
00000000
00000000
00000000
00000000
00000000
00001800
0101FC00
01FF0E00
00E00C00
00000C00
00000C00
00000C00
0187FC00
00FC1800
00601800
00001800
00001800
01001800
0187F800
00FC1800
00601800
00000000
00000000
00000000
00000000
ENDCHAR
STARTCHAR 30E8
ENCODING 12520
SWIDTH 1920 0
DWIDTH 32 0
BBX 30 29 1 -3
BITMAP
00000000
00000000
00000000
00000400
00000E00
0407FF00
07FF0380
03E00380
01000300
00000300
00000300
00000F00
0307FF00
01FF8300
00E00300
00000600
00000600
00000600
00000600
0200FE00
03FFF600
01F00600
00800600
00000000
00000000
00000000
00000000
00000000
00000000
ENDCHAR
STARTCHAR 30E9
ENCODING 12521
SWIDTH 1920 0
DWIDTH 32 0
BBX 30 29 1 -3
BITMAP
00000000
00000000
0083F800
00FFF800
007C0000
00000000
00000000
00000000
00000F00
0407FF80
07FF83C0
03F80380
01800700
00000E00
00000C00
00001800
00003000
00003000
00006000
0000C000
00018000
00030000
00060000
000C0000
00180000
00600000
01800000
00000000
00000000
ENDCHAR
STARTCHAR 30EA
ENCODING 12522
SWIDTH 1920 0
DWIDTH 32 0
BBX 30 29 1 -3
BITMAP
00000000
00007000
00003C00
00F01C00
00781C00
00381800
00301800
00301800
00301800
00301800
00301800
00301800
00301800
00303000
00303000
00303000
00383000
00306000
00106000
0000C000
0000C000
00018000
00010000
00030000
00060000
00040000
00080000
00100000
00600000
ENDCHAR
STARTCHAR 30EB
ENCODING 12523
SWIDTH 1920 0
DWIDTH 32 0
BBX 30 29 1 -3
BITMAP
00000000
00000000
00000000
00000000
00000000
00000000
01C38000
0061C008
0061C008
00E18010
00C18010
00C18020
00C18060
018180C0
01818180
03018300
02018600
06019C00
0C03F800
0801F000
1000C000
20008000
40000000
80000000
00000000
00000000
00000000
00000000
00000000
ENDCHAR
STARTCHAR 30EC
ENCODING 12524
SWIDTH 1920 0
DWIDTH 32 0
BBX 30 29 1 -3
BITMAP
00000000
00000000
00000000
00000000
00000000
0E000000
07000000
03800000
03800010
03000020
030000C0
03000180
03000300
03000E00
03001800
03007000
0301C000
03038000
030E0000
037C0000
0FF00000
07C00000
03000000
00000000
00000000
00000000
00000000
00000000
00000000
ENDCHAR
STARTCHAR 30ED
ENCODING 12525
SWIDTH 1920 0
DWIDTH 32 0
BBX 30 29 1 -3
BITMAP
00000000
00000000
00000000
00000000
00000000
00000000
0E003C00
0707FE00
03FC0700
03000700
03000E00
03000C00
03000C00
01800C00
01800C00
01801800
01801800
01801800
01803C00
01FFFE00
01C00000
01800000
01800000
00000000
00000000
00000000
00000000
00000000
00000000
ENDCHAR
STARTCHAR 30EE
ENCODING 12526
SWIDTH 1920 0
DWIDTH 32 0
BBX 30 29 1 -3
BITMAP
00000000
00000000
00000000
00000000
00000000
00000000
00000000
00000000
00000000
02000C00
0300FE00
01FFC700
01F80E00
01800C00
01800C00
01801800
01801800
01801800
01803000
01003000
00006000
00006000
0000C000
00018000
00030000
00060000
000C0000
00300000
00000000
ENDCHAR
STARTCHAR 30EF
ENCODING 12527
SWIDTH 1920 0
DWIDTH 32 0
BBX 30 29 1 -3
BITMAP
00000000
00000000
00000000
00000F00
0C00FF80
07FFE3C0
07F80380
03000380
03000300
03000700
03000600
03000600
03000C00
03000C00
03001800
03001800
02003000
00006000
00006000
0000C000
00018000
00030000
00020000
00040000
00080000
00100000
00200000
00000000
00000000
ENDCHAR
STARTCHAR 30F0
ENCODING 12528
SWIDTH 1920 0
DWIDTH 32 0
BBX 30 29 1 -3
BITMAP
00078000
0003C000
0001C000
00018000
00018000
00018400
0401FF00
07FFFF00
03FD8000
00818000
00E18000
00C18000
00C18000
00C18000
008183C0
80FFFFF0
FFFD80F0
7E018000
30018000
00018000
00018000
00018000
00018000
00018000
00018000
00038000
00038000
00018000
00018000
ENDCHAR
STARTCHAR 30F1
ENCODING 12529
SWIDTH 1920 0
DWIDTH 32 0
BBX 30 29 1 -3
BITMAP
00000000
00000000
00000000
00000000
00000000
00001E00
080FF300
0FFE0780
07C00FC0
03001C00
00003000
001E4000
00078000
00038000
00030000
00030000
00030000
00030000
00020000
80061FF0
FFFFFFFC
7F80001C
30000000
00000000
00000000
00000000
00000000
00000000
00000000
ENDCHAR
STARTCHAR 30F2
ENCODING 12530
SWIDTH 1920 0
DWIDTH 32 0
BBX 30 29 1 -3
BITMAP
00000000
00000000
00000600
00000300
0000E380
020FF300
03FE0700
01E00600
00800600
00000C00
00000F80
0001FF80
043F9800
07F83800
03C03000
01006000
00006000
0000C000
0000C000
00018000
00030000
00030000
00060000
000C0000
00180000
00300000
00600000
01800000
00000000
ENDCHAR
STARTCHAR 30F3
ENCODING 12531
SWIDTH 1920 0
DWIDTH 32 0
BBX 30 29 1 -3
BITMAP
00000000
00000000
00000000
04000000
03000000
01C00000
00E00000
00600000
00700008
00300010
00300020
00000040
00000180
00000300
00000600
00000C00
00001800
00007000
0000E000
00038000
00070000
101C0000
08F80000
0FE00000
07800000
03000000
00000000
00000000
00000000
ENDCHAR
STARTCHAR 30F4
ENCODING 12532
SWIDTH 1920 0
DWIDTH 32 0
BBX 28 30 4 -2
BITMAP
00000100
000000C0
01C00060
00F00870
00700630
00600300
00601380
8060F980
EFFFFC00
7F801800
70003800
30003000
30007000
30006000
30006000
3000C000
3000C000
30018000
30018000
30030000
20060000
00060000
000C0000
00180000
00300000
00600000
00C00000
03800000
06000000
18000000
ENDCHAR
STARTCHAR 30F5
ENCODING 12533
SWIDTH 1920 0
DWIDTH 32 0
BBX 21 22 5 -1
BITMAP
001000
001C00
000E00
000C00
001800
001800
2018F0
3FFFF8
1FB830
083030
006020
006060
006060
00C060
018040
0180C0
0300C0
062180
0C1B80
180F00
300E00
C00C00
ENDCHAR
STARTCHAR 30F6
ENCODING 12534
SWIDTH 1920 0
DWIDTH 32 0
BBX 20 22 7 -3
BITMAP
060000
030000
038000
070000
060000
0C03E0
0FFFF0
19B000
181800
301800
603000
803000
006000
006000
00C000
008000
018000
030000
060000
0C0000
180000
600000
ENDCHAR
STARTCHAR 30FB
ENCODING 12539
SWIDTH 1920 0
DWIDTH 32 0
BBX 4 4 14 10
BITMAP
60
F0
F0
60
ENDCHAR
STARTCHAR 30FC
ENCODING 12540
SWIDTH 1920 0
DWIDTH 32 0
BBX 30 4 1 10
BITMAP
80000000
7FFFFFF8
3FFFFFFC
18000000
ENDCHAR
STARTCHAR 30FD
ENCODING 12541
SWIDTH 1920 0
DWIDTH 32 0
BBX 11 11 9 7
BITMAP
8000
6000
1800
0C00
0700
0380
01C0
01C0
00E0
0060
0060
ENDCHAR
STARTCHAR 30FE
ENCODING 12542
SWIDTH 1920 0
DWIDTH 32 0
BBX 16 17 9 7
BITMAP
0010
000C
0006
0083
0063
0030
8018
6018
1800
0C00
0700
0380
01C0
01C0
00E0
0060
0060
ENDCHAR
STARTCHAR 3231
ENCODING 12849
SWIDTH 1920 0
DWIDTH 32 0
BBX 30 32 1 -4
BITMAP
04000080
08000040
10000020
10E01C20
30C11830
20C1D810
60C19B18
60D9FF98
6FFD9818
60C11818
C1C1180C
C1E2198C
C1D7FFCC
C1D87C0C
C3CC7C0C
C2CC5A0C
C2C05A0C
C4C0DB0C
C4C0D90C
C8C0998C
D0C198EC
C0C118CC
60C21858
60C41818
60C01818
60C01818
20C01810
30C01830
10C01820
10000020
08000040
04000080
ENDCHAR
STARTCHAR 3232
ENCODING 12850
SWIDTH 1920 0
DWIDTH 32 0
BBX 30 32 1 -4
BITMAP
04000080
08000040
10000020
10070020
30060030
20060010
60060318
63FFFF98
600C0018
600C0018
C018000C
C018180C
C03FFC0C
C030180C
C070180C
C0B0180C
C13FF80C
C230180C
C430180C
C030180C
C03FF80C
C030180C
60301818
60301818
60301818
60301818
20301810
3030F830
10303020
10000020
08000040
04000080
ENDCHAR
STARTCHAR 3239
ENCODING 12857
SWIDTH 1920 0
DWIDTH 32 0
BBX 30 32 1 -4
BITMAP
04000080
08000040
10000020
1040E020
3070D830
2060CC10
6060C618
6060C618
60C0C018
60C0C198
C0FFFFCC
C180C00C
C180C00C
C380C00C
C380C00C
C580C00C
C980600C
C180600C
C180600C
C180600C
C180600C
C180320C
61803218
61803218
61801A18
61801E18
21800E10
31800730
11800320
10000020
08000040
04000080
ENDCHAR
STARTCHAR 32A4
ENCODING 12964
SWIDTH 1920 0
DWIDTH 32 0
BBX 30 30 1 -3
BITMAP
000FC000
00703800
01800600
02000100
04000080
08038040
10030020
20030010
20030010
40030008
40030008
40030C08
8003FE04
80030004
80030004
80030004
80030004
80030004
40030008
40030008
40030008
20030310
27FFFF90
10000020
08000040
04000080
02000100
01800600
00703800
000FC000
ENDCHAR
STARTCHAR 32A5
ENCODING 12965
SWIDTH 1920 0
DWIDTH 32 0
BBX 30 30 1 -3
BITMAP
000FC000
00703800
01800600
02000100
04000080
08038040
10030020
20030010
20030010
41030608
41FFFF08
41830608
81830604
81830604
81830604
81830604
81FFFE04
81830604
40030008
40030008
40030008
20030010
20030010
10030020
08030040
04000080
02000100
01800600
00703800
000FC000
ENDCHAR
STARTCHAR 32A6
ENCODING 12966
SWIDTH 1920 0
DWIDTH 32 0
BBX 30 30 1 -3
BITMAP
000FC000
00703800
01800600
02000100
04000080
08000040
10000320
27FFFF90
20030010
40030008
40030008
4003C008
80033004
80031C04
80030E04
80030604
80030004
80030004
40030008
40030008
40030008
20030010
20030010
10030020
08030040
04000080
02000100
01800600
00703800
000FC000
ENDCHAR
STARTCHAR 32A7
ENCODING 12967
SWIDTH 1920 0
DWIDTH 32 0
BBX 30 30 1 -3
BITMAP
000FC000
00703800
01800600
02000100
04000080
08070040
10060020
20060010
20060310
43FFFF88
400C0008
400C0008
80180004
80180004
80301804
807FFC04
80C30004
81030004
46030008
40030008
40030008
20030610
21FFFF10
10000020
08000040
04000080
02000100
01800600
00703800
000FC000
ENDCHAR
STARTCHAR 32A8
ENCODING 12968
SWIDTH 1920 0
DWIDTH 32 0
BBX 30 30 1 -3
BITMAP
000FC000
00703800
01800600
02000100
04000080
08070040
10060020
20060010
20060310
43FFFF88
400C0008
400C0008
80180004
80180004
80301804
807FFC04
80B01804
81301804
46301808
40301808
40301808
20301810
203FF810
10301820
08000040
04000080
02000100
01800600
00703800
000FC000
ENDCHAR
STARTCHAR 3303
ENCODING 13059
SWIDTH 1920 0
DWIDTH 32 0
BBX 30 30 1 -3
BITMAP
00080000
007C0000
87EE0000
7E1E0000
78380000
26600000
03820000
0303FFF8
0301FFFC
03008000
03000000
06000000
06000000
04000000
0C030000
08018000
1061C000
20318000
00398000
00318000
00318040
00318080
00318100
00318600
00618C00
0061B800
00C3F000
0081C000
01008000
02000000
ENDCHAR
STARTCHAR 330D
ENCODING 13069
SWIDTH 1920 0
DWIDTH 32 0
BBX 30 31 1 -3
BITMAP
0C000000
06000000
07000060
0630C3F0
87F87F38
FF1C6030
76186030
26186030
0C183020
0C303060
0C303060
1A303060
11E03060
30E03FE0
20C03060
C0000000
00600000
30300000
18380000
1C300000
18300000
18310000
1831FFF8
1830FFFC
10304000
00300000
00600000
00600000
00C00000
01800000
06000000
ENDCHAR
STARTCHAR 3314
ENCODING 13076
SWIDTH 1920 0
DWIDTH 32 0
BBX 30 28 0 -1
BITMAP
1C000000
0E000000
0C000000
0E000000
06600000
06F00000
87800000
7E000000
3B000000
13000000
030C0000
017E0000
01F00008
8380607C
7E803FFC
38C03018
10C03018
00C03018
00C03018
00601818
00601830
00601830
00601830
00601830
00001830
00001FF0
00001830
00001800
ENDCHAR
STARTCHAR 3318
ENCODING 13080
SWIDTH 1920 0
DWIDTH 32 0
BBX 29 31 1 -3
BITMAP
08040000
0E230000
0C1983C0
0C6DFFE0
0FEC3800
18600060
186207F0
10C1FE38
20C0F030
21804060
41800060
830000C0
020000C0
06000180
0C000300
18060600
30031800
60038000
80030000
00030000
00030000
00060000
00060000
00044000
000C2000
00081800
00080C00
0011FE00
03FF0700
01E00300
01000300
ENDCHAR
STARTCHAR 3322
ENCODING 13090
SWIDTH 1920 0
DWIDTH 32 0
BBX 31 32 0 -4
BITMAP
18000000
0C004000
0E003000
0C0C1E00
0C7E0E00
0DEC0002
8E180004
FC100008
6C200030
0C0080E0
0C004380
04007F00
06003C00
03F81000
00FC0000
00001000
00003C00
00007000
0003C000
003F0000
00018000
00019F80
0207FFC0
01FD8000
00F18000
00430000
00030000
00020000
00060000
00040000
00080000
00300000
ENDCHAR
STARTCHAR 3323
ENCODING 13091
SWIDTH 1920 0
DWIDTH 32 0
BBX 30 30 1 -3
BITMAP
18008000
0C006000
0E003C00
0C181C00
0C7C0000
0DDC0004
8F100018
FC200030
6C0100E0
2C008380
0400FF00
06047C00
03FE2000
00FC0000
00000000
00060000
00030000
00038000
00030000
00030000
00038000
00037000
00031C00
00030E00
00030600
00030000
00030000
00030000
00030000
00030000
ENDCHAR
STARTCHAR 3326
ENCODING 13094
SWIDTH 1920 0
DWIDTH 32 0
BBX 27 30 4 -3
BITMAP
C0200000
62180000
718C0000
60CC0000
60C00000
60000000
60000000
7C000000
67000000
63800000
61C00000
60C00000
60018000
6000C000
6030E000
6018C000
601CC000
6018C000
6018C000
0018C000
0018C020
0018C040
0030C080
0030C100
0020C600
0060DC00
0041F800
0080E000
01004000
02000000
ENDCHAR
STARTCHAR 3327
ENCODING 13095
SWIDTH 1920 0
DWIDTH 32 0
BBX 27 28 4 0
BITMAP
E0000000
30000000
38000000
30000000
30000000
30000000
30000000
3E000000
33C00000
30E00000
30600000
30000000
30000000
30080000
30040000
30030000
3001E000
3000E020
30000040
00000080
00000180
00000300
00000600
00101C00
0008F000
000FE000
000F8000
00040000
ENDCHAR
STARTCHAR 332B
ENCODING 13099
SWIDTH 1920 0
DWIDTH 32 0
BBX 31 30 0 -3
BITMAP
18038000
0C044000
0E444000
0C244000
0C138000
0C184000
0C0C7FFC
180C3FFE
180E1000
10060000
30060000
20060000
40000000
80000000
00000300
18000180
0C0801C0
0E060180
0C63C180
0CF1C180
0F6001E0
9E40059C
FC80098E
6D003186
4C08E180
040F8180
06070180
03F20180
01F00180
00000180
ENDCHAR
STARTCHAR 3336
ENCODING 13110
SWIDTH 1920 0
DWIDTH 32 0
BBX 32 31 0 -3
BITMAP
00000200
00000380
03000318
068003F8
04400618
0C200630
08300C30
98181860
700C2060
700E00C0
20060180
00060300
00000600
00000C00
00003000
00000000
08000000
0E000180
0C6000C0
0FF018E0
18600CC0
18C00CC0
34D00CC0
679FCCC1
838FECC2
030818C4
060018D8
0C0011F0
180020E0
30004040
C0008000
ENDCHAR
STARTCHAR 333B
ENCODING 13115
SWIDTH 1920 0
DWIDTH 32 0
BBX 31 29 0 -2
BITMAP
000E0000
00110000
00110000
06110000
0D0E0000
08C04000
18607FFC
B0303FFE
70181000
600C0000
000E0000
00070000
00030000
00000000
00000200
00100180
000C10C0
00070CC0
00430600
00200600
003C0000
001C0000
00000200
00000C00
00803000
0041E000
007F8000
003E0000
00100000
ENDCHAR
STARTCHAR 3349
ENCODING 13129
SWIDTH 1920 0
DWIDTH 32 0
BBX 28 30 1 -4
BITMAP
30000000
0E000000
03800000
01C00000
00E00000
00600000
000001C0
00008060
38006070
06003070
03803860
01C03060
00C03060
00003060
00003060
00003060
E0003060
18003060
0E003060
03802060
01C00060
00E000C0
006000C0
000000C0
00000180
00000180
00000300
00000200
00000400
00001800
ENDCHAR
STARTCHAR 334A
ENCODING 13130
SWIDTH 1920 0
DWIDTH 32 0
BBX 31 31 0 -3
BITMAP
1E0000C0
03C06060
00F03070
00303860
00003060
1C003060
03803060
01C03060
00C03060
00000060
000000C0
380000C0
07000080
01C00180
00E00100
00600600
00100000
008C0180
006600C0
023618E0
31300CC0
19800CC0
18900CC0
18DFCCC0
18CFECC2
186818C4
106018D8
306011F0
206030E0
40602040
80004000
ENDCHAR
STARTCHAR 334D
ENCODING 13133
SWIDTH 1920 0
DWIDTH 32 0
BBX 30 30 1 -3
BITMAP
00400000
00700000
00E00000
30C00000
0D800000
07020000
0383FFF8
06C1FFFC
0CE08000
08700000
10300000
20300000
C0000000
00000000
18001C00
0C000600
0E00C700
0C006600
0C006600
0F006600
0CE06604
0C706608
0C30C610
0C00C660
0C0186C0
0C010F80
0C020700
0C0C0200
0C000000
0C000000
ENDCHAR
STARTCHAR 3351
ENCODING 13137
SWIDTH 1920 0
DWIDTH 32 0
BBX 28 30 3 -3
BITMAP
03800000
C0C00000
70E00000
60C00000
60C00000
60C08300
60C06180
60C431C0
00C33180
01818300
01818300
03000600
06000C00
18001800
00003000
3000C000
18003000
1C001800
18031C00
18019800
1E019800
1B819810
18E19820
18619840
18031980
18031B00
18063E00
18041C00
18080800
10100000
ENDCHAR
STARTCHAR 3357
ENCODING 13143
SWIDTH 1920 0
DWIDTH 32 0
BBX 26 29 2 -3
BITMAP
00300000
C1F80000
7F9C0000
60184000
60183180
603218C0
603198C0
4030C180
0060C180
00600300
00C00300
01800600
03000C00
0C183000
000C0000
000E0000
000C0000
000C0000
000C0000
000F0000
000DC000
000C7000
000C3800
000C1800
000C0000
000C0000
000C0000
000C0000
00080000
ENDCHAR
STARTCHAR 337B
ENCODING 13179
SWIDTH 1920 0
DWIDTH 32 0
BBX 32 28 0 -2
BITMAP
00000070
000C0060
7FFE006C
01800066
01800066
21880060
118E2066
198C3FFF
198C3060
19983060
19903060
01A03064
01863067
FFFF3366
01803F66
01803366
0180336C
0180336C
0180332C
01803328
01803338
01802339
01802379
01806E6A
018046CE
0180408E
01804107
01808203
ENDCHAR
STARTCHAR 337C
ENCODING 13180
SWIDTH 1920 0
DWIDTH 32 0
BBX 32 28 0 -2
BITMAP
00060600
03FF0F00
00661C00
8666F800
FF661800
C6661886
C66618FF
C6461AC6
C6C6FFC6
C6BC18C6
C71C38C6
FE183CC6
C6003AC6
C6003AC6
C68C7BC6
C6FE5AC6
C6CC58C6
C6CC58C6
FECC98C6
C6CC98C6
C6CD18C6
C0CC18FE
00CC18C6
00CC18C6
00CC18C0
00FC1800
00CC1800
00CC1800
ENDCHAR
STARTCHAR 337D
ENCODING 13181
SWIDTH 1920 0
DWIDTH 32 0
BBX 32 28 0 -2
BITMAP
01C00000
0180000C
01807FFE
01800180
01800180
01860180
FFFF0180
01800180
01801D80
01801980
01801980
01801998
034019FC
03401980
03401980
03401980
03401980
06201980
06201980
06201980
0C301980
0C101980
08181980
18181980
100C1980
200F1986
4006FFFF
80060000
ENDCHAR
STARTCHAR 337E
ENCODING 13182
SWIDTH 1920 0
DWIDTH 32 0
BBX 32 28 0 -2
BITMAP
00868040
00FF6070
86C63060
FEC63860
C6C61860
C6C70060
C6C6C050
C6C664C8
C6FE748C
C6C63486
FEC6091E
C6C60FE3
C6C60B83
C6C61A03
C6C61000
C6FE310C
C6C7F1FE
FEC6718C
C6C6718C
C0C6318C
00C6318C
00C6318C
00C6318C
0086318C
0186318C
010639FC
023E398C
040C198C
ENDCHAR
STARTCHAR 338E
ENCODING 13198
SWIDTH 1920 0
DWIDTH 32 0
BBX 31 21 0 -2
BITMAP
0000000E
0000001E
33180790
F7BC1860
39CC3030
318C3030
318C3030
318C3030
318C1860
318C1780
318C2000
318C2000
318C3000
318C1FF0
318C0FFC
318C100E
318C2006
318C2006
FBDF200C
00001018
00000FE0
ENDCHAR
STARTCHAR 338F
ENCODING 13199
SWIDTH 1920 0
DWIDTH 32 0
BBX 30 27 1 -2
BITMAP
30000000
F0000000
30000000
30000000
30000000
30000000
3000001C
3000003C
30000F20
30FE30C0
30106060
30206060
38406060
3C806060
350030C0
36002F00
33004000
31804000
31806000
30C03FE0
30601FF8
3030201C
3030400C
3018400C
FCFE4018
00002030
00001FC0
ENDCHAR
STARTCHAR 339C
ENCODING 13212
SWIDTH 1920 0
DWIDTH 32 0
BBX 32 17 0 0
BITMAP
33183318
F7BCF7BC
39CC39CC
318C318C
318C318C
318C318C
318C318C
318C318C
318C318C
318C318C
318C318C
318C318C
318C318C
318C318C
318C318C
318C318C
FBDF7BDF
ENDCHAR
STARTCHAR 339D
ENCODING 13213
SWIDTH 1920 0
DWIDTH 32 0
BBX 30 17 1 0
BITMAP
07031860
18CF7DF0
30738E30
60330C30
60330C30
C0030C30
C0030C30
C0030C30
C0030C30
C0030C30
C0130C30
C0130C30
C0330C30
60230C30
60630C30
30C30C30
0F0FBF7C
ENDCHAR
STARTCHAR 339E
ENCODING 13214
SWIDTH 1920 0
DWIDTH 32 0
BBX 31 25 0 0
BITMAP
30000000
F0000000
30000000
30000000
30000000
30000000
30000000
30000000
30018C30
30FFBEF8
3011C718
30218618
38418618
3C818618
35018618
36018618
33018618
31818618
31818618
30C18618
30618618
30318618
30318618
30198618
FCFFEFBE
ENDCHAR
STARTCHAR 33A1
ENCODING 13217
SWIDTH 1920 0
DWIDTH 32 0
BBX 29 27 1 0
BITMAP
000000E0
00000110
00000318
00000318
00000030
00000060
000000C0
00000108
00000108
000003F8
18F07BF8
7B399C00
1C0E0600
180C0600
180C0600
180C0600
180C0600
180C0600
180C0600
180C0600
180C0600
180C0600
180C0600
180C0600
180C0600
180C0600
FF7FBFC0
ENDCHAR
STARTCHAR 33C4
ENCODING 13252
SWIDTH 1920 0
DWIDTH 32 0
BBX 28 17 2 0
BITMAP
0F000F00
30C030C0
60706070
60306030
C030C030
C000C000
C000C000
C000C000
C000C000
C010C010
C010C010
C010C010
C030C030
60206020
60606060
30C030C0
0F000F00
ENDCHAR
STARTCHAR 33CD
ENCODING 13261
SWIDTH 1920 0
DWIDTH 32 0
BBX 32 24 0 0
BITMAP
FCFCFCFC
30203020
30403040
30403040
30803080
31003100
31003100
32003200
34003400
3C003C00
3C003C00
36003600
36003600
33003300
33003300
31803180
31803180
30C030C0
30C030E0
30603060
30603060
30333033
30333033
FCFCFCFC
ENDCHAR
STARTCHAR 4E00
ENCODING 19968
SWIDTH 1920 0
DWIDTH 32 0
BBX 32 4 0 12
BITMAP
00000008
0000001C
0000003E
FFFFFFFF
ENDCHAR
STARTCHAR 4E01
ENCODING 19969
SWIDTH 1920 0
DWIDTH 32 0
BBX 32 30 0 -4
BITMAP
00000004
0000000E
FFFFFFFF
00018000
00018000
00018000
00018000
00018000
00018000
00018000
00018000
00018000
00018000
00018000
00018000
00018000
00018000
00018000
00018000
00018000
00018000
00018000
00018000
00018000
00018000
00018000
00018000
003F8000
000F0000
00060000
ENDCHAR
STARTCHAR 4E03
ENCODING 19971
SWIDTH 1920 0
DWIDTH 32 0
BBX 32 29 0 -2
BITMAP
00200000
00380000
00300000
00300000
00300000
00300000
00300000
00300004
0030000E
0030007F
003003C0
00303E00
0033E000
003E0000
01F00000
1F300000
F0300000
00300000
00300000
00300000
00300010
00300010
00300010
00300010
00300010
00300030
00300038
003FFFF8
001FFFE0
ENDCHAR
STARTCHAR 4E07
ENCODING 19975
SWIDTH 1920 0
DWIDTH 32 0
BBX 32 30 0 -4
BITMAP
00000004
0000000E
FFFFFFFF
00180000
00180000
00180000
00180000
00180000
00180080
001801C0
001FFFE0
001800C0
001800C0
001800C0
001800C0
001800C0
003000C0
003000C0
003000C0
003000C0
00600180
00600180
00C00180
00C00180
01800300
03000300
06000600
0C00FE00
18003C00
60001800
ENDCHAR
STARTCHAR 4E08
ENCODING 19976
SWIDTH 1920 0
DWIDTH 32 0
BBX 32 32 0 -4
BITMAP
00010000
0001C000
00018000
00018000
00018000
00018000
00018000
00018004
0001800E
FFFFFFFF
00018000
00018000
00418000
00418000
00218000
00218000
00118000
00118000
00098000
000D8000
00070000
00030000
00070000
00068000
000C6000
00183000
00301C00
00600F00
01C003E0
030000FF
1C00003E
E0000004
ENDCHAR
STARTCHAR 4E09
ENCODING 19977
SWIDTH 1920 0
DWIDTH 32 0
BBX 32 27 0 -1
BITMAP
00000020
00000070
1FFFFFF8
00000000
00000000
00000000
00000000
00000000
00000000
00000000
00000000
00000080
000001C0
07FFFFE0
00000000
00000000
00000000
00000000
00000000
00000000
00000000
00000000
00000000
00000000
00000004
0000000E
FFFFFFFF
ENDCHAR
STARTCHAR 4E0A
ENCODING 19978
SWIDTH 1920 0
DWIDTH 32 0
BBX 32 30 0 -2
BITMAP
00020000
00038000
00030000
00030000
00030000
00030000
00030000
00030000
00030000
00030000
00030000
00030040
000300E0
0003FFF0
00030000
00030000
00030000
00030000
00030000
00030000
00030000
00030000
00030000
00030000
00030000
00030000
00030000
00030004
0003000E
FFFFFFFF
ENDCHAR
STARTCHAR 4E0B
ENCODING 19979
SWIDTH 1920 0
DWIDTH 32 0
BBX 32 30 0 -4
BITMAP
00000004
0000000E
FFFFFFFF
00018000
00018000
00018000
00018000
00018000
0001E000
00019800
00018600
00018380
000180E0
00018070
00018038
00018018
00018000
00018000
00018000
00018000
00018000
00018000
00018000
00018000
00018000
00018000
00018000
00018000
00018000
00018000
ENDCHAR
STARTCHAR 4E0D
ENCODING 19981
SWIDTH 1920 0
DWIDTH 32 0
BBX 32 30 0 -4
BITMAP
00000004
0000000E
FFFFFFFF
00004000
00007000
00006000
0000C000
0000C000
00018000
00030000
00031000
0007CC00
000D8300
00198180
003180E0
00618070
00C18038
0181801C
0701800C
0C01800C
30018000
C0018000
00018000
00018000
00018000
00018000
00018000
00018000
00018000
00018000
ENDCHAR
STARTCHAR 4E0E
ENCODING 19982
SWIDTH 1920 0
DWIDTH 32 0
BBX 32 32 0 -4
BITMAP
00400000
00700000
00600000
00600000
00600100
00600380
007FFFC0
00600000
00C00000
00C00000
00C00000
00C00400
00C00E00
01FFFF00
01800600
01800600
00000600
00000604
0000060E
FFFFFFFF
00000600
00000600
00000600
00000C00
00000C00
00000C00
00001800
00001800
00003000
0007F000
0001E000
0000C000
ENDCHAR
STARTCHAR 4E10
ENCODING 19984
SWIDTH 1920 0
DWIDTH 32 0
BBX 32 31 0 -4
BITMAP
00000004
0000000E
FFFFFFFF
00018000
00018000
00018000
02018020
03818070
0301FFF8
03018000
03018000
03018000
06018008
0601801C
07FFFFFE
0C00000C
0C00000C
0000000C
0000000C
0000000C
0000000C
00000018
00000018
00000018
00000030
00000030
00000060
000000E0
00001FC0
00000380
00000300
ENDCHAR
STARTCHAR 4E11
ENCODING 19985
SWIDTH 1920 0
DWIDTH 32 0
BBX 32 29 0 -2
BITMAP
00000200
00000700
07FFFF80
000C0300
000C0300
000C0300
000C0300
000C0300
000C0300
000C0300
000C0300
00180300
00180304
0018030E
FFFFFFFF
00180300
00180300
00180300
00180300
00180300
00180300
00300300
00300300
00300300
00300300
00300300
00300304
0030030E
FFFFFFFF
ENDCHAR
STARTCHAR 4E14
ENCODING 19988
SWIDTH 1920 0
DWIDTH 32 0
BBX 32 29 0 -2
BITMAP
00800200
00C00700
00FFFF80
00C00300
00C00300
00C00300
00C00300
00C00300
00C00300
00C00300
00FFFF00
00C00300
00C00300
00C00300
00C00300
00C00300
00C00300
00C00300
00C00300
00FFFF00
00C00300
00C00300
00C00300
00C00300
00C00300
00C00300
00C00304
00C0030E
FFFFFFFF
ENDCHAR
STARTCHAR 4E15
ENCODING 19989
SWIDTH 1920 0
DWIDTH 32 0
BBX 32 29 0 -2
BITMAP
00000008
0000001C
7FFFFFFE
00004000
00007000
0000E000
0000C000
0001C000
00018000
00038000
0007B800
000D8600
00198180
003180C0
00E18070
01818038
0601801C
1801800C
60018000
00018000
00018000
00018000
00018000
00018000
00018000
00018000
00000004
0000000E
FFFFFFFF
ENDCHAR
STARTCHAR 4E16
ENCODING 19990
SWIDTH 1920 0
DWIDTH 32 0
BBX 32 32 0 -4
BITMAP
02020200
03838380
03030300
03030300
03030300
03030300
03030300
03030300
03030300
03030304
0303030E
FFFFFFFF
03030300
03030300
03030300
03030300
03030300
03030300
03030300
03030300
03030300
0303FF00
03030300
03030300
03000000
03000000
03000000
03000008
0300001C
03FFFFFE
03000000
03000000
ENDCHAR
STARTCHAR 4E17
ENCODING 19991
SWIDTH 1920 0
DWIDTH 32 0
BBX 32 32 0 -4
BITMAP
02010080
0381C0E0
030180C0
030180C0
030180C0
030180C0
030180C0
030180C0
030180C0
030180C0
030180C0
030180C0
030180C4
030180CE
FFFFFFFF
030180C0
030180C0
030180C0
030180C0
030180C0
030180C0
030180C0
030180C0
030180C0
030180C0
030180C0
030180C0
030180C0
030180C0
03FFFFC0
030000C0
030000C0
ENDCHAR
STARTCHAR 4E18
ENCODING 19992
SWIDTH 1920 0
DWIDTH 32 0
BBX 32 30 0 -2
BITMAP
00000100
00000380
00000FC0
00003C00
0080F000
00C78000
00F80000
00C00000
00C00000
00C00000
00C00000
00C00010
00C00038
00FFFFFC
00C00C00
00C00C00
00C00C00
00C00C00
00C00C00
00C00C00
00C00C00
00C00C00
00C00C00
00C00C00
00C00C00
00C00C00
00C00C00
00C00C04
00C00C0E
FFFFFFFF
ENDCHAR
STARTCHAR 4E19
ENCODING 19993
SWIDTH 1920 0
DWIDTH 32 0
BBX 32 30 0 -4
BITMAP
00000004
0000000E
FFFFFFFF
00018000
00018000
00018000
00018000
04018040
060180E0
07FFFFF0
06018060
06030060
06038060
06034060
06063060
06061C60
060C0E60
06180760
06300360
06600360
07800060
06000060
06000060
06000060
06000060
06000060
06000060
06000FE0
060003C0
06000180
ENDCHAR
STARTCHAR 4E1E
ENCODING 19998
SWIDTH 1920 0
DWIDTH 32 0
BBX 32 29 0 -2
BITMAP
00000100
00000380
03FFFFC0
00000700
00000C00
00001800
00002000
00014020
0011C038
0039A03C
FFFDA070
001990C0
00319980
00318A00
00618C00
00C18600
00C18300
01818180
030180C0
06018070
0C01803F
3001801E
C0018004
003F8000
000F0000
00060000
00000010
00000038
3FFFFFFC
ENDCHAR
STARTCHAR 4E21
ENCODING 20001
SWIDTH 1920 0
DWIDTH 32 0
BBX 32 30 0 -4
BITMAP
00000004
0000000E
FFFFFFFF
00018000
00018000
00018000
08018020
0C018070
0FFFFFF8
0C018030
0C018030
0C418430
0C718730
0C618630
0C618630
0C618630
0C618630
0C618630
0C618630
0C618630
0C618630
0C7FFE30
0C600630
0C600630
0C600030
0C000030
0C000030
0C0007F0
0C0001E0
0C0000C0
ENDCHAR
STARTCHAR 4E26
ENCODING 20006
SWIDTH 1920 0
DWIDTH 32 0
BBX 32 30 0 -2
BITMAP
00000200
02000380
010003C0
00C00700
00600600
00300C00
00380800
00181000
00182020
00000070
1FFFFFF8
00183000
00183000
00183000
00183040
10183070
08183078
04183060
061830C0
031830C0
03183180
03983100
01983200
01983400
00183000
00183000
00183000
00183004
0018300E
FFFFFFFF
ENDCHAR
STARTCHAR 4E2A
ENCODING 20010
SWIDTH 1920 0
DWIDTH 32 0
BBX 32 32 0 -4
BITMAP
00018000
00018000
00034000
00034000
00062000
00063000
000C1000
000C1800
00180C00
00300600
00610300
00C1C180
018180C0
07018070
0C01803F
3001801E
C0018006
00018000
00018000
00018000
00018000
00018000
00018000
00018000
00018000
00018000
00018000
00018000
00018000
00018000
00018000
00018000
ENDCHAR
STARTCHAR 4E2D
ENCODING 20013
SWIDTH 1920 0
DWIDTH 32 0
BBX 27 32 3 -4
BITMAP
00080000
000E0000
000C0000
000C0000
000C0000
000C0000
800C0080
C00C01C0
FFFFFFE0
C00C00C0
C00C00C0
C00C00C0
C00C00C0
C00C00C0
C00C00C0
C00C00C0
C00C00C0
C00C00C0
C00C00C0
FFFFFFC0
C00C00C0
C00C00C0
000C0000
000C0000
000C0000
000C0000
000C0000
000C0000
000C0000
000C0000
000C0000
000C0000
ENDCHAR
STARTCHAR 4E31
ENCODING 20017
SWIDTH 1920 0
DWIDTH 32 0
BBX 29 32 2 -4
BITMAP
00404000
00707000
00606000
00606000
80606020
E0606038
C0606030
C0606030
C0606030
C0606030
C0606030
C0606030
C0606030
C0606030
C0606030
C0606030
C0606030
C0606030
FFE07FF0
C0606030
C0606030
00606000
00C06000
00C06000
00C06000
01806000
01806000
03006000
06006000
0C006000
30006000
C0006000
ENDCHAR
STARTCHAR 4E32
ENCODING 20018
SWIDTH 1920 0
DWIDTH 32 0
BBX 27 32 3 -4
BITMAP
00080000
000E0000
000C0000
000C0000
200C0200
300C0700
3FFFFF80
300C0300
300C0300
300C0300
300C0300
300C0300
3FFFFF00
300C0300
000C0000
800C0080
C00C01C0
FFFFFFE0
C00C00C0
C00C00C0
C00C00C0
C00C00C0
C00C00C0
C00C00C0
FFFFFFC0
C00C00C0
C00C00C0
000C0000
000C0000
000C0000
000C0000
000C0000
ENDCHAR
STARTCHAR 4E36
ENCODING 20022
SWIDTH 1920 0
DWIDTH 32 0
BBX 12 14 10 6
BITMAP
8000
4000
3000
1800
0C00
0600
0300
0380
01C0
00E0
00E0
0070
0070
0030
ENDCHAR
STARTCHAR 4E38
ENCODING 20024
SWIDTH 1920 0
DWIDTH 32 0
BBX 32 32 0 -4
BITMAP
00080000
000E0000
000C0000
000C0000
000C0000
000C0000
000C0000
000C0400
000C0E00
FFFFFF00
000C0600
000C0600
000C0600
000C0600
0C0C0600
030C0600
00CC0600
006C0600
00380600
001C0600
001E0600
00330600
00318600
0060C602
0060E602
00C06602
01806603
03000603
06000607
0C0007FE
300003FC
C0000000
ENDCHAR
STARTCHAR 4E39
ENCODING 20025
SWIDTH 1920 0
DWIDTH 32 0
BBX 32 31 0 -4
BITMAP
00800100
00C00380
00FFFFC0
00C00180
00C00180
00C40180
00C20180
00C18180
00C0C180
00C0E180
00C06180
00C06180
00C00180
00C00184
00C0018E
FFFFFFFF
00C00180
00C00180
00C00180
00C00180
00C00180
01800180
01800180
01800180
03000180
03000180
06000180
0C000180
18003F80
30000F00
C0000600
ENDCHAR
STARTCHAR 4E3B
ENCODING 20027
SWIDTH 1920 0
DWIDTH 32 0
BBX 32 30 0 -2
BITMAP
00100000
000C0000
00070000
00038000
0001C000
0000C000
00000020
00000070
1FFFFFF8
00018000
00018000
00018000
00018000
00018000
00018000
00018000
00018040
000180E0
0FFFFFF0
00018000
00018000
00018000
00018000
00018000
00018000
00018000
00018000
00018004
0001800E
FFFFFFFF
ENDCHAR
STARTCHAR 4E3C
ENCODING 20028
SWIDTH 1920 0
DWIDTH 32 0
BBX 32 32 0 -4
BITMAP
00200800
00380E00
00300C00
00300C00
00300C00
00300C00
00300C08
00300C1C
7FFFFFFE
00300C00
00300C00
00340C00
00330C00
00318C00
0030CC00
0030CC00
0030CC00
00300C04
00300C0E
FFFFFFFF
00300C00
00300C00
00600C00
00600C00
00600C00
00C00C00
00C00C00
01800C00
03000C00
06000C00
0C000C00
30000C00
ENDCHAR
STARTCHAR 4E3F
ENCODING 20031
SWIDTH 1920 0
DWIDTH 32 0
BBX 14 32 4 -4
BITMAP
0010
001C
0018
0018
0018
0018
0018
0018
0018
0018
0018
0018
0018
0018
0018
0018
0018
0018
0018
0030
0030
0030
0030
0060
0060
00C0
00C0
0180
0300
0600
1800
E000
ENDCHAR
STARTCHAR 4E42
ENCODING 20034
SWIDTH 1920 0
DWIDTH 32 0
BBX 31 31 0 -3
BITMAP
00000400
00400700
00400600
00400600
00400600
00400600
00200600
00200C00
00200C00
00200C00
00100C00
00101800
00101800
00081000
00083000
00042000
00046000
00024000
0002C000
00018000
00018000
00034000
00066000
000C3000
00181800
00300C00
00E00700
018003E0
060000FE
3800003C
C000000C
ENDCHAR
STARTCHAR 4E43
ENCODING 20035
SWIDTH 1920 0
DWIDTH 32 0
BBX 31 31 0 -4
BITMAP
00000400
00000E00
1FFFFF00
00180600
00180600
00180600
00180600
00180600
00180C00
00180C00
00180C08
00180C1C
00181FFE
0018180C
0018180C
0018000C
0030000C
0030000C
0030000C
0030000C
0060000C
0060000C
00600018
00C00018
00C00018
01800030
03000030
06000060
0C000FE0
300003C0
C0000180
ENDCHAR
STARTCHAR 4E45
ENCODING 20037
SWIDTH 1920 0
DWIDTH 32 0
BBX 32 32 0 -4
BITMAP
00100000
001C0000
001E0000
00180000
00180000
00181000
00303800
003FFC00
00301800
00601800
00603000
00C03000
00C03000
01806000
03006000
0600D000
0C00D000
18019000
60018800
00030800
00060400
00060600
000C0200
00180300
00300180
006000C0
00C000E0
01800070
0300003C
0C00001F
3000000E
C0000004
ENDCHAR
STARTCHAR 4E4B
ENCODING 20043
SWIDTH 1920 0
DWIDTH 32 0
BBX 32 32 0 -4
BITMAP
00010000
0001C000
00018000
00018000
00018000
00018080
000181C0
3FFFFFE0
000001C0
00000180
00000300
00000600
00000600
00000C00
00001800
00003000
00006000
0000C000
00018000
00030000
00060000
001C0000
02300000
02C00000
05000000
04800000
08400000
18300000
301F0000
F007FFFF
6000FFFE
20000000
ENDCHAR
ENDFONT
